<svg xmlns="http://www.w3.org/2000/svg" xmlns:xlink="http://www.w3.org/1999/xlink" viewBox="988.25 109.25 207 246"><defs><style>.a{fill:#fff;}.b{fill:#707070;}.c{filter:url(#c);}.d{filter:url(#a);}</style><filter id="a" x="988.25" y="109.25" width="207" height="246" filterUnits="userSpaceOnUse"><feOffset dy="3" input="SourceAlpha"/><feGaussianBlur stdDeviation="10" result="b"/><feFlood flood-opacity="0.161"/><feComposite operator="in" in2="b"/><feComposite in="SourceGraphic"/></filter><filter id="c" x="1007" y="128" width="168" height="208.5" filterUnits="userSpaceOnUse"><feOffset dy="3" input="SourceAlpha"/><feGaussianBlur stdDeviation="3" result="d"/><feFlood flood-opacity="0.161"/><feComposite operator="in" in2="d"/><feComposite in="SourceGraphic"/></filter></defs><g transform="translate(962 134)"><g class="d" transform="matrix(1, 0, 0, 1, -962, -134)"><path class="a" d="M207,189a3.009,3.009,0,0,1-3,3H63a3.009,3.009,0,0,1-3-3V9a3.009,3.009,0,0,1,3-3H204a3.009,3.009,0,0,1,3,3Z" transform="translate(958.25 130.25)"/></g><rect class="b" width="117" height="33" transform="translate(71.25 17.25)"/><rect class="b" width="45" height="45" transform="translate(71.25 125.25)"/><path class="b" d="M177,175H97.5a1.5,1.5,0,1,1,0-3H177a1.5,1.5,0,1,1,0,3Z" transform="translate(-26.25 -107.5)"/><path class="b" d="M177,215H97.5a1.5,1.5,0,1,1,0-3H177a1.5,1.5,0,0,1,0,3Z" transform="translate(-26.25 -132.5)"/><path class="b" d="M177,255H97.5a1.5,1.5,0,1,1,0-3H177a1.5,1.5,0,0,1,0,3Z" transform="translate(-26.25 -157.5)"/><path class="b" d="M177,295H97.5a1.5,1.5,0,1,1,0-3H177a1.5,1.5,0,0,1,0,3Z" transform="translate(-26.25 -182.5)"/><path class="b" d="M317,335H261.5a1.5,1.5,0,0,1,0-3H317a1.5,1.5,0,0,1,0,3Z" transform="translate(-128.75 -207.5)"/><path class="b" d="M317,375H261.5a1.5,1.5,0,0,1,0-3H317a1.5,1.5,0,0,1,0,3Z" transform="translate(-128.75 -232.5)"/><path class="b" d="M317,415H261.5a1.5,1.5,0,0,1,0-3H317a1.5,1.5,0,0,1,0,3Z" transform="translate(-128.75 -257.5)"/><path class="b" d="M317,455H261.5a1.5,1.5,0,0,1,0-3H317a1.5,1.5,0,0,1,0,3Z" transform="translate(-128.75 -282.5)"/><path class="b" d="M369.5,175h-24a1.5,1.5,0,1,1,0-3h24a1.5,1.5,0,1,1,0,3Z" transform="translate(-181.25 -107.5)"/><path class="b" d="M369.5,215h-24a1.5,1.5,0,0,1,0-3h24a1.5,1.5,0,0,1,0,3Z" transform="translate(-181.25 -132.5)"/><path class="b" d="M369.5,255h-24a1.5,1.5,0,0,1,0-3h24a1.5,1.5,0,0,1,0,3Z" transform="translate(-181.25 -157.5)"/><path class="b" d="M369.5,295h-24a1.5,1.5,0,0,1,0-3h24a1.5,1.5,0,0,1,0,3Z" transform="translate(-181.25 -182.5)"/><g class="c" transform="matrix(1, 0, 0, 1, -962, -134)"><path class="b" d="M199.5,190.5H58.5A4.42,4.42,0,0,1,54,186V4.5A4.42,4.42,0,0,1,58.5,0h141A4.42,4.42,0,0,1,204,4.5V186A4.42,4.42,0,0,1,199.5,190.5ZM58.5,3A1.417,1.417,0,0,0,57,4.5V186a1.417,1.417,0,0,0,1.5,1.5h141A1.417,1.417,0,0,0,201,186V4.5A1.417,1.417,0,0,0,199.5,3Z" transform="translate(962 134)"/></g><path class="b" d="M212.5,80H95.5A1.417,1.417,0,0,1,94,78.5v-33A1.417,1.417,0,0,1,95.5,44h117a1.417,1.417,0,0,1,1.5,1.5v33A1.417,1.417,0,0,1,212.5,80ZM97,77H211V47H97Z" transform="translate(-25 -27.5)"/><path class="b" d="M140.5,380h-45a1.417,1.417,0,0,1-1.5-1.5v-45a1.417,1.417,0,0,1,1.5-1.5h45a1.417,1.417,0,0,1,1.5,1.5v45A1.417,1.417,0,0,1,140.5,380ZM97,377h42V335H97Z" transform="translate(-25 -207.5)"/></g></svg>