<?xml version="1.0"?>
<svg xmlns="http://www.w3.org/2000/svg" height="512px" viewBox="0 0 512 512" width="512px" class=""><g><path d="m505.046875 422h-53.046875v-362c0-33.085938-26.914062-60-60-60-24.550781 0-319.652344 0-332 0-33.085938 0-60 26.914062-60 60s26.914062 60 60 60h30v332c0 33.085938 26.914062 60 60 60h302c33.085938 0 60-26.914062 60-60 0-14.363281-4.78125-22.777344-6.953125-30zm-415.046875-332h-30c-16.542969 0-30-13.457031-30-30s13.457031-30 30-30 30 13.457031 30 30zm60 392c-16.542969 0-30-13.457031-30-30v-392c0-10.925781-2.949219-21.167969-8.070312-30h280.070312c16.542969 0 30 13.457031 30 30v362h-250.769531c5.925781 17.945312 8.769531 21.691406 8.769531 30 0 16.542969-13.457031 30-30 30zm302 0h-250.050781c5.117187-8.828125 8.050781-19.089844 8.050781-30.011719h272c0 16.542969-13.457031 30.011719-30 30.011719zm0 0" data-original="#000000" class="active-path" data-old_color="#000000" fill="#FFFFFF"/><path d="m210 90h122v30h-122zm0 0" data-original="#000000" class="active-path" data-old_color="#000000" fill="#FFFFFF"/><path d="m150 151h242v30h-242zm0 0" data-original="#000000" class="active-path" data-old_color="#000000" fill="#FFFFFF"/><path d="m150 211h242v30h-242zm0 0" data-original="#000000" class="active-path" data-old_color="#000000" fill="#FFFFFF"/><path d="m150 271h242v30h-242zm0 0" data-original="#000000" class="active-path" data-old_color="#000000" fill="#FFFFFF"/><path d="m270 331h122v30h-122zm0 0" data-original="#000000" class="active-path" data-old_color="#000000" fill="#FFFFFF"/></g> </svg>
