<?xml version="1.0"?>
<svg xmlns="http://www.w3.org/2000/svg" height="512px" viewBox="0 -1 498 498" width="512px"><path d="m489.601562 300.800781c-28.554687-38.074219-74.007812-60.800781-121.601562-60.800781s-93.046875 22.726562-121.601562 60.800781l-8.398438 11.199219 8.398438 11.199219c28.554687 38.074219 74.007812 60.800781 121.601562 60.800781s93.046875-22.726562 121.601562-60.800781l8.398438-11.199219zm-65.601562 11.199219c0 30.878906-25.121094 56-56 56s-56-25.121094-56-56 25.121094-56 56-56 56 25.121094 56 56zm-164.800781 1.601562-1.199219-1.601562 1.199219-1.601562c13.503906-18 31.25-32.117188 51.25-41.476563-9.035157 12.03125-14.449219 26.917969-14.449219 43.078125s5.414062 31.046875 14.449219 43.070312c-20-9.351562-37.746094-23.46875-51.25-41.46875zm217.601562 0c-13.503906 18-31.25 32.117188-51.25 41.476563 9.035157-12.03125 14.449219-26.917969 14.449219-43.078125s-5.414062-31.046875-14.449219-43.070312c20 9.359374 37.746094 23.476562 51.25 41.476562l1.199219 1.601562zm0 0" fill="#FFFFFF"/><path d="m368 352c22.054688 0 40-17.945312 40-40s-17.945312-40-40-40-40 17.945312-40 40 17.945312 40 40 40zm0-64c13.230469 0 24 10.769531 24 24s-10.769531 24-24 24-24-10.769531-24-24 10.769531-24 24-24zm0 0" fill="#FFFFFF"/><path d="m271.59375 192h224.40625v-192h-48v176h-16v-144h-48v144h-16v-112h-48v112h-16v-80h-48v24.136719c-22.910156-42.871094-68.089844-72.136719-120-72.136719-74.992188 0-136 61.007812-136 136 0 61.070312 40.472656 112.855469 96 129.976562v22.023438h-16v16h16v104c0 22.054688 17.945312 40 40 40s40-17.945312 40-40v-104h16v-16h-16v-22.023438c53.070312-16.367187 92.222656-64.433593 95.59375-121.976562zm192.40625-176h16v160h-16zm-64 32h16v128h-16zm-64 32h16v96h-16zm-64 32h16v64h-16zm-256 72c0-66.167969 53.832031-120 120-120s120 53.832031 120 120-53.832031 120-120 120-120-53.832031-120-120zm144 272c0 13.230469-10.769531 24-24 24s-24-10.769531-24-24v-104h48zm0-120h-48v-18.246094c7.808594 1.390625 15.800781 2.246094 24 2.246094s16.191406-.855469 24-2.246094zm0 0" fill="#FFFFFF"/><path d="m240 184c0-57.34375-46.65625-104-104-104s-104 46.65625-104 104 46.65625 104 104 104 104-46.65625 104-104zm-192 0c0-48.519531 39.480469-88 88-88s88 39.480469 88 88-39.480469 88-88 88-88-39.480469-88-88zm0 0" fill="#FFFFFF"/><path d="m128 176h16v16h-16zm0 0" fill="#FFFFFF"/><path d="m160 176h16v16h-16zm0 0" fill="#FFFFFF"/><path d="m192 176h16v16h-16zm0 0" fill="#FFFFFF"/><path d="m96 176h16v16h-16zm0 0" fill="#FFFFFF"/><path d="m64 176h16v16h-16zm0 0" fill="#FFFFFF"/></svg>
