<svg xmlns="http://www.w3.org/2000/svg" viewBox="-6217.798 497.573 140.641 99.427">
  <defs>
    <style>
      .cls-1 {
        fill: #0067a3;
      }

      .cls-2 {
        fill: #fff;
      }
    </style>
  </defs>
  <g id="Group_256" data-name="Group 256" transform="translate(-7180)">
    <rect id="Rectangle_90" data-name="Rectangle 90" class="cls-1" width="122" height="88" transform="translate(972 501)"/>
    <g id="Jobs" transform="translate(962.202 497.573)">
      <path id="Path_78" data-name="Path 78" class="cls-2" d="M0-2430.287v49.713H140.641V-2480H0Zm61.24-34.034c.024.072.048.08.2.06.092-.016.533-.036.986-.044a5.616,5.616,0,0,0,.858-.06c.06-.06,7.429-.056,7.449,0a1.91,1.91,0,0,0,.653.04c.353,0,.894.012,1.2.032.413.028.573.024.6-.008s.132-.04.3-.028c.233.016.261.028.273.108.016.1.088.116.493.1.2-.008.241,0,.329.092s.14.1.329.1c.12,0,.22.016.22.036,0,.092.136.165.3.165s.176.012.188.088.032.088.144.08c.1-.008.136,0,.156.06a.218.218,0,0,0,.253.148c.084-.016.124.012.22.132a1.813,1.813,0,0,0,.521.494.058.058,0,0,1,.06.052,2.509,2.509,0,0,0,.557.589c.024,0,.044.044.044.1a.216.216,0,0,0,.06.144c.032.028.048.064.036.084s.032.088.1.152a.363.363,0,0,1,.124.213.268.268,0,0,0,.08.173.29.29,0,0,1,.08.22.325.325,0,0,0,.112.261.283.283,0,0,1,.1.3.294.294,0,0,0,.088.3.223.223,0,0,1,.084.18,1.5,1.5,0,0,0,.008.349c.024.253.036.281.12.292.124.02.148.1.072.245s-.084.425-.024.465a1.772,1.772,0,0,1,.04.525v.5l.12.1.12.1v.529c0,.4-.012.549-.06.609a2.887,2.887,0,0,0-.02,1.078,1.521,1.521,0,0,1,.04.481v.457l.12.088c.1.076.116.112.1.212a.342.342,0,0,1-.06.161,1.045,1.045,0,0,0,.04.653,1.926,1.926,0,0,1,.124.381.629.629,0,0,0,.1.273.237.237,0,0,1,.056.148.342.342,0,0,0,.1.2.358.358,0,0,1,.1.148c0,.076.325.369.461.421a1.366,1.366,0,0,0,.22.056.111.111,0,0,1,.112.1c.016.116.188.2.257.136a.3.3,0,0,1,.176-.048c.112,0,.132.016.144.108s.032.108.1.1a.317.317,0,0,1,.18.048c.1.064.321.06.345-.012.008-.028.128-.044.317-.044.273,0,.309.008.381.1l.076.1,8.568.016c4.711.008,8.692.028,8.844.044.18.016.289.012.317-.016a.689.689,0,0,1,.3-.044c.225,0,.253.008.253.076a.127.127,0,0,0,.044.1,2.449,2.449,0,0,0,.489.028c.421,0,.449.008.521.1s.112.1.277.1.221.02.293.1a.205.205,0,0,0,.233.072.2.2,0,0,1,.233.084.288.288,0,0,0,.16.1c.12,0,.2.048.2.12,0,.056.036.08.152.088s.152.028.16.1a.169.169,0,0,0,.1.125,1.208,1.208,0,0,1,.269.22.7.7,0,0,0,.245.184,1.845,1.845,0,0,1,.561.6.4.4,0,0,0,.156.172.191.191,0,0,1,.12.168.173.173,0,0,0,.04.124.115.115,0,0,1,.04.1.514.514,0,0,0,.1.2.491.491,0,0,1,.1.213.435.435,0,0,0,.12.2.343.343,0,0,1,.12.309.43.43,0,0,0,.084.3c.064.088.084.172.088.453.012.321.02.353.12.441.128.108.136.237.044.489a.379.379,0,0,0-.012.341c.048.144.056,3.34.052,21.6,0,16.71-.012,21.485-.052,21.677-.04.217-.04.269.016.373a.572.572,0,0,1,.052.273c-.008.116-.032.148-.112.168-.1.024-.1.028-.092.421s.008.4-.1.485-.108.116-.108.325-.008.233-.088.245-.092.048-.112.18a.691.691,0,0,1-.124.281.42.42,0,0,0-.1.208.16.16,0,0,1-.04.12.064.064,0,0,0-.016.076c.012.028-.04.1-.112.164a.681.681,0,0,0-.172.2,5.787,5.787,0,0,1-1.038,1.039.193.193,0,0,0-.132.1.11.11,0,0,1-.1.081.115.115,0,0,0-.1.04.126.126,0,0,1-.1.04c-.148,0-.325.12-.325.224,0,.076-.02.1-.1.1a.174.174,0,0,1-.124-.04c-.036-.06-.152.016-.221.14-.056.1-.068.108-.289.084s-.229-.02-.241.088c-.008.084-.036.112-.128.12a.517.517,0,0,1-.221-.028.625.625,0,0,0-.265-.012c-.124.024-.16.052-.18.128s-.048.1-.245.112c-.164.008-.237,0-.277-.052-.056-.068-.341-.084-.381-.02a1.1,1.1,0,0,1-.381.04c-.333,0-.361.008-.433.1l-.08.1H83.073c-10.72,0-16.121-.012-16.121-.04s-5.14-.04-15.335-.04-15.335.012-15.335.04a1.64,1.64,0,0,1-.545.04c-.533,0-.549,0-.625-.1s-.112-.1-.293-.1a.483.483,0,0,1-.241-.04c-.04-.064-.365-.048-.421.02-.032.04-.124.06-.285.06-.233,0-.241,0-.261-.116s-.048-.116-.192-.136c-.088-.012-.18-.008-.2.016-.056.052-.337.044-.373-.016a.244.244,0,0,1-.032-.108c0-.048-.044-.056-.208-.048-.188.012-.221,0-.309-.1a.285.285,0,0,0-.269-.112c-.148,0-.176-.012-.2-.1s-.04-.1-.188-.088-.168.008-.18-.1c-.008-.08-.036-.116-.1-.124a.333.333,0,0,1-.16-.092.243.243,0,0,0-.148-.076.3.3,0,0,1-.172-.1.3.3,0,0,0-.156-.1.1.1,0,0,1-.088-.072.2.2,0,0,0-.1-.112c-.048-.02-.084-.06-.076-.088s-.024-.06-.06-.076a.286.286,0,0,1-.212-.232.134.134,0,0,0-.06-.116.1.1,0,0,1-.06-.08.892.892,0,0,0-.3-.425c-.06,0-.1-.1-.076-.172.008-.028-.028-.1-.084-.148a.321.321,0,0,1-.1-.2.346.346,0,0,0-.06-.18.374.374,0,0,1-.06-.185.669.669,0,0,0-.164-.381.512.512,0,0,1-.036-.24.441.441,0,0,0-.04-.241.127.127,0,0,1-.04-.1c0-.052-.04-.08-.12-.1-.1-.02-.12-.04-.12-.156a.427.427,0,0,1,.06-.212.75.75,0,0,0,.02-.518.367.367,0,0,1-.04-.2c0-.16-.008-.176-.1-.176s-.1,0-.1-.321c0-.188.016-.321.04-.321s.04-7,.04-20.927-.012-20.928-.04-20.928-.04-.148-.04-.361c0-.357,0-.361.1-.361s.1-.016.1-.177a.369.369,0,0,1,.04-.2c.064-.04.048-.333-.024-.441-.088-.136-.06-.317.052-.333a.239.239,0,0,0,.156-.152c.06-.128.06-.144,0-.212-.1-.116-.072-.337.056-.365.092-.024.1-.044.1-.245s.008-.217.092-.229.208-.188.208-.3a.538.538,0,0,1,.1-.188.5.5,0,0,0,.1-.268c0-.072.02-.133.04-.133a1.674,1.674,0,0,0,.441-.449,1.155,1.155,0,0,1,.381-.393.389.389,0,0,0,.164-.12.4.4,0,0,1,.188-.12.071.071,0,0,0,.068-.08.123.123,0,0,1,.068-.108.886.886,0,0,0,.164-.108.375.375,0,0,1,.221-.084c.088,0,.128-.02.128-.06,0-.128.064-.169.225-.14.136.024.156.016.156-.048,0-.124.084-.172.3-.172.164,0,.225-.016.265-.076s.1-.076.3-.072c.273,0,.337-.024.337-.128,0-.068.04-.076.461-.076.453,0,.465,0,.557-.108s.1-.108.409-.08c.172.012.445.02.6.016.313-.008,16.69,0,17.54.008.3,0,.662-.008.814-.024.253-.028.269-.036.269-.128s0-.1.329-.088.329.012.353-.084.048-.1.172-.092.144,0,.156-.1.04-.112.152-.133a.428.428,0,0,0,.2-.1.157.157,0,0,1,.132-.06c.048.008.068-.012.068-.08a.184.184,0,0,1,.132-.2c.044-.016.068-.068.068-.14a.31.31,0,0,1,.1-.208c.112-.108.128-.208.04-.281a.3.3,0,0,1-.06-.2c0-.136.012-.152.112-.165.072-.008.1-.032.1-.076a.156.156,0,0,1,.052-.116,2.215,2.215,0,0,0,0-1.086c-.044-.036-.06-.116-.056-.273.008-.325.008-.325-.1-.325h-.1l.008-1.451.012-1.451.1-.024c.088-.02.092-.04.1-.369a.85.85,0,0,1,.056-.4,1.125,1.125,0,0,0-.012-.7.442.442,0,0,1-.06-.229c0-.132.012-.148.1-.148.056,0,.1-.02.1-.04a.18.18,0,0,1,.044-.145.979.979,0,0,0,.056-.317c.016-.217.036-.285.1-.329s.08-.1.08-.212a.386.386,0,0,1,.06-.216.262.262,0,0,0,.06-.16.371.371,0,0,1,.1-.208.227.227,0,0,0,.08-.177c-.012-.036.028-.12.1-.2a.467.467,0,0,0,.12-.229.129.129,0,0,1,.092-.128.585.585,0,0,0,.2-.192,6.549,6.549,0,0,1,.99-.987c.056-.028.1-.072.1-.1,0-.068.1-.128.208-.128a.215.215,0,0,0,.156-.1.2.2,0,0,1,.176-.1c.076,0,.116-.024.132-.076s.06-.08.192-.092c.148-.008.18-.028.188-.1s.04-.088.3-.1.289-.02.3-.1.036-.088.377-.084.369,0,.457-.1a.29.29,0,0,1,.192-.108.174.174,0,0,0,.124-.04C61.159-2464.428,61.212-2464.409,61.24-2464.321Z" transform="translate(0 2480)"/>
      <path id="Path_79" data-name="Path 79" class="cls-2" d="M1579.621-1928.96a1.016,1.016,0,0,1-.313.1,1.123,1.123,0,0,0-.341.12.238.238,0,0,1-.132.064,2.085,2.085,0,0,0-.746.617,2.093,2.093,0,0,0-.369.758.36.36,0,0,1-.06.172,4.854,4.854,0,0,0-.16,1.58,4.218,4.218,0,0,0,.144,1.5.863.863,0,0,1,.076.268.356.356,0,0,0,.076.2.724.724,0,0,1,.1.2.726.726,0,0,0,.136.224c.056.064.148.181.2.249a2.368,2.368,0,0,0,.605.477c.056.028.128.068.16.088a3.105,3.105,0,0,0,.9.289,4.236,4.236,0,0,1,.493.1,13.652,13.652,0,0,0,2.249.02,3.017,3.017,0,0,1,.489-.1,3.129,3.129,0,0,0,.577-.136,1.582,1.582,0,0,1,.289-.1.36.36,0,0,0,.156-.068.477.477,0,0,1,.152-.092,2.684,2.684,0,0,0,.742-.734c.048-.084.1-.181.12-.213a2.541,2.541,0,0,0,.26-.778.943.943,0,0,1,.072-.3,9.518,9.518,0,0,0,.032-1.972c-.024-.12-.068-.349-.1-.5a2.5,2.5,0,0,0-.337-.866.393.393,0,0,1-.084-.152,2.1,2.1,0,0,0-.533-.509.735.735,0,0,1-.2-.12.417.417,0,0,0-.2-.1.242.242,0,0,1-.148-.056,1.2,1.2,0,0,0-.4-.1,2.382,2.382,0,0,1-.473-.1,9.435,9.435,0,0,0-1.768-.056A15.1,15.1,0,0,0,1579.621-1928.96Z" transform="translate(-1514.256 1951.09)"/>
      <path id="Path_80" data-name="Path 80" class="cls-2" d="M1205.956-1423.392a6.952,6.952,0,0,0-1.748.361,1.88,1.88,0,0,1-.321.1.694.694,0,0,0-.252.1.317.317,0,0,1-.136.076,4.7,4.7,0,0,0-.79.4c-.1.064-.221.136-.273.16a8.783,8.783,0,0,0-1.612,1.479c-.056.076-.149.193-.208.261a.506.506,0,0,0-.112.172c0,.028-.016.052-.036.052a2.264,2.264,0,0,0-.321.5.446.446,0,0,1-.064.1,1.008,1.008,0,0,0-.1.2,1.033,1.033,0,0,1-.1.2.7.7,0,0,0-.1.2,2.034,2.034,0,0,1-.124.3.723.723,0,0,0-.08.241.574.574,0,0,1-.076.221,1.338,1.338,0,0,0-.1.361,1.082,1.082,0,0,1-.056.26,7.793,7.793,0,0,0-.188,2.061c.016.144.036.417.048.605a3.569,3.569,0,0,0,.084.561c.032.12.084.321.112.441a6.113,6.113,0,0,0,.325.942,1.1,1.1,0,0,1,.1.269.112.112,0,0,0,.04.092.723.723,0,0,1,.12.193c.044.092.124.24.176.329s.136.224.185.3a4.257,4.257,0,0,0,.521.69,1.813,1.813,0,0,1,.241.3,8.331,8.331,0,0,0,1.443,1.227,8.15,8.15,0,0,0,1.287.666.36.36,0,0,1,.156.08.377.377,0,0,0,.188.08,1.212,1.212,0,0,1,.3.08,6.008,6.008,0,0,0,1.215.26,6.256,6.256,0,0,0,2.177-.084,1.148,1.148,0,0,1,.313-.056.821.821,0,0,0,.3-.08,1.306,1.306,0,0,1,.329-.116,6.1,6.1,0,0,0,1.74-.85.845.845,0,0,1,.2-.116.06.06,0,0,0,.056-.032,1.965,1.965,0,0,1,.252-.2,11.261,11.261,0,0,0,1.468-1.491,6.485,6.485,0,0,0,.637-.978c.048-.088.144-.277.221-.413a1.358,1.358,0,0,0,.14-.321.527.527,0,0,1,.08-.2.528.528,0,0,0,.08-.193,2.085,2.085,0,0,1,.1-.357,3.127,3.127,0,0,0,.136-.549,4.284,4.284,0,0,1,.088-.433,10.472,10.472,0,0,0,0-2.065c-.028-.112-.072-.329-.1-.481a5.345,5.345,0,0,0-.309-1.046,1.22,1.22,0,0,1-.076-.192,3.733,3.733,0,0,0-.245-.545c-.02-.032-.064-.12-.1-.2a1.978,1.978,0,0,0-.132-.241c-.04-.056-.136-.2-.217-.325a8.4,8.4,0,0,0-.9-1.1,8.249,8.249,0,0,0-1.018-.878c-.04-.012-.072-.044-.072-.064s-.064-.06-.14-.088-.14-.068-.14-.088a.445.445,0,0,0-.168-.112,4.075,4.075,0,0,1-.393-.216,1.483,1.483,0,0,0-.341-.164.7.7,0,0,1-.2-.08,4.7,4.7,0,0,0-.762-.281,3.955,3.955,0,0,0-.882-.2,1.388,1.388,0,0,1-.321-.06A8.552,8.552,0,0,0,1205.956-1423.392Z" transform="translate(-1151.071 1465.769)"/>
      <path id="Path_81" data-name="Path 81" class="cls-2" d="M1969.088-1296.184c-.052.012-.942.024-1.98.028-1.1,0-1.936.02-2,.044s-.71.044-1.439.048l-1.323.012-.156.1a5.88,5.88,0,0,0-.878.826c-.028.048-.112.184-.188.3a1.756,1.756,0,0,0-.257,1.515,6.087,6.087,0,0,0,.4,1.01.19.19,0,0,1,.056.1,4.5,4.5,0,0,0,.569.81,1.6,1.6,0,0,0,.329.233c.18.1.241.1.641.1.245,0,1.059.012,1.808.032s2.033.04,2.851.04c1.271,0,1.5.012,1.54.064a41.761,41.761,0,0,0,4.719.06,40.045,40.045,0,0,0,4.687-.06c.02-.052.18-.06,1.086-.06a8.06,8.06,0,0,0,1.139-.04c.072-.04.076-.112.076-2.538,0-1.371-.016-2.514-.032-2.542-.032-.052-.926-.064-7.573-.1C1970.972-1296.2,1969.14-1296.2,1969.088-1296.184Z" transform="translate(-1882.178 1343.66)"/>
      <path id="Path_82" data-name="Path 82" class="cls-2" d="M1965.7-965.676c-.253.016-.814.044-1.243.068a15.53,15.53,0,0,0-1.74.144c-.221.032-.457.06-.525.06a2.387,2.387,0,0,0-1.062.878c-.032.052-.1.144-.144.2a1.317,1.317,0,0,0-.152.245c-.036.076-.092.184-.124.241a1.838,1.838,0,0,0-.128,1.543c.06.152.128.309.148.341a1.391,1.391,0,0,1,.08.14,2.583,2.583,0,0,0,.18.281l.212.3a5.771,5.771,0,0,0,.577.589,1.484,1.484,0,0,0,.277.156,2.114,2.114,0,0,0,.874.136c.365.02.85.04,1.07.04.285,0,.421.016.449.052.068.08,10.119.092,10.188.012.036-.044.024-.1-.052-.249-.056-.108-.145-.289-.2-.4s-.164-.317-.245-.461a1.785,1.785,0,0,1-.141-.3,1.8,1.8,0,0,0-.152-.321,4.72,4.72,0,0,1-.224-.465.642.642,0,0,0-.108-.212.129.129,0,0,1-.036-.092.544.544,0,0,0-.1-.216.566.566,0,0,1-.1-.225.323.323,0,0,0-.076-.172,1.062,1.062,0,0,1-.12-.245.523.523,0,0,0-.1-.192.332.332,0,0,1-.08-.16.4.4,0,0,0-.1-.185.237.237,0,0,1-.076-.136c0-.072-.108-.232-.421-.613a1.265,1.265,0,0,0-.986-.513,2.2,2.2,0,0,1-.429-.072,4.8,4.8,0,0,0-1.09-.124c-.3-.02-.8-.056-1.123-.076C1968.037-965.724,1966.441-965.724,1965.7-965.676Z" transform="translate(-1881.868 1026.423)"/>
      <path id="Path_83" data-name="Path 83" class="cls-2" d="M1021.7-953.541c-.345.036-.513.076-.545.124a.388.388,0,0,1-.208.036,1.563,1.563,0,0,0-.329.04c-.517.136-.645.172-.862.24a3.2,3.2,0,0,1-.421.1,1.437,1.437,0,0,0-.321.1,1.264,1.264,0,0,1-.3.1,1.182,1.182,0,0,0-.26.08c-.056.028-.253.128-.441.216s-.377.188-.421.216a5.128,5.128,0,0,0-.641.477,1.026,1.026,0,0,1-.184.152,5.382,5.382,0,0,0-.565.706,2.684,2.684,0,0,0-.3.5c-.032.076-.092.213-.136.3a3.211,3.211,0,0,0-.281.822,1.792,1.792,0,0,1-.092.341,7.041,7.041,0,0,0-.132,1.764,4.167,4.167,0,0,0,.156,1.82.449.449,0,0,1,.08.128,4.143,4.143,0,0,0,.625.79,3.044,3.044,0,0,0,.642.509c.036.024.116.076.18.12a2.157,2.157,0,0,0,.786.208c.12.016,5.821.028,12.669.032,11.582,0,12.46,0,12.609-.068a2,2,0,0,1,.3-.092.6.6,0,0,0,.249-.1.362.362,0,0,1,.148-.08.518.518,0,0,0,.176-.1.551.551,0,0,1,.168-.1,2.866,2.866,0,0,0,.565-.545,3.632,3.632,0,0,0,.349-.958c.032-.132.084-.369.124-.529a5.559,5.559,0,0,0-.1-2.077,7.73,7.73,0,0,0-.317-.958.913.913,0,0,1-.084-.2,1.012,1.012,0,0,0-.1-.22,1.332,1.332,0,0,1-.124-.217,4.1,4.1,0,0,0-.4-.65,4.156,4.156,0,0,0-.4-.509.583.583,0,0,1-.1-.136,8.217,8.217,0,0,0-.842-.794c-.088-.068-.184-.14-.213-.16a2.754,2.754,0,0,0-.477-.341c-.052-.024-.172-.1-.273-.16a2.57,2.57,0,0,0-.24-.144c-.221-.1-.605-.273-.73-.337a.647.647,0,0,0-.24-.08.868.868,0,0,1-.269-.08,1.512,1.512,0,0,0-.4-.1,1.094,1.094,0,0,1-.265-.056c-.156-.112-.481-.14-1.564-.14a4.488,4.488,0,0,0-1.4.084c-.152.048-.349.1-.433.116a.845.845,0,0,0-.281.1.6.6,0,0,1-.188.076,6.022,6.022,0,0,0-.946.469,10.386,10.386,0,0,0-1.8,1.515.668.668,0,0,1-.136.152c-.132.112-1.568,1.876-1.732,2.133-.032.052-.168.233-.3.4s-.261.341-.285.385c-.088.152-.192.24-.277.229a26.289,26.289,0,0,1-2.225-2.317,2.276,2.276,0,0,1-.216-.285c-.02-.044-.048-.076-.068-.076a.474.474,0,0,1-.124-.148c-.048-.08-.12-.188-.152-.237s-.092-.132-.128-.193-.1-.152-.14-.208l-.132-.2a5.873,5.873,0,0,0-1.519-1.4c-.036-.024-.108-.068-.164-.1a.91.91,0,0,0-.2-.1,2.367,2.367,0,0,1-.26-.1c-.088-.04-.313-.12-.5-.18a3.437,3.437,0,0,0-1.343-.12C1022.456-953.569,1021.867-953.557,1021.7-953.541Z" transform="translate(-974.555 1014.761)"/>
    </g>
  </g>
</svg>
