<svg xmlns="http://www.w3.org/2000/svg" viewBox="-6604.052 486 206.715 146.138">
  <defs>
    <style>
      .cls-1 {
        fill: #0067a3;
        stroke: #707070;
      }

      .cls-2 {
        fill: #fff;
      }

      .cls-3 {
        fill: #f6f9fc;
      }

      .cls-4 {
        stroke: none;
      }

      .cls-5 {
        fill: none;
      }
    </style>
  </defs>
  <g id="Group_255" data-name="Group 255" transform="translate(-7180)">
    <g id="Rectangle_87" data-name="Rectangle 87" class="cls-1" transform="translate(625 505)">
      <rect class="cls-4" width="117" height="83"/>
      <rect class="cls-5" x="0.5" y="0.5" width="116" height="82"/>
    </g>
    <g id="Health" transform="translate(575.948 486)">
      <path id="Path_75" data-name="Path 75" class="cls-2" d="M0-2406.931v73.069H206.715V-2480H0Zm109.515-51.143c-.083.041-.035.047.171.023s.277-.012.253.047a8.149,8.149,0,0,0,2.1.112c.312-.006.513.012.513.047s-.065.047-.147.024-.147-.012-.147.012a1.685,1.685,0,0,0,.589.065,2.075,2.075,0,0,1,.672.071.715.715,0,0,0,.554.035c.088-.03.13-.018.13.029s-.041.059-.088.036-.088,0-.088.035.077.053.206.03c.112-.018.218-.012.236.017a.625.625,0,0,0,.318.018c.224-.018.295-.006.324.071s.082.089.253.06.206-.024.136.029-.059.059.059.047a.454.454,0,0,1,.218.029.607.607,0,0,0,.312.018.448.448,0,0,1,.271.029.19.19,0,0,0,.147.053c.059,0,.112.03.112.065s.053.052.118.035.118-.006.118.024.106.053.236.053.236.029.236.065.059.053.147.029.147-.011.147.024.024.053.053.029a.072.072,0,0,1,.094.03.387.387,0,0,0,.242.059.731.731,0,0,1,.336.083,1.363,1.363,0,0,0,.436.124c.165.023.318.07.33.112a.374.374,0,0,0,.253.083c.13.012.236.041.247.071s.088.035.171.023c.106-.023.141-.006.118.047s.012.083.071.089a1.572,1.572,0,0,1,.613.188.846.846,0,0,0,.377.1.143.143,0,0,1,.159.053.262.262,0,0,0,.153.106.726.726,0,0,1,.147.047,1.2,1.2,0,0,0,.283.077c.118.023.218.065.218.1s.035.053.077.042c.106-.018.336.071.336.129,0,.03.041.042.088.024s.088-.007.088.029.041.065.088.065a1,1,0,0,1,.306.117,1.012,1.012,0,0,0,.354.118.209.209,0,0,1,.165.064.7.7,0,0,0,.43.177.058.058,0,0,1,.071.053c0,.03.041.059.094.059s.071.03.047.071-.012.053.053.029.112-.012.13.024a.076.076,0,0,0,.094.023c.029-.023.053-.011.053.024s.083.071.177.094.177.059.177.088.083.065.177.089.177.065.177.094a.043.043,0,0,0,.047.046.947.947,0,0,1,.424.189c0,.024.083.059.177.083s.177.065.177.094.018.047.047.041a1.289,1.289,0,0,1,.536.271.159.159,0,0,0,.159.053c.047-.018.1.018.124.077a.261.261,0,0,0,.194.13.282.282,0,0,1,.194.1.176.176,0,0,0,.13.088c.047,0,.088.024.088.059s.035.059.082.059a.263.263,0,0,1,.153.088c.041.047.094.071.124.053a.032.032,0,0,1,.053.029.066.066,0,0,0,.065.065.892.892,0,0,1,.283.171.891.891,0,0,0,.247.159,1.551,1.551,0,0,1,.324.2,1.309,1.309,0,0,0,.33.194c.018-.005.071.024.106.071a.25.25,0,0,0,.147.088.15.15,0,0,1,.112.089.142.142,0,0,0,.124.088c.047,0,.088.03.088.059s.059.088.136.124c.283.13.454.242.454.295,0,.029.035.052.077.052a.34.34,0,0,1,.189.118.338.338,0,0,0,.189.118.141.141,0,0,1,.112.089c.024.047.065.088.106.088a1.249,1.249,0,0,1,.342.254.956.956,0,0,0,.33.229c.029-.006.141.088.247.224s.206.224.236.206.136.077.248.207.224.218.242.194.106.053.189.153a.57.57,0,0,0,.236.183.641.641,0,0,1,.247.189,1.521,1.521,0,0,0,.289.259.221.221,0,0,1,.112.147c.006.047.035.077.065.071a2.947,2.947,0,0,1,.56.49,3.571,3.571,0,0,0,.554.495,4.819,4.819,0,0,1,.913.919,3.02,3.02,0,0,0,.46.507c.442.436.454.454.466.754.012.26,0,.3-.077.271s-.088-.012-.065.082c.018.064.006.118-.029.118s-.041.023-.024.053a1,1,0,0,1-.2.477,1.758,1.758,0,0,0-.2.425.239.239,0,0,1-.047.083.21.21,0,0,0-.047.147.274.274,0,0,1-.082.182.736.736,0,0,0-.124.225,3.348,3.348,0,0,1-.165.412,1.041,1.041,0,0,0-.112.335.055.055,0,0,1-.047.077c-.029,0-.059.042-.059.089s-.029.088-.065.088-.041.03-.024.059a.145.145,0,0,1-.029.147c-.035.047-.053.112-.029.141s-.018.118-.082.189-.106.153-.088.182,0,.088-.035.135-.053.113-.035.142-.018.089-.088.125a.155.155,0,0,0-.094.182.834.834,0,0,1-.2.524,1.141,1.141,0,0,0-.124.424c.006.03-.012.047-.041.047s-.071.106-.094.236-.065.236-.094.236-.047.018-.041.041a1.041,1.041,0,0,1-.082.248.5.5,0,0,0-.065.277.086.086,0,0,1-.059.1c-.071.023-.106.13-.165.442a1.308,1.308,0,0,1-.118.2.325.325,0,0,0-.077.247c.018.053.012.094-.024.094-.053,0-.2.306-.212.448a.838.838,0,0,1-.112.218c-.059.089-.088.159-.065.159s.006.041-.035.088a.143.143,0,0,0-.029.147c.018.03-.006.077-.053.094s-.077.059-.059.089,0,.053-.035.053-.059.035-.041.083.012.094-.012.106a3,3,0,0,0-.354.731.1.1,0,0,1-.047.077,1.351,1.351,0,0,0-.165.271,1.359,1.359,0,0,1-.165.271c-.029.018-.047.047-.041.059a.638.638,0,0,1-.159.336.144.144,0,0,0-.041.141c.018.03-.024.1-.094.148a.858.858,0,0,0-.212.276,1.221,1.221,0,0,1-.3.465.159.159,0,0,0-.077.113,1.443,1.443,0,0,1-.236.341,1.422,1.422,0,0,0-.236.342c0,.035-.106.148-.23.253s-.224.212-.212.253a2.472,2.472,0,0,1-.748.643c-.024-.012-.094.053-.153.13s-.141.147-.177.147a1.074,1.074,0,0,0-.283.207.823.823,0,0,1-.283.195c-.106-.012-.389.124-.389.188,0,.03-.077.059-.171.059a.333.333,0,0,0-.236.082,1.162,1.162,0,0,1-.448.153c-.212.041-.365.094-.348.13s-.047.041-.177.012a.331.331,0,0,0-.324.059.256.256,0,0,1-.265.059.515.515,0,0,0-.253.006,32.365,32.365,0,0,1-3.3.012.588.588,0,0,0-.312-.006.76.76,0,0,1-.483-.058.983.983,0,0,0-.548-.077c-.194.011-.283.011-.189,0s.147-.047.136-.071a.537.537,0,0,0-.295-.006.6.6,0,0,1-.312-.007,1.463,1.463,0,0,0-.477-.058c-.236-.006-.424-.035-.424-.071s-.112-.041-.295-.018c-.218.03-.295.018-.295-.035,0-.083-.041-.083-.854-.106-.318-.006-.43-.03-.354-.059.183-.076-.1-.118-.318-.041a.415.415,0,0,1-.236.006c-.083-.03-.077-.042.024-.083s.071-.047-.088-.047a12.086,12.086,0,0,1-2.121-.082c0-.035.13-.053.324-.035a.762.762,0,0,0,.324-.006c0-.018-1.173-.035-2.61-.035a13.525,13.525,0,0,0-1.791.018,2.25,2.25,0,0,1,.807.077,8.823,8.823,0,0,1-1.691.041c-.937-.006-2.275-.006-2.976.006-1.125.018-1.273.03-1.237.112.024.065.006.083-.059.053a3.774,3.774,0,0,0-.56-.041c-.607-.012-.619-.012-.577.059a3.018,3.018,0,0,1-.925.065c-2.864.036-2.97.036-2.434.113.212.035.159.041-.206.023-.342-.017-.471,0-.412.035s-.177.059-.748.059a2.636,2.636,0,0,0-.878.065c-.029.047-.153.053-.4.024a2.6,2.6,0,0,0-.831-.037c-.029.019.059.054.206.071s.024.023-.277.012a1.442,1.442,0,0,0-.748.07.882.882,0,0,1-.566.065c-.242-.029-.354-.023-.354.024s-.177.059-.572.035c-.365-.018-.471-.011-.283.018.236.036.159.047-.383.053-.943.011-1,.018-1,.082,0,.029-.141.035-.306.024-.236-.024-.277-.018-.165.023s.018.047-.324.035c-.259-.011-.4-.011-.306.006s.159.053.159.082c0,.071-.247.071-.448-.005a.752.752,0,0,0-.46,0,19.753,19.753,0,0,1-2.834.03,1.375,1.375,0,0,1-.424-.124.291.291,0,0,0-.218-.047c-.053.018-.094.006-.094-.029s-.047-.065-.112-.065a.283.283,0,0,1-.183-.088.463.463,0,0,0-.194-.124c-.359-.111-1.273-1.02-1.226-1.22,0-.023-.035-.059-.083-.076a.149.149,0,0,1-.088-.117.075.075,0,0,0-.065-.083c-.035,0-.053-.041-.029-.088s-.018-.112-.088-.147-.1-.089-.083-.124.006-.053-.029-.053-.059-.041-.035-.088.006-.088-.024-.088-.059-.042-.059-.089-.029-.088-.065-.088-.047-.042-.029-.095-.012-.135-.082-.2-.1-.118-.077-.136,0-.076-.035-.123-.059-.118-.035-.147-.018-.106-.088-.165a.335.335,0,0,1-.118-.195.472.472,0,0,0-.094-.224c-.047-.071-.071-.13-.053-.13s-.018-.076-.082-.17-.106-.183-.083-.206.006-.036-.029-.036-.082-.094-.106-.206-.065-.206-.094-.206-.047-.041-.024-.088-.018-.112-.088-.147-.1-.089-.082-.112a5.066,5.066,0,0,0-.607-1.214.16.16,0,0,1-.065-.118c.024-.094-.118-.383-.183-.383-.029,0-.059-.053-.059-.112a.208.208,0,0,0-.059-.154.064.064,0,0,1-.029-.088c.018-.024-.012-.077-.059-.118a.282.282,0,0,1-.088-.183c0-.065-.024-.112-.059-.112s-.059-.053-.059-.112a.36.36,0,0,0-.088-.206.354.354,0,0,1-.094-.118c0-.106-.13-.389-.177-.389-.029,0-.053-.035-.053-.083a.262.262,0,0,0-.088-.153c-.047-.041-.071-.094-.059-.124.041-.059-.082-.289-.2-.384a.108.108,0,0,1-.047-.123c.024-.035-.012-.106-.077-.165s-.1-.13-.083-.153.006-.053-.029-.053-.071-.082-.094-.177-.059-.177-.082-.177-.082-.1-.212-.412c-.112-.283-.218-.471-.259-.471s-.141-.224-.13-.312c.006-.023-.024-.041-.059-.041s-.041-.03-.024-.059,0-.077-.053-.094a.088.088,0,0,1-.059-.112.187.187,0,0,0-.059-.165.3.3,0,0,1-.094-.153.066.066,0,0,0-.065-.065c-.035,0-.053-.041-.029-.088s.006-.088-.024-.088-.059-.042-.059-.089a.141.141,0,0,0-.088-.124.2.2,0,0,1-.088-.171.187.187,0,0,0-.082-.165.386.386,0,0,1-.13-.248.379.379,0,0,0-.118-.247.174.174,0,0,1-.082-.16.88.88,0,0,0-.171-.365,1.41,1.41,0,0,1-.171-.26,1.221,1.221,0,0,0-.212-.418.088.088,0,0,1-.012-.106c.024-.035.012-.065-.018-.065s-.065-.041-.065-.088-.024-.088-.059-.088-.053-.017-.047-.047a.658.658,0,0,0-.059-.207c-.1-.241-.088-.383.047-.495a.366.366,0,0,0,.118-.159,4.706,4.706,0,0,1,.684-.8.951.951,0,0,0,.2-.254,3.215,3.215,0,0,1,.442-.465c.242-.225.43-.431.412-.46a10.992,10.992,0,0,1,1.438-1.426,2.375,2.375,0,0,0,.477-.454,1.982,1.982,0,0,1,.413-.389c.024.018.153-.094.283-.235a1.006,1.006,0,0,1,.306-.265.722.722,0,0,0,.242-.206.647.647,0,0,1,.265-.207.216.216,0,0,0,.141-.117c.035-.065.094-.118.136-.118a.546.546,0,0,0,.248-.177c.088-.094.189-.16.212-.142s.094-.041.147-.123.136-.147.177-.147a.141.141,0,0,0,.118-.089.172.172,0,0,1,.147-.088.226.226,0,0,0,.171-.118.213.213,0,0,1,.147-.117.213.213,0,0,0,.147-.118c.035-.064.094-.118.13-.118a1.3,1.3,0,0,0,.33-.218,1.085,1.085,0,0,1,.377-.223.347.347,0,0,0,.2-.141c.047-.071.118-.112.147-.094s.053.006.053-.024a.075.075,0,0,1,.082-.065.264.264,0,0,0,.153-.088c.041-.053.088-.077.106-.065s.077-.03.136-.1.106-.106.112-.076.088-.012.194-.094a1.915,1.915,0,0,1,.542-.283,1.332,1.332,0,0,0,.289-.183,1.142,1.142,0,0,1,.289-.171.874.874,0,0,0,.242-.148c.106-.082.206-.129.23-.111s.13-.035.242-.124.23-.141.259-.124.1-.017.159-.082.124-.1.147-.088c.065.041.413-.141.413-.212,0-.036.035-.053.077-.047a.7.7,0,0,0,.424-.177.2.2,0,0,1,.159-.064.538.538,0,0,0,.265-.118.538.538,0,0,1,.253-.117.238.238,0,0,0,.141-.041.344.344,0,0,1,.165-.059.293.293,0,0,0,.171-.088.359.359,0,0,1,.206-.083c.094-.011.177-.047.189-.082a.15.15,0,0,1,.13-.059.184.184,0,0,0,.141-.053.277.277,0,0,1,.189-.053.258.258,0,0,0,.212-.095c.029-.052.077-.082.106-.064a.805.805,0,0,0,.336-.1,2.793,2.793,0,0,1,.342-.135,2.065,2.065,0,0,0,.619-.212.51.51,0,0,1,.242-.071.6.6,0,0,0,.283-.088.635.635,0,0,1,.318-.1c.153-.024.277-.065.277-.089s.059-.036.13-.012.112.012.082-.035.029-.071.189-.071a.621.621,0,0,0,.271-.041c.047-.047.071-.053.359-.071.136-.006.159-.018.088-.065s-.006-.059.212-.059a.887.887,0,0,0,.412-.082.332.332,0,0,1,.247-.053c.1.024.124.012.094-.058s.024-.089.224-.083c.56.006.79-.017.7-.076-.065-.041-.041-.059.106-.059.1,0,.189-.03.189-.065s.1-.058.324-.029c.194.024.324.012.324-.017s.112-.047.265-.024c.189.017.265.005.265-.042s-.047-.059-.118-.041-.118.006-.118-.018.124-.052.283-.052a3.639,3.639,0,0,0,.937-.088.936.936,0,0,1,.383,0c.253.029.342.017.342-.035s-.053-.065-.147-.047-.147.006-.147-.018a1.17,1.17,0,0,1,.489-.042,5.6,5.6,0,0,0,1.514-.077c-.289-.077.041-.13.577-.094.306.018.454.012.365-.018a8,8,0,0,1,1.444-.047A6.51,6.51,0,0,1,109.515-2458.074Zm1.414,29.169c-.159.023-.024.03.312.012.377-.017.6-.006.6.035s-.047.071-.1.083c-.088.023-.088.029.012.035a1.415,1.415,0,0,0,.306-.047,1.543,1.543,0,0,1,.619.029,3.769,3.769,0,0,0,.9.059c.265-.012.365-.006.236.012-.218.041-.224.047-.088.089a1.176,1.176,0,0,0,.46-.03c.236-.053.324-.053.377,0a1.8,1.8,0,0,0,.689.077c.436.006.577.023.477.059s.059.036.4.018c.442-.029.542-.024.542.047s.077.082.283.082c.707-.005,2.092.042,2,.065-.059.012-.106.053-.106.083a1.49,1.49,0,0,0,.7-.041c.1-.024.13-.006.106.053s.077.082.454.089c.7.023.884.047.907.123.012.042.1.053.236.035.159-.03.194-.023.13.024s-.035.059.118.052c.383-.012.8.059.778.136-.012.041.029.052.13.029.082-.017.159-.012.183.023a.093.093,0,0,0,.118.018.2.2,0,0,1,.165.029.7.7,0,0,0,.295.089.757.757,0,0,1,.3.094.23.23,0,0,0,.206.035.148.148,0,0,1,.153.03.257.257,0,0,0,.183.059c.082,0,.13.024.112.059s0,.041.047.023a.116.116,0,0,1,.13.03c.018.036.106.065.194.065a.575.575,0,0,1,.283.088c.071.047.141.064.165.047s.035-.005.035.03.082.071.177.071.177.023.177.053c0,.065.324.183.507.183.077,0,.141.023.141.059s.1.083.224.118a.746.746,0,0,1,.336.177c.059.065.13.1.159.082.065-.041.46.159.46.23,0,.029.041.035.094.018a.148.148,0,0,1,.171.065c.047.059.1.112.13.112a1.168,1.168,0,0,1,.43.206c0,.024.077.059.171.083s.189.071.2.117a.351.351,0,0,0,.206.118.3.3,0,0,1,.212.124.136.136,0,0,0,.124.083c.047,0,.088.03.088.065a.032.032,0,0,0,.053.029c.029-.018.082.006.124.053a.26.26,0,0,0,.153.088c.047,0,.082.029.082.059s.047.076.106.1a1.6,1.6,0,0,1,.312.206,1.18,1.18,0,0,0,.259.165,1.684,1.684,0,0,1,.324.236,1.62,1.62,0,0,0,.33.236.691.691,0,0,1,.2.177.445.445,0,0,0,.23.177,42.713,42.713,0,0,1,3.223,3.235c-.024.029.059.129.171.218a1.263,1.263,0,0,1,.324.4.85.85,0,0,0,.23.318c.071.042.124.1.124.136a.69.69,0,0,0,.147.241.621.621,0,0,1,.147.253.486.486,0,0,0,.177.224.785.785,0,0,1,.212.3c.018.083.059.153.088.153s.1.106.153.236.124.236.147.236.047.041.047.088.024.088.053.088.065.047.088.1a2.022,2.022,0,0,0,.183.342c.077.129.183.318.23.424a.823.823,0,0,0,.153.224.206.206,0,0,1,.059.153.164.164,0,0,0,.088.148c.047.018.1.124.124.236a.528.528,0,0,0,.118.265.239.239,0,0,1,.082.171.558.558,0,0,0,.118.253.6.6,0,0,1,.118.207,1.437,1.437,0,0,0,.253.489.1.1,0,0,1,.035.088.724.724,0,0,0,.177.407.219.219,0,0,1,.065.171.314.314,0,0,0,.083.212.142.142,0,0,1,.059.147.1.1,0,0,0,.029.118.187.187,0,0,1,.065.153c0,.059.029.112.065.112s.047.023.024.053a.067.067,0,0,0,.024.089.484.484,0,0,1,.088.241c.024.112.065.206.094.206s.071.118.094.265a.582.582,0,0,0,.088.295.1.1,0,0,1,.012.117c-.018.047,0,.089.029.089s.083.118.106.265a.635.635,0,0,0,.088.3.067.067,0,0,1,.024.089c-.024.029-.006.052.024.052s.065.066.065.148.024.147.053.147.047.113.041.248.024.253.071.271.071.082.071.153a.3.3,0,0,0,.059.189.927.927,0,0,1,.071.354c.012.195.041.294.083.277s.071.042.071.142a3.826,3.826,0,0,0,.065.507.955.955,0,0,1,.029.406c-.029.041-.012.053.047.035.077-.03.094.029.106.354.006.218.018.442.018.495s.041.106.082.106c.094,0,.094.03.018.177-.047.083-.035.123.029.159s.088.223.112.813c.012.424.029.778.035.8s.035-.053.059-.147c.029-.112.041.012.029.324-.018.348-.006.436.024.295s.053.018.059.542a2.606,2.606,0,0,0,.065.784,8.993,8.993,0,0,1,.059,1.532,9,9,0,0,1-.059,1.532,2.617,2.617,0,0,0-.065.754c0,.5-.018.684-.059.6s-.047-.006-.029.266c.012.212.012.324-.006.247-.047-.236-.13-.135-.118.148.024.625-.018,1.143-.088,1.1-.047-.029-.053.018-.029.177s.018.218-.041.195c-.041-.018-.071.012-.071.071-.006.648-.029.831-.118.831-.059,0-.077.035-.059.106a.824.824,0,0,1-.047.383.783.783,0,0,0-.053.3c.018.018-.012.088-.065.165a.583.583,0,0,0-.094.294c0,.089-.024.177-.059.195a.227.227,0,0,0-.059.165.551.551,0,0,1-.088.26.292.292,0,0,0-.053.218c.018.053.006.094-.029.094s-.065.047-.065.1a1.3,1.3,0,0,1-.118.341,1.333,1.333,0,0,0-.118.331.237.237,0,0,1-.083.165.529.529,0,0,0-.118.271c-.024.112-.065.206-.094.206s-.071.089-.094.2a.363.363,0,0,1-.112.236c-.041.012-.094.106-.118.206s-.059.183-.082.183-.071.071-.106.159a1.361,1.361,0,0,1-.271.436.119.119,0,0,0-.053.089,1.545,1.545,0,0,1-.189.282,1.221,1.221,0,0,0-.183.265,2.563,2.563,0,0,1-.483.607.716.716,0,0,0-.194.248,6.277,6.277,0,0,1-.961.978,2.69,2.69,0,0,0-.436.336,1.512,1.512,0,0,1-.407.312c-.012-.017-.065.03-.112.106s-.118.118-.147.1-.077.012-.118.059a.263.263,0,0,1-.153.088c-.047,0-.083.029-.083.059s-.065.089-.147.117-.147.083-.147.113-.077.071-.171.094a.3.3,0,0,0-.206.124.16.16,0,0,1-.147.082.207.207,0,0,0-.153.059.065.065,0,0,1-.088.03c-.024-.018-.077.011-.118.059a.283.283,0,0,1-.183.089c-.065,0-.112.029-.112.059,0,.059-.248.188-.383.206a3.849,3.849,0,0,0-.519.212.182.182,0,0,1-.159.024c-.029-.018-.088.018-.13.076a.291.291,0,0,1-.212.112,1.688,1.688,0,0,0-.383.124,2.315,2.315,0,0,1-.483.159,2.455,2.455,0,0,0-.412.118,1.937,1.937,0,0,1-.407.112.481.481,0,0,0-.265.088,4.12,4.12,0,0,1-.919.183c-.018,0-.024.023-.006.053s-.1.053-.271.059a.817.817,0,0,0-.377.071.138.138,0,0,1-.136.029.066.066,0,0,0-.094.03.124.124,0,0,1-.13.03.168.168,0,0,0-.159.017,3.761,3.761,0,0,1-1.037.13c-.171,0-.189.012-.088.059s.065.047-.124.035c-.159-.006-.236.012-.218.053s-.136.065-.436.077a2.17,2.17,0,0,0-.79.088.925.925,0,0,1-.354.012c-.141-.018-.277-.029-.295-.029s-.053-.059-.071-.13.024-.183.13-.306c.218-.259,1.32-1.738,1.455-1.956.059-.1.189-.283.289-.413s.212-.288.253-.354c.194-.312.306-.477.348-.53a5.578,5.578,0,0,0,.371-.583,2.252,2.252,0,0,1,.194-.306c.271-.395.395-.6,1.114-1.862.283-.5.542-.967.572-1.049a1.453,1.453,0,0,1,.124-.236c.124-.194,1.237-2.551,1.237-2.622a6.34,6.34,0,0,1,.359-.825,1.237,1.237,0,0,0,.112-.342.979.979,0,0,1,.118-.318,1.026,1.026,0,0,0,.118-.354.339.339,0,0,1,.077-.206.684.684,0,0,0,.124-.306,1.113,1.113,0,0,1,.124-.353,1.4,1.4,0,0,0,.118-.389,1.749,1.749,0,0,1,.118-.412,1.75,1.75,0,0,0,.118-.412,2.753,2.753,0,0,1,.147-.5,2.052,2.052,0,0,0,.141-.512,4.733,4.733,0,0,1,.118-.59,4.788,4.788,0,0,0,.13-.6c.024-.218.047-.271.094-.207s.053.065.024-.018a3.783,3.783,0,0,1,.053-.737c.047-.347.088-.671.088-.713s.018-.065.047-.047.047-.083.047-.219.029-.618.059-1.072a32.048,32.048,0,0,0,.006-3.447c-.071-1.037-.071-1.084-.124-1.167a10.048,10.048,0,0,1-.177-1.29c-.006-.065-.024-.113-.047-.1s-.059-.071-.077-.195-.088-.413-.153-.642a3.485,3.485,0,0,1-.112-.56.33.33,0,0,0-.059-.206,5.467,5.467,0,0,1-.412-1.055,3.907,3.907,0,0,0-.2-.471.781.781,0,0,1-.094-.271.27.27,0,0,0-.088-.171.246.246,0,0,1-.088-.147,3.322,3.322,0,0,0-.424-.843.133.133,0,0,1-.047-.112.633.633,0,0,0-.1-.241c-.165-.253-.242-.378-.365-.607-.165-.3-.265-.365-.489-.319a1.047,1.047,0,0,0-.253.089,7.332,7.332,0,0,1-.913.377c-.047.012-.206.077-.354.142a7.553,7.553,0,0,1-.943.342c-.147.041-.371.118-.5.165a1.78,1.78,0,0,1-.424.094c-.1,0-.194.03-.206.059a1.788,1.788,0,0,1-.854.2c-.077-.024-.088-.018-.029.023.1.071-.029.13-.283.13a2.453,2.453,0,0,0-.536.112,3.486,3.486,0,0,1-.684.117,1.756,1.756,0,0,0-.53.107,1.891,1.891,0,0,1-.519.112c-.159.012-.507.053-.766.083-1.1.141-5.262.135-4.42-.006.159-.024.047-.036-.324-.036a5.112,5.112,0,0,1-1.573-.159,2.384,2.384,0,0,0-.583-.118,1.531,1.531,0,0,1-.471-.083,1.588,1.588,0,0,0-.377-.094c-.536-.083-.613-.106-.524-.159.065-.041.053-.047-.035-.041-.177.023-.684-.071-.654-.118.018-.023-.018-.048-.071-.053a2.85,2.85,0,0,1-.86-.23.492.492,0,0,0-.242-.083,1.023,1.023,0,0,1-.342-.118,1.074,1.074,0,0,0-.289-.118,7.052,7.052,0,0,1-1.078-.418,2.847,2.847,0,0,0-.365-.141c-.077-.024-.136-.065-.136-.094s-.059-.053-.124-.053a.917.917,0,0,1-.342-.112c-.118-.059-.466-.236-.772-.383s-.8-.406-1.09-.566-.607-.329-.707-.383-.283-.153-.412-.236-.289-.171-.354-.2c-.136-.071-.118-.065-1.031-.654-.371-.242-.725-.466-.778-.5s-.324-.218-.607-.412-.625-.436-.772-.536-.324-.241-.4-.312a.558.558,0,0,0-.177-.124,3.428,3.428,0,0,1-.477-.354,2.968,2.968,0,0,0-.483-.354,1.021,1.021,0,0,1-.253-.194,9.9,9.9,0,0,0-.8-.661c-.094-.064-.383-.306-.648-.53s-.583-.495-.713-.6-.365-.307-.53-.459-.377-.342-.489-.43a5.821,5.821,0,0,1-.489-.442,1.515,1.515,0,0,0-.348-.277c-.029,0-.053.112-.059.247-.006.212-.012.23-.053.106-.029-.106-.041-.041-.041.207a4,4,0,0,1-.088.8c-.053.241-.094.483-.1.53-.006.295-.053.495-.112.519-.041.011-.059.042-.041.071a1.127,1.127,0,0,1-.029.36c-.029.177-.071.418-.088.543s-.059.206-.094.188-.053.071-.053.218a1.945,1.945,0,0,1-.094.489,3.434,3.434,0,0,0-.147.494,1.126,1.126,0,0,1-.106.324.909.909,0,0,0-.1.3,1.241,1.241,0,0,1-.118.354,1.46,1.46,0,0,0-.112.323,1.773,1.773,0,0,1-.118.354c-.041.083-.136.306-.206.5-.118.324-.212.537-.53,1.238-.059.13-.124.277-.141.324a.86.86,0,0,1-.094.177,1.448,1.448,0,0,0-.118.236c-.035.083-.183.359-.324.619s-.312.565-.371.677a6.428,6.428,0,0,1-.466.778,2.738,2.738,0,0,0-.194.306,3.162,3.162,0,0,1-.424.613.1.1,0,0,0-.047.083.8.8,0,0,1-.147.248,1.038,1.038,0,0,0-.147.229c0,.065-.913,1.267-1.768,2.328-.678.843-1.367,1.614-2.681,3.011a7.472,7.472,0,0,0-.684.795c-.029.065-.124.242-.206.389a3.367,3.367,0,0,0-.236.542.908.908,0,0,1-.141.312c-.035.018-.059.141-.059.271s-.018.23-.041.23a13.184,13.184,0,0,0,0,3.123.749.749,0,0,1,.041.348,1.6,1.6,0,0,0,.083.512,2.327,2.327,0,0,1,.13.624.968.968,0,0,0,.082.431c.029-.018.077.112.112.277s.106.419.147.548.141.418.212.648c.124.395.66,1.768.766,1.969.029.053.141.277.247.507a2.043,2.043,0,0,0,.236.43.125.125,0,0,1,.047.1,3.1,3.1,0,0,0,.242.542c.136.253.324.6.418.778s.242.424.33.56a2.688,2.688,0,0,1,.2.33c.035.106,1.078,1.65,1.385,2.063.106.147.23.312.265.365.324.442.807,1.031,1.243,1.527a6.4,6.4,0,0,1,.513.63,31.617,31.617,0,0,0,2.717,2.687c.077.065.318.272.53.46a2.184,2.184,0,0,0,.454.342c.041,0,.071.023.071.047a1.323,1.323,0,0,0,.312.277c.165.129.318.248.336.265s.189.136.377.265c1.031.7,1.379.925,1.538,1.008.1.047.365.189.589.318a17.281,17.281,0,0,0,1.65.825,1.465,1.465,0,0,1,.289.112,5.7,5.7,0,0,0,1.12.389c.183.03.212.053.147.1s-.065.053.012.03a1.1,1.1,0,0,1,.354.018c.141.03.359.065.483.089s.206.059.189.088.018.052.071.047c.165,0,1.273.129,1.391.165.053.018.088.047.077.071a12.881,12.881,0,0,0,2.646.082,14.458,14.458,0,0,0,2.976-.135,13.773,13.773,0,0,1,1.485-.189c.053-.005.083-.035.065-.064s.047-.042.165-.018.171.018.124-.011c-.071-.042.271-.106.8-.142.065-.006.112-.035.094-.064s.035-.042.124-.024.153.006.153-.018.065-.053.147-.053a1.172,1.172,0,0,0,.359-.088,2.2,2.2,0,0,1,.513-.124,1.072,1.072,0,0,0,.377-.112.859.859,0,0,1,.354-.118,1.114,1.114,0,0,0,.348-.094,4.475,4.475,0,0,1,.925-.3c.024.005.041-.012.041-.042s.047-.052.106-.052a1.936,1.936,0,0,0,.495-.147,2.423,2.423,0,0,1,.471-.159.41.41,0,0,0,.189-.089.548.548,0,0,1,.277-.088.325.325,0,0,0,.224-.082.591.591,0,0,1,.259-.13,3.231,3.231,0,0,0,.424-.141c.13-.059.354-.154.5-.213s.383-.153.53-.218a2.219,2.219,0,0,1,.324-.124c.029-.011.194-.077.354-.147s.377-.171.471-.212.33-.148.513-.23a2.032,2.032,0,0,1,.418-.153.259.259,0,0,0,.159-.089.25.25,0,0,1,.147-.088,1.479,1.479,0,0,0,.336-.142,1.141,1.141,0,0,1,.418-.135.4.4,0,0,0,.277-.141c.112-.13.124-.13.1-.024a.188.188,0,0,0,.106.189c.1.059.053.071-.3.077a1.863,1.863,0,0,0-.454.035c-.018.018-.006.106.024.189.053.13.029.177-.194.407a.985.985,0,0,1-.318.253.356.356,0,0,0-.177.147.356.356,0,0,1-.177.147.351.351,0,0,0-.171.118.351.351,0,0,1-.183.118.216.216,0,0,0-.141.118c-.035.064-.1.118-.141.118a.35.35,0,0,0-.183.118.342.342,0,0,1-.189.118.073.073,0,0,0-.077.059c0,.035-.065.088-.147.118s-.147.076-.147.1c0,.047-.271.207-.365.213a.377.377,0,0,0-.13.124c-.053.065-.094.094-.094.065s-.047-.011-.106.042a3.963,3.963,0,0,1-.513.306c-.23.118-.454.236-.5.259a2.163,2.163,0,0,1-.236.118,1.9,1.9,0,0,0-.247.123c-.059.029-.153.088-.206.118a1.776,1.776,0,0,1-.583.23.1.1,0,0,0-.077.047c-.065.089-.306.2-.359.166-.035-.024-.059-.012-.059.023s-.088.076-.189.094a.948.948,0,0,0-.265.1.125.125,0,0,1-.124.023c-.029-.018-.106.024-.165.089a.231.231,0,0,1-.183.089.254.254,0,0,0-.183.017,1.793,1.793,0,0,1-.719.253.694.694,0,0,0-.318.1.3.3,0,0,1-.13.082.175.175,0,0,0-.094.005,1.966,1.966,0,0,1-.306.059.654.654,0,0,0-.265.077.132.132,0,0,1-.094.047,2.211,2.211,0,0,0-.648.148c-.012.023-.1.029-.183.012-.124-.024-.147-.012-.112.047s.024.071-.035.047a1.136,1.136,0,0,0-.377.024,3.432,3.432,0,0,1-.395.053.173.173,0,0,0-.136.053c-.018.03-.118.041-.218.018-.118-.024-.171-.018-.147.023s-.065.065-.248.065a3.764,3.764,0,0,0-1.125.129,1.152,1.152,0,0,1-.483.03c-.306-.012-.454,0-.395.035.041.03.071.053.053.053s-.79.007-1.727.018a6.024,6.024,0,0,1-1.668-.059c.018-.047-.094-.059-.412-.047a1.175,1.175,0,0,1-.466-.03,5.566,5.566,0,0,0-1.2-.141.458.458,0,0,1-.212-.047.328.328,0,0,0-.212-.006c-.118.023-.171.006-.171-.041s-.047-.059-.118-.042-.136.006-.153-.023a.844.844,0,0,0-.383-.053c-.218,0-.348-.024-.348-.064s-.053-.053-.118-.035-.13.011-.147-.018a1.894,1.894,0,0,0-.66-.135c-.041,0-.077-.018-.077-.047s-.136-.065-.295-.089a.935.935,0,0,1-.33-.088.234.234,0,0,0-.171-.053.251.251,0,0,1-.177-.059c-.018-.035-.165-.059-.33-.059s-.289-.023-.289-.047c0-.065-.471-.224-.572-.2-.041.011-.077-.006-.077-.042s-.077-.071-.177-.094-.177-.065-.177-.094-.077-.053-.177-.053-.177-.03-.177-.065-.024-.047-.053-.023a.076.076,0,0,1-.094-.024.089.089,0,0,0-.112-.03.1.1,0,0,1-.124-.029.171.171,0,0,0-.141-.065.251.251,0,0,1-.177-.082.529.529,0,0,0-.265-.118.589.589,0,0,1-.265-.118.529.529,0,0,0-.265-.118c-.112-.023-.218-.076-.236-.124a.2.2,0,0,0-.183-.089,1.108,1.108,0,0,1-.436-.206,1.392,1.392,0,0,0-.354-.206.98.98,0,0,1-.407-.224c-.041-.041-.106-.059-.136-.035s-.147-.035-.259-.118a.717.717,0,0,0-.312-.153.284.284,0,0,1-.189-.088c-.041-.047-.094-.076-.118-.059a.065.065,0,0,1-.088-.029.191.191,0,0,0-.147-.058.159.159,0,0,1-.136-.083.385.385,0,0,0-.242-.13c-.118-.018-.212-.059-.212-.082s-.124-.076-.277-.118a.728.728,0,0,1-.33-.159.288.288,0,0,0-.218-.077c-.1,0-.177-.029-.177-.059s-.035-.059-.083-.059a.223.223,0,0,1-.147-.083.2.2,0,0,0-.189-.053c-.071.018-.141.012-.165-.018a.853.853,0,0,0-.477-.259c-.065,0-.118-.029-.118-.065s-.024-.041-.059-.023-.059.006-.059-.03-.041-.059-.088-.041a.093.093,0,0,1-.118-.018.194.194,0,0,0-.153-.059c-.059,0-.112-.029-.112-.065s-.024-.047-.053-.023a.072.072,0,0,1-.094-.03.166.166,0,0,0-.124-.058,1.181,1.181,0,0,1-.336-.113,2.905,2.905,0,0,0-.448-.153.78.78,0,0,1-.289-.124.275.275,0,0,0-.183-.082,1.123,1.123,0,0,1-.33-.118,1.091,1.091,0,0,0-.336-.118.561.561,0,0,1-.212-.053,3.3,3.3,0,0,0-.7-.271c-.106-.024-.194-.064-.194-.095s-.024-.047-.053-.023a.072.072,0,0,1-.094-.03.243.243,0,0,0-.171-.059.288.288,0,0,1-.206-.083.662.662,0,0,0-.306-.123.639.639,0,0,1-.265-.094.066.066,0,0,0-.088-.023c-.029.023-.053.006-.053-.023s-.053-.065-.112-.065a.207.207,0,0,1-.153-.059.073.073,0,0,0-.094-.03c-.029.024-.053.012-.053-.023s-.088-.076-.189-.1a.921.921,0,0,1-.336-.147.462.462,0,0,0-.212-.112,1.389,1.389,0,0,1-.354-.147.772.772,0,0,0-.312-.124c-.012.018-.112-.035-.218-.111a.745.745,0,0,0-.247-.147.119.119,0,0,1-.094-.083.339.339,0,0,0-.218-.112,1.036,1.036,0,0,1-.336-.159.6.6,0,0,0-.206-.118.962.962,0,0,1-.259-.154c-.112-.088-.2-.129-.2-.106s-.029.006-.065-.053a.2.2,0,0,0-.118-.1.77.77,0,0,1-.271-.165c-.118-.089-.224-.148-.242-.135a.936.936,0,0,1-.277-.195,1.135,1.135,0,0,0-.318-.212c-.035,0-.088-.053-.124-.117s-.094-.118-.124-.118a3.1,3.1,0,0,1-.719-.572.156.156,0,0,0-.118-.077,10.848,10.848,0,0,1-1.338-1.313,2.832,2.832,0,0,0-.548-.678c-.088-.077-.147-.159-.13-.189s-.035-.094-.118-.153a.589.589,0,0,1-.183-.277.287.287,0,0,0-.118-.2.125.125,0,0,1-.083-.106.249.249,0,0,0-.088-.147c-.047-.042-.071-.094-.053-.124a.033.033,0,0,0-.029-.053c-.035,0-.065-.041-.065-.088s-.024-.089-.047-.089-.083-.1-.118-.23a.874.874,0,0,0-.159-.3.283.283,0,0,1-.088-.183c0-.065-.024-.112-.053-.112s-.071-.083-.094-.177-.065-.177-.094-.177-.047-.023-.024-.052a.723.723,0,0,0-.118-.337,1.294,1.294,0,0,1-.147-.377.237.237,0,0,0-.082-.171.255.255,0,0,1-.053-.207c.018-.076,0-.159-.035-.177a.355.355,0,0,1-.065-.241.487.487,0,0,0-.077-.277.364.364,0,0,1-.082-.194,4.58,4.58,0,0,0-.118-.678.265.265,0,0,1-.024-.142.189.189,0,0,0-.041-.117,2.676,2.676,0,0,1-.065-.589,2.52,2.52,0,0,0-.053-.59.406.406,0,0,1-.018-.2c.006-.071-.012-.13-.041-.13a7.139,7.139,0,0,1-.059-1.237,5.669,5.669,0,0,1,.059-1.237c.029,0,.047-.059.041-.135a.357.357,0,0,1,.024-.2,3.314,3.314,0,0,0,.059-.689c.006-.341.029-.578.047-.524s.047.071.059.041a.643.643,0,0,0-.035-.395c-.024-.053-.018-.1.018-.1a2.591,2.591,0,0,0,.147-.884.287.287,0,0,1,.059-.183.9.9,0,0,0,.082-.383,1.348,1.348,0,0,1,.118-.471c.053-.089.065-.141.024-.171-.094-.053-.077-.165.018-.129.059.024.077-.053.088-.33a1.116,1.116,0,0,1,.065-.418.351.351,0,0,0,.059-.212.369.369,0,0,1,.065-.218.821.821,0,0,0,.071-.365c.006-.23.029-.295.088-.271s.077-.006.047-.118c-.024-.088-.012-.147.024-.147s.053-.048.029-.112a.145.145,0,0,1,.029-.153.387.387,0,0,0,.059-.241.723.723,0,0,1,.094-.347.373.373,0,0,0,.059-.289c-.018-.083-.012-.165.024-.183a.353.353,0,0,0,.059-.224.607.607,0,0,1,.082-.307,1.43,1.43,0,0,0,.118-.436,1.321,1.321,0,0,1,.13-.442.787.787,0,0,0,.082-.371c0-.142.024-.253.059-.253.065,0,.177-.378.177-.6a.338.338,0,0,1,.077-.224.384.384,0,0,0,.088-.247.57.57,0,0,1,.053-.247.429.429,0,0,0,.047-.236c0-.089.012-.159.035-.159.047,0,.13-.236.118-.336a.119.119,0,0,1,.053-.106.248.248,0,0,0,.059-.177c0-.077.029-.148.065-.159s.077-.123.082-.241a.569.569,0,0,1,.053-.26.279.279,0,0,0,.035-.147c0-.059.029-.106.065-.106s.047-.023.024-.053a.072.072,0,0,1,.029-.094.255.255,0,0,0,.059-.182.6.6,0,0,1,.094-.289c.053-.076.077-.171.053-.206s-.006-.059.024-.059.065-.077.065-.165a1.122,1.122,0,0,1,.118-.395,1.058,1.058,0,0,0,.118-.354.448.448,0,0,1,.088-.23.5.5,0,0,0,.088-.253c0-.076.029-.135.059-.135a.061.061,0,0,0,.053-.076c-.012-.118.071-.336.136-.336.029,0,.041-.024.018-.053a.692.692,0,0,1,.118-.331.745.745,0,0,0,.112-.33c-.018-.03.024-.135.094-.23s.106-.177.083-.177-.012-.036.024-.077a.858.858,0,0,0,.1-.265c.018-.1.065-.189.1-.189s.047-.018.029-.036.018-.117.082-.206.1-.171.077-.171-.018-.03.024-.071a.262.262,0,0,0,.071-.171.541.541,0,0,1,.118-.248.529.529,0,0,0,.118-.242.149.149,0,0,1,.088-.129c.047-.018.1-.124.124-.236a.529.529,0,0,1,.118-.265.223.223,0,0,0,.082-.147.075.075,0,0,1,.065-.083c.029,0,.047-.024.024-.053s.006-.077.047-.106a1.906,1.906,0,0,0,.348-.678c-.006-.024.041-.071.106-.106s.106-.089.088-.112.012-.083.059-.124a.247.247,0,0,0,.088-.147.15.15,0,0,1,.088-.112.141.141,0,0,0,.088-.118.158.158,0,0,1,.088-.118.14.14,0,0,0,.088-.112.339.339,0,0,1,.118-.188.363.363,0,0,0,.118-.177.151.151,0,0,1,.088-.112.139.139,0,0,0,.088-.112.339.339,0,0,1,.118-.188.363.363,0,0,0,.118-.16,1.857,1.857,0,0,1,.295-.323,1.418,1.418,0,0,0,.295-.331,7.331,7.331,0,0,1,1.008-1,2.224,2.224,0,0,0,.377-.342,2.361,2.361,0,0,1,.377-.353.4.4,0,0,0,.153-.118.365.365,0,0,1,.177-.118.149.149,0,0,0,.112-.088.141.141,0,0,1,.112-.088.258.258,0,0,0,.159-.088c.041-.047.094-.071.124-.059s.077-.023.112-.088.088-.106.124-.089.053.012.053-.018c0-.047.171-.147.324-.189a.341.341,0,0,0,.141-.129.153.153,0,0,1,.159-.083.177.177,0,0,0,.165-.053.288.288,0,0,1,.147-.089.065.065,0,0,0,.065-.065c0-.035.053-.053.118-.035a.191.191,0,0,0,.206-.094c.053-.071.094-.123.106-.112a.99.99,0,0,0,.424-.136,2.222,2.222,0,0,1,.342-.123c.088-.017.159-.059.159-.094s.024-.041.053-.018a.072.072,0,0,0,.094-.029.242.242,0,0,1,.171-.059.316.316,0,0,0,.212-.089.749.749,0,0,1,.33-.124.624.624,0,0,0,.295-.089.059.059,0,0,1,.082-.023c.029.018.147-.024.259-.088a.5.5,0,0,1,.295-.083.452.452,0,0,0,.277-.059.866.866,0,0,1,.295-.094.185.185,0,0,0,.141-.059.263.263,0,0,1,.194-.059q.433,0,.389-.07c-.018-.024.006-.047.047-.053s.159-.018.253-.03a3.719,3.719,0,0,1,.4-.041c.118-.006.218-.03.218-.059s.053-.03.118-.012.13.006.153-.047c.029-.082.4-.124,1-.118.13,0,.189-.006.13-.023-.189-.047-.047-.124.194-.1.13.012.236,0,.236-.03a3.287,3.287,0,0,1,1.019-.083c.153.006.218-.018.218-.082s.065-.082.324-.053a1.841,1.841,0,0,1,.377.065.066.066,0,0,0,.088-.024c.024-.029-.012-.07-.065-.082s.165-.03.495-.035c.377-.006.607-.029.619-.071s.171-.048.536-.012a1.85,1.85,0,0,0,.548.012c.012-.03-.088-.059-.224-.071s.029-.012.371,0a4.247,4.247,0,0,0,.86-.035,3.513,3.513,0,0,1,.713-.071c.265-.006.483-.035.483-.071a5.337,5.337,0,0,1,1.108-.023c.607.011.866.005.572-.012s1.273-.035,3.477-.035S111.094-2428.923,110.929-2428.905Z" transform="translate(0 2480)"/>
      <path id="Path_76" data-name="Path 76" class="cls-3" d="M1666.249-2025.82c-.159.065-.247.366-.247.825,0,.253-.053.872-.112,1.373s-.147,1.19-.183,1.532-.088.819-.118,1.061-.053.589-.059.766c0,.454-.094.748-.271.866-.13.082-.354.1-1.426.112a9.242,9.242,0,0,0-1.809.118,6.378,6.378,0,0,1-.843.113c-.165,0-.307.017-.307.041a.77.77,0,0,1-.277.136,2.371,2.371,0,0,0-1.609,1.3,2.079,2.079,0,0,0-.189,1.2,7.748,7.748,0,0,0,.03.9,2.189,2.189,0,0,1,.2.854c-.012.082-.012.135.006.118.047-.041.242.43.242.6a.508.508,0,0,0,.124.247c.1.106.188.13.465.13a7.769,7.769,0,0,1,1.013.117,7.881,7.881,0,0,0,1.025.118,5.732,5.732,0,0,1,.825.089,6.608,6.608,0,0,0,.748.088.537.537,0,0,1,.312.059c.017.029.077.035.124.018a3.231,3.231,0,0,1,.7.047c.478.065.56.088.419.124-.124.03-.094.036.094.012.33-.035.424.053.4.371a1.087,1.087,0,0,0,.024.313,2.936,2.936,0,0,1,.065.442c.018.195.053.578.089.854s.071.713.089.972.059.7.094.972.094.843.118,1.267c.065.978.106,1.22.224,1.308a54.541,54.541,0,0,0,6.04,0c.094-.065.112-.265.159-1.691.036-.89.083-1.715.118-1.827a2,2,0,0,0,.059-.418.541.541,0,0,1,.041-.253,3.873,3.873,0,0,0,.053-.76c.006-.719.082-1.179.212-1.255a.907.907,0,0,1,.336-.035c.206,0,.236-.006.124-.042s.018-.064.454-.118a3.219,3.219,0,0,1,.66-.041.065.065,0,0,0,.094-.024.543.543,0,0,1,.3-.059,7.587,7.587,0,0,0,.819-.088,6.454,6.454,0,0,1,.754-.088,11.176,11.176,0,0,0,1.426-.171c.194-.036.471-.071.619-.083l.265-.012v-5.469l-.295-.077a3.376,3.376,0,0,0-.43-.082c-.077,0-.124-.018-.112-.047a1.69,1.69,0,0,0-.536-.047,5.164,5.164,0,0,1-1.043-.112,3.39,3.39,0,0,0-.737-.106,7.777,7.777,0,0,1-1.1-.135,10.467,10.467,0,0,0-1.155-.142c-.442,0-.566-.141-.636-.719a6.828,6.828,0,0,1-.047-.843,3.566,3.566,0,0,0-.059-.707,5.856,5.856,0,0,1-.165-1.709c.012-.324.006-.513-.018-.412l-.047.177-.006-.177a1.679,1.679,0,0,0-.059-.371,6.288,6.288,0,0,1-.1-.825,2.144,2.144,0,0,0-.106-.672C1672.035-2025.861,1666.366-2025.867,1666.249-2025.82Z" transform="translate(-1561.053 2052.614)"/>
    </g>
  </g>
</svg>
