<svg xmlns="http://www.w3.org/2000/svg" viewBox="-6925.274 497 160.547 113.5">
  <defs>
    <style>
      .cls-1 {
        fill: #0067a3;
      }

      .cls-2 {
        fill: #fff;
      }
    </style>
  </defs>
  <g id="Group_254" data-name="Group 254" transform="translate(-7180)">
    <rect id="Rectangle_88" data-name="Rectangle 88" class="cls-1" width="152" height="88" transform="translate(259 507)"/>
    <g id="Housing_2_" transform="translate(254.726 497)">
      <path id="Path_77" data-name="Path 77" class="cls-2" d="M0-2423.25v56.75H160.548V-2480H0Zm82.832-39.514a8.359,8.359,0,0,1,1.172.3,7.184,7.184,0,0,1,.984.448,1.119,1.119,0,0,0,.192.105,1.23,1.23,0,0,1,.229.137,2.041,2.041,0,0,0,.22.169,2.277,2.277,0,0,1,.183.137c.014.014.1.078.183.142s.252.21.366.32.265.247.339.307.261.219.416.366.362.33.462.412.311.279.476.435.371.344.458.417.293.256.458.412.362.33.435.385.27.233.435.394.371.338.458.412c.16.133.627.554,1.35,1.218.206.188.627.567.938.846s.7.627.87.783.371.339.458.412.325.288.526.476.627.568.938.847.737.659.943.847.636.581.957.87.618.558.659.595l1.034.934c.531.476,1.085.984,1.236,1.121s.563.512.915.829c.659.59.911.814,1.35,1.217.137.128.787.714,1.442,1.3s1.3,1.172,1.442,1.3.549.5.915.829.7.636.76.686.247.224.43.389.462.412.613.549.3.27.325.3.215.188.412.366.412.371.481.435.275.247.458.412.421.38.522.48.233.215.284.252.233.192.394.343.362.33.444.394.284.252.453.412.38.352.467.426c.174.142.773.687,1.3,1.177.178.164.4.357.485.425s.293.256.458.412.371.339.458.412c.174.142.773.687,1.3,1.176.178.165.4.357.485.426.146.124.5.439,1.442,1.309.206.188.632.568.938.847s.732.659.938.846l1.007.916a15.44,15.44,0,0,1,1.643,1.6,9.632,9.632,0,0,1,.943,1.35,3.028,3.028,0,0,0,.151.265c.05.073.078.137.064.151a.765.765,0,0,0,.11.279,1.2,1.2,0,0,1,.133.334.136.136,0,0,0,.041.11.423.423,0,0,1,.073.174c.018.082.05.233.078.334a5.7,5.7,0,0,1,.128,1.739c-.027.014-.046.137-.046.274s-.018.261-.046.275a.285.285,0,0,0-.046.183c0,.087-.018.169-.046.183a.194.194,0,0,0-.046.137.193.193,0,0,1-.046.137.129.129,0,0,0-.046.1,4.186,4.186,0,0,1-.531,1.048,6.806,6.806,0,0,1-1.835,1.8,2.607,2.607,0,0,1-.311.192,1.238,1.238,0,0,0-.22.128,4.584,4.584,0,0,1-.764.384c-.064.027-.151.064-.192.087a.458.458,0,0,1-.169.041.144.144,0,0,0-.119.046.193.193,0,0,1-.137.046.181.181,0,0,0-.133.041.418.418,0,0,1-.2.064c-.1.014-.288.05-.426.078a7.472,7.472,0,0,1-3.066-.092c-.114-.027-.261-.064-.334-.078a.294.294,0,0,1-.151-.064.116.116,0,0,0-.092-.041.913.913,0,0,1-.256-.092,1.024,1.024,0,0,0-.252-.091.056.056,0,0,1-.059-.046c0-.027-.032-.046-.069-.046a.675.675,0,0,1-.3-.137,1.99,1.99,0,0,0-.238-.133.605.605,0,0,1-.22-.146c0-.019-.027-.041-.064-.051a13.85,13.85,0,0,1-1.538-1.29c-.165-.156-.339-.311-.394-.348s-.288-.243-.522-.458c-.682-.618-.924-.842-1.121-1-.1-.087-.307-.27-.462-.412s-.348-.321-.439-.394c-.192-.165-.81-.719-1.222-1.1-.169-.156-.384-.348-.485-.435-.233-.192-.805-.7-1.281-1.144-.206-.187-.609-.549-.892-.8s-.668-.591-.847-.755-.59-.535-.915-.824-.737-.659-.915-.824-.714-.65-1.19-1.075-1.908-1.716-3.176-2.861-2.558-2.307-2.86-2.581-.737-.668-.966-.874-.659-.6-.961-.87-.581-.526-.622-.567-.247-.229-.458-.417c-.348-.311-.773-.7-1.025-.938-.055-.051-.279-.257-.5-.458s-.481-.439-.572-.526-.32-.293-.5-.458-.453-.412-.6-.55-.3-.283-.352-.32-.265-.233-.481-.435-.458-.43-.549-.5c-.151-.133-.833-.76-1.519-1.4-.174-.165-.412-.38-.526-.48s-.339-.307-.5-.458-.412-.38-.549-.5-.444-.412-.686-.641-.517-.481-.618-.563-.357-.32-.572-.526c-.805-.764-1.259-1.007-1.689-.9a1.236,1.236,0,0,0-.526.238.349.349,0,0,1-.128.083.405.405,0,0,0-.146.1c-.055.059-.3.279-.535.494s-.563.513-.728.668-.357.329-.43.389-.229.2-.348.316-.384.362-.595.549-.435.394-.5.458-.307.279-.526.481-.549.5-.728.668-.416.38-.531.48-.238.211-.275.247c-.059.064-.462.43-2.014,1.83-.215.192-.966.874-1.675,1.515s-1.785,1.616-2.4,2.169-1.286,1.163-1.487,1.35-.636.581-.961.87-.746.668-.943.847-.613.558-.934.846-.737.659-.915.824-.581.522-.892.8-.751.677-.984.892c-.668.618-1.222,1.122-1.4,1.263-.087.069-.316.275-.5.449-.517.48-1.19,1.094-1.373,1.245-.087.073-.293.261-.458.417s-.357.329-.435.389-.293.251-.481.43-.416.389-.5.458-.224.192-.3.27-.316.293-.526.48-.5.448-.641.576-.288.261-.334.3-.206.183-.366.33-.362.334-.462.412-.275.238-.389.353-.389.362-.6.549-.531.476-.709.641-.426.389-.554.5-.339.307-.476.435-.4.366-.59.531-.366.325-.4.362a11.428,11.428,0,0,1-1.776,1.377,5.749,5.749,0,0,1-.924.457.4.4,0,0,0-.142.042,3.651,3.651,0,0,1-.865.274,9.44,9.44,0,0,1-3.24-.041c-.124-.027-.307-.064-.4-.078a.415.415,0,0,1-.2-.064.181.181,0,0,0-.133-.041A.192.192,0,0,1,43-2418.4a.16.16,0,0,0-.119-.046.458.458,0,0,1-.169-.041c-.041-.023-.261-.128-.49-.238s-.421-.21-.435-.224a.244.244,0,0,0-.092-.055,5.394,5.394,0,0,1-.947-.755,6.328,6.328,0,0,1-1.41-2.1c-.041-.1-.1-.219-.119-.261a.456.456,0,0,1-.041-.169.144.144,0,0,0-.046-.119.193.193,0,0,1-.046-.137.182.182,0,0,0-.041-.133.377.377,0,0,1-.069-.174c-.014-.083-.05-.284-.078-.448a6.471,6.471,0,0,1,.055-2.082.244.244,0,0,0,.041-.147.767.767,0,0,1,.05-.229c.027-.069.069-.169.087-.22a6.189,6.189,0,0,1,1.231-1.913c.366-.38,1.959-1.9,3.3-3.149,1.117-1.039,4.265-3.9,4.87-4.435.1-.087.339-.306.531-.48s.613-.558.938-.847.76-.682.966-.87.627-.572.934-.846.732-.659.938-.847c.947-.87,1.3-1.195,1.446-1.309.087-.073.3-.261.481-.426.581-.544,1.24-1.139,1.4-1.272.087-.069.288-.256.453-.407s.371-.338.458-.412.325-.284.531-.471c.49-.462,1.149-1.057,1.346-1.222.087-.073.3-.265.467-.426s.375-.343.453-.412.293-.256.471-.421.4-.362.485-.435.243-.215.343-.316.343-.315.531-.48.462-.412.613-.549.293-.274.325-.3.243-.224.481-.439.5-.453.59-.526.224-.2.3-.27.22-.21.32-.3.416-.375.7-.636.609-.549.709-.636.3-.265.435-.394.449-.408.686-.623l.709-.641c.847-.76,1.281-1.153,3.2-2.883,1.158-1.039,2.256-2.028,2.444-2.192s.485-.435.668-.6.554-.494.824-.732.627-.549.778-.686.476-.417.709-.618.549-.48.709-.618a4.7,4.7,0,0,1,.751-.6.423.423,0,0,0,.137-.105.192.192,0,0,1,.105-.073,1.046,1.046,0,0,0,.233-.128,3.89,3.89,0,0,1,.865-.421.19.19,0,0,0,.11-.041,6.62,6.62,0,0,1,1.506-.407A10.568,10.568,0,0,1,82.832-2462.765Zm-.458,19.231a18.332,18.332,0,0,1,2.728,2.485c.352.343.838.805,1.076,1.03s.732.7,1.1,1.048,1.076,1.021,1.579,1.487,1.13,1.053,1.4,1.3.815.755,1.213,1.121.915.837,1.144,1.053c1.03.957,4.751,4.338,6.746,6.128.293.261.645.582.783.709s.563.513.938.851.719.645.76.682.247.229.458.417.508.458.654.595.3.27.33.3.233.21.453.412.439.4.481.435c.279.247.879.8,1.1,1.007.146.137.3.279.348.316s.206.183.357.321.462.421.686.622.481.439.572.526.224.2.293.256c.092.073,1.387,1.3,1.6,1.51.261.266.915.993,1.007,1.117a3.97,3.97,0,0,1,.439.879.142.142,0,0,0,.046.105c.027.014.046.1.046.183a.285.285,0,0,0,.046.183c.027.014.046.105.046.2a1.3,1.3,0,0,0,.046.325c.059.215.069,21.936,0,22.05-.023.046-.073.156-.114.247a1.162,1.162,0,0,1-.7.576c-.252.078-.741.083-9.144.083s-8.892,0-9.139-.083a1.259,1.259,0,0,1-.865-.993c-.023-.087-.041-4.3-.041-9.359,0-5.524-.023-9.3-.05-9.451s-.05-.316-.06-.389a3.51,3.51,0,0,0-.494-1.195,3.364,3.364,0,0,0-1.112-.952c-.2-.1-.4-.2-.444-.215a.508.508,0,0,0-.192-.041.188.188,0,0,1-.137-.041.589.589,0,0,0-.243-.069l-.54-.083c-.2-.027-2.32-.055-5.469-.064-4.325-.018-5.272-.009-5.927.046-.426.041-.87.092-.984.115s-.265.059-.343.073a2.8,2.8,0,0,0-.732.3,2.584,2.584,0,0,0-1.231,1.172c-.1.2-.2.394-.215.435a.461.461,0,0,0-.041.169.148.148,0,0,1-.041.115c-.041.028-.059.137-.137.783-.073.6-.114,12-.055,15.258.055,3.172.05,3.236-.2,3.8a1.3,1.3,0,0,1-.943.632c-.169.032-2.97.05-8.787.05-7.5,0-8.572-.009-8.833-.073a1.526,1.526,0,0,1-.764-.389,1.894,1.894,0,0,1-.357-.769c-.041-.279-.023-18.471.027-20.457.037-1.583.06-1.945.137-2a.181.181,0,0,0,.041-.133.2.2,0,0,1,.046-.138.134.134,0,0,0,.046-.114,3.648,3.648,0,0,1,.86-1.313c.073-.055.357-.311.632-.572s.59-.559.7-.659.4-.366.641-.595.526-.5.641-.595.389-.357.618-.572.5-.476.618-.572.38-.344.595-.55.481-.453.595-.549.38-.348.595-.549.471-.444.572-.526.357-.32.572-.526.481-.453.595-.549.38-.348.595-.554.481-.453.59-.549.366-.33.572-.522.462-.426.577-.526.307-.284.435-.407.439-.417.686-.641.609-.558.8-.737.426-.4.526-.48.265-.238.371-.339.389-.371.641-.595l.773-.714c.174-.165.435-.4.572-.526s.284-.256.32-.293,1.551-1.433,3.364-3.089,3.931-3.606,4.714-4.32,1.574-1.446,1.767-1.625.65-.6,1.025-.943.865-.792,1.094-1.007c.545-.508.86-.677,1.272-.682A.954.954,0,0,1,82.374-2443.534Z" transform="translate(0 2480)"/>
    </g>
  </g>
</svg>
