<svg xmlns="http://www.w3.org/2000/svg" viewBox="-926 1046 17.067 17"><defs><style>.a{fill:#707070;}</style></defs><g transform="translate(-926 1045.413)"><path class="a" d="M260.716,22.563a.345.345,0,0,0-.4-.562l-.86.609a.344.344,0,1,0,.4.562Z" transform="translate(-244.422 -20.124)"/><path class="a" d="M240.4,2.241a.344.344,0,0,0,.444-.2l.371-.987a.345.345,0,0,0-.645-.242L240.2,1.8A.345.345,0,0,0,240.4,2.241Z" transform="translate(-226.382)"/><path class="a" d="M268.268,55.611h-.007l-1.054.009a.335.335,0,0,0-.337.34.347.347,0,0,0,.344.34h.007l1.054-.018a.341.341,0,0,0,.337-.347A.333.333,0,0,0,268.268,55.611Z" transform="translate(-251.546 -51.864)"/><path class="a" d="M14.6,9.986a1.436,1.436,0,0,0-.606-.279c.015-.026.028-.053.041-.081l.138-.138a1.47,1.47,0,0,0,.13-1.95,1.449,1.449,0,0,0-.851-.523c.024-.044.045-.089.064-.134a1.452,1.452,0,0,0-.9-2.262,1.455,1.455,0,0,0-2.236-1.794,1.431,1.431,0,0,0-.288-.641,1.451,1.451,0,0,0-1.144-.554h0a1.448,1.448,0,0,0-1.031.426L4.425,5.549l-.013-.466a1.45,1.45,0,0,0-2.9-.043l-.7,5.071-.573.666A1.016,1.016,0,0,0,.3,12.152L1.147,13a1.016,1.016,0,0,0,.127,1.277l4,3.994a1,1,0,0,0,.715.3,1.017,1.017,0,0,0,.616-.209l.835-.641a7.915,7.915,0,0,0,2.634-1.282,20.452,20.452,0,0,0,2.661-2.288l1.989-1.989A1.459,1.459,0,0,0,14.6,9.986ZM10.8,3.374a.77.77,0,0,1,1.147.068.784.784,0,0,1-.077,1.035l-.355.355a1.446,1.446,0,0,0-.158.12,1.43,1.43,0,0,0-.288-.641,1.451,1.451,0,0,0-.716-.49Zm-2.4-.831a.77.77,0,0,1,1.147.068.784.784,0,0,1-.077,1.035L5.4,7.676l-.013-.466A1.448,1.448,0,0,0,4.853,6.1ZM.782,11.664a.323.323,0,0,1-.017-.439l.705-.82h0L2.2,5.094a.761.761,0,0,1,1.521,0l.02.691A1.452,1.452,0,0,0,2.492,7.166l-.7,5.071-.2.236Zm13.455.008-1.989,1.989c-1.7,1.7-3.474,3.062-5.033,3.4a.329.329,0,0,0-.13.06l-.9.69a.322.322,0,0,1-.424-.028l-4-3.994a.322.322,0,0,1-.017-.439l.705-.82h0l.73-5.311a.761.761,0,1,1,1.521,0l.036,1.253a.353.353,0,0,0,.356.344.347.347,0,0,0,.247-.1L9.385,4.669a.77.77,0,0,1,1.147.068.784.784,0,0,1-.077,1.035L7.669,8.559a.37.37,0,0,0,0,.524h0a.375.375,0,0,0,.53,0L11.781,5.5a.77.77,0,0,1,1.147.068A.784.784,0,0,1,12.851,6.6L9.286,10.169a.375.375,0,0,0,0,.531.37.37,0,0,0,.523,0l2.8-2.8a.77.77,0,0,1,1.147.068A.784.784,0,0,1,13.683,9l-2.776,2.776a.384.384,0,0,0,0,.543l0,0a.355.355,0,0,0,.5,0L13.134,10.6a.809.809,0,0,1,.57-.237.746.746,0,0,1,.466.16A.77.77,0,0,1,14.237,11.673Z" transform="translate(0 -0.982)"/></g></svg>