<svg xmlns="http://www.w3.org/2000/svg" viewBox="-5179 2537 20 21.787">
  <defs>
    <style>
      .cls-1 {
        fill: #fff;
      }
    </style>
  </defs>
  <g id="Group_197" data-name="Group 197" transform="translate(-5179 2537)">
    <path id="Path_70" data-name="Path 70" class="cls-1" d="M363.231,23.9l1.237-.237a11.02,11.02,0,0,0-4.423-7.184l-.691,1.125A9.658,9.658,0,0,1,363.231,23.9Z" transform="translate(-344.469 -15.739)"/>
    <path id="Path_71" data-name="Path 71" class="cls-1" d="M9.111,17.6l-.691-1.125A11.02,11.02,0,0,0,4,23.662l1.237.237A9.658,9.658,0,0,1,9.111,17.6Z" transform="translate(-3.996 -15.739)"/>
    <path id="Path_72" data-name="Path 72" class="cls-1" d="M33.237,14.6l-1.257-1.346V9.857A7.685,7.685,0,0,0,26.64,2.382V2.02a1.889,1.889,0,1,0-3.77,0v.362a7.685,7.685,0,0,0-5.341,7.475v3.393L16.272,14.6v2.7H15.225v1.346h6.026a3.525,3.525,0,0,0,7.008,0h6.026V17.3H33.237Zm-15.708.558,1.257-1.346V9.857a6.3,6.3,0,0,1,4.831-6.279l.509-.105V2.02a.63.63,0,1,1,1.257,0V3.473l.509.105a6.3,6.3,0,0,1,4.831,6.279v3.951l1.257,1.346V17.3H17.529Zm7.226,5.286a2.338,2.338,0,0,1-2.216-1.8h4.432A2.338,2.338,0,0,1,24.755,20.441Z" transform="translate(-14.755)"/>
  </g>
</svg>
