<svg xmlns="http://www.w3.org/2000/svg" viewBox="-4821 2535 20 26.688">
  <defs>
    <style>
      .cls-1 {
        fill: #fff;
      }
    </style>
  </defs>
  <path id="power" class="cls-1" d="M44.155,9.472,42.145,7.99l.074-.1A1.021,1.021,0,0,0,42,6.462l-2.01-1.482.162-.22a1.021,1.021,0,0,0-.216-1.427L37.108,1.244a1.021,1.021,0,0,0-1.427.216l-.162.22L33.508.2a1.021,1.021,0,0,0-1.427.216l-2.43,3.3-.7-.376a1.021,1.021,0,0,0-1.421.5l-2.876,6.776a1.021,1.021,0,0,0,.1.975L30.018,19.3l-.837,6.221a1.021,1.021,0,0,0,.876,1.148,1.044,1.044,0,0,0,.137.009,1.021,1.021,0,0,0,1.01-.885l.889-6.61a1.02,1.02,0,0,0-.169-.712L26.748,10.9,28.97,5.662,34.7,8.724l-.723.981-2.01-1.482a1.021,1.021,0,0,0-1.211,1.643l2.832,2.088h0l2.831,2.087h0l2.832,2.087a1.016,1.016,0,0,0,1.091.075L40.2,17.346l-1.959,2.125a1.021,1.021,0,0,0-.269.747l.3,5.5a1.021,1.021,0,0,0,1.018.966h.056a1.021,1.021,0,0,0,.964-1.074l-.274-5.074,1.89-2.05a1.023,1.023,0,0,0,.263-.569l.587-4.853,1.6-2.166A1.021,1.021,0,0,0,44.155,9.472ZM33.119,2.448l1.188.876L32.786,5.387l-1.316-.7ZM34.6,6.36l2.113-2.867,1.188.876L35.921,7.064Zm2.522,2.508h0l.151-.205,1.5-2.04L39.97,7.5l-.07.095,0,.006L36.8,11.793l-1.188-.876Zm2.51,5.012L38.448,13l2.485-3.371,1.188.876L40.96,12.085h0Z" transform="translate(-4845.57 2535)"/>
</svg>
