<svg xmlns="http://www.w3.org/2000/svg" viewBox="-888 1296 16.6 16.6"><defs><style>.a{fill:#707070;}</style></defs><g transform="translate(-888 1296)"><path d="M225.744,181.208l-.139.149Z" transform="translate(-219.486 -176.293)"/><path class="a" d="M209.409,155.678a1.444,1.444,0,0,1,.323.939,1.408,1.408,0,0,1-.221.746,1.822,1.822,0,0,1-.32.392l-.442.437a3.422,3.422,0,0,0-.823,1.108,3.581,3.581,0,0,0-.188,1.274h.984a2.719,2.719,0,0,1,.158-1.053,3.106,3.106,0,0,1,.688-.871,7.529,7.529,0,0,0,.97-1.072,1.7,1.7,0,0,0,.241-.951,2.1,2.1,0,0,0-.655-1.589,2.739,2.739,0,0,0-3.6.1,2.709,2.709,0,0,0-.675,1.92h.984a2.664,2.664,0,0,1,.226-1.1,1.574,1.574,0,0,1,2.346-.287Z" transform="translate(-200.269 -150.23)"/><path class="a" d="M16.6,8.3a8.3,8.3,0,1,0-8.3,8.3A8.3,8.3,0,0,0,16.6,8.3ZM.755,8.3A7.545,7.545,0,1,1,8.3,15.845,7.545,7.545,0,0,1,.755,8.3Z"/><rect class="a" width="1.1" height="1.149" transform="translate(7.446 11.262)"/></g></svg>