<svg xmlns="http://www.w3.org/2000/svg" viewBox="-5619 2073 15 16.597">
  <defs>
    <style>
      .cls-1 {
        fill: #707070;
      }
    </style>
  </defs>
  <path id="Path_47" data-name="Path 47" class="cls-1" d="M37.771,11.732a2.417,2.417,0,0,0-1.631.64L30.2,8.916a2.662,2.662,0,0,0,.076-.584,2.71,2.71,0,0,0-.076-.584l5.876-3.424a2.493,2.493,0,1,0-.8-1.826,2.688,2.688,0,0,0,.076.584L29.472,6.509a2.5,2.5,0,1,0,0,3.648L35.4,13.621a2.431,2.431,0,1,0,2.367-1.889Z" transform="translate(-5644.272 2073)"/>
</svg>
