<svg xmlns="http://www.w3.org/2000/svg" viewBox="-5444 1644 28.784 16.6">
  <defs>
    <style>
      .cls-1 {
        fill: #707070;
      }
    </style>
  </defs>
  <g id="visible-opened-eye-interface-option" transform="translate(-5444 1623.157)">
    <path id="Path_50" data-name="Path 50" class="cls-1" d="M28.411,28.134c-.253-.3-6.295-7.291-14.019-7.291S.627,27.836.373,28.134a1.551,1.551,0,0,0,0,2.018c.253.3,6.295,7.291,14.019,7.291s13.766-6.993,14.019-7.291A1.551,1.551,0,0,0,28.411,28.134Zm-11.66-3.09a1.467,1.467,0,0,1,1.354,2.48,1.279,1.279,0,0,1-1.618-.726A1.278,1.278,0,0,1,16.752,25.044Zm-2.359,9.866c-5.4,0-9.936-4.144-11.508-5.766a21.6,21.6,0,0,1,6.6-4.683,5.876,5.876,0,1,0,9.824,0,21.6,21.6,0,0,1,6.6,4.683C24.329,30.767,19.788,34.909,14.393,34.909Z" transform="translate(0)"/>
  </g>
</svg>
