<svg xmlns="http://www.w3.org/2000/svg" xmlns:xlink="http://www.w3.org/1999/xlink" viewBox="-6303.789 2108.026 298 51.902">
  <defs>
    <style>
      .cls-1 {
        fill: #fff;
        fill-rule: evenodd;
      }

      .cls-2 {
        filter: url(#path3);
      }
    </style>
    <filter id="path3" x="-6303.789" y="2108.026" width="298" height="51.902" filterUnits="userSpaceOnUse">
      <feOffset dy="3" input="SourceAlpha"/>
      <feGaussianBlur stdDeviation="3" result="blur"/>
      <feFlood flood-opacity="0.161"/>
      <feComposite operator="in" in2="blur"/>
      <feComposite in="SourceGraphic"/>
    </filter>
  </defs>
  <g class="cls-2" transform="matrix(1, 0, 0, 1, 0, 0)">
    <path id="path3-2" data-name="path3" class="cls-1" d="M18.905,170.383c-.538.473-.536.614.021,1.139.542.51.742.525,1.269.091.872-.719.868-.691.175-1.212-.651-.491-.922-.494-1.465-.018m18.585-.1c-.67.585-.678.654-.139,1.183.61.6.8.6,1.45,0,.63-.577.63-.579-.016-1.066-.616-.465-.874-.489-1.3-.121m-22.042,2.513c0,.067-.082.121-.182.121s-.182.051-.182.113-.1.144-.212.18c-.713.227-.593,1.026.3,2l.512.557.195-.278a5.062,5.062,0,0,1,.472-.554c.674-.674.7-1.071.117-1.752-.408-.476-1.02-.707-1.02-.385m17.939.2c-.3.378-.3.44-.079.872.366.708.946.747,1.706.113.067-.055.216-.167.331-.249.256-.18.179-.3-.48-.724s-1.148-.433-1.479-.012m7.594.168c-.656.685-.558,1.02.556,1.905.216.172.564.2.564.051,0-.055.144-.177.321-.272a3.448,3.448,0,0,0,1.133-1.029,2.131,2.131,0,0,0-.6-.536,2.622,2.622,0,0,1-.6-.515c-.02-.317-.941-.05-1.368.4m-3.763.985c-1.217.681-1.363,1.226-.6,2.24.648.861.727.895,1.053.46.128-.171.359-.457.513-.636a1.127,1.127,0,0,0,0-1.489c-.589-.614-.741-.7-.97-.575m-7.368.86a1.642,1.642,0,0,1-.217.333.8.8,0,0,0-.074,1.242c.387.44.926.454,1.153.03.089-.166.207-.3.262-.3.129,0,.133-.572.005-.626a2.694,2.694,0,0,1-.438-.5c-.4-.528-.5-.553-.691-.182m3.276.795c-.9.971-.9,1.977.007,2.264.805.255,1.751-1.16,1.092-1.636-.133-.1-.242-.217-.242-.269a.532.532,0,0,0-.857-.36m-21.336.512a1.885,1.885,0,0,0-.273,2.6,2.319,2.319,0,0,0,2.3.134,1.7,1.7,0,0,0-2.027-2.732m31.986.017c-.509.3-.581.48-.583,1.5,0,.866.268,1.207,1.242,1.569l.578.215.512-.535a2.046,2.046,0,0,0,.736-2.268c-.174-.649-1.691-.943-2.485-.482m-3.735.334c0,.063-.1.144-.212.181-.526.167-1.158.873-1.076,1.2a1.414,1.414,0,0,0,2.136.928,1.143,1.143,0,0,1,.45-.239c.52-.009.493-.9-.042-1.37-.242-.214-.542-.486-.667-.6-.242-.227-.59-.286-.59-.1m-4,.606a.533.533,0,0,1-.156.273c-1.066,1.094-1.05,1.58.079,2.493.225.181.561.2.561.03a.124.124,0,0,1,.126-.121c.639,0,.918-1.165.418-1.745a1.627,1.627,0,0,1-.3-.436,1.056,1.056,0,0,0-.226-.345c-.233-.268-.5-.347-.5-.148m-7.977.7c-.425.484-.478,1.037-.122,1.265.567.363.712.361,1.082-.009.438-.438.441-.583.021-1.136-.4-.526-.6-.55-.981-.12m2.586.355c-1.126,1.126.053,2.222,1.245,1.158.377-.337.523-.751.263-.751a1.085,1.085,0,0,1-.43-.3.739.739,0,0,0-1.079-.1m2.367,1.027c-.631.63-.429,1.563.337,1.559.911-.005,1.1-1,.32-1.675l-.289-.252-.368.369m68.509-.2a6.746,6.746,0,0,0-3.642,2.126,5.339,5.339,0,0,0-.769,1.181,9.008,9.008,0,0,0-.627,2.757,13.336,13.336,0,0,1-.179,1.388c-.28.767.531,4.575,1.156,5.429,2.932,4.007,9.9,3.72,11.973-.493,1.175-2.387,1.143-7.292-.062-9.5-1.237-2.267-4.674-3.531-7.85-2.888m35.56.007a7.88,7.88,0,0,0-2.608.926,3.977,3.977,0,0,0-.48,5.858,3.452,3.452,0,0,0,1.535,1.074c.287.1.931.353,1.431.565s1.2.488,1.553.612c2.24.785,3.052,1.567,2.638,2.544a2.764,2.764,0,0,1-1.852,1.323.148.148,0,0,0-.159.132c0,.087-.254.11-.757.068-.417-.035-1.521-.118-2.453-.187s-1.816-.153-1.962-.19a.645.645,0,0,0-.587.231l-.321.3.363.768c.477,1.01.468,1,2.083,1.249,2.169.329,5.329.307,6.1-.043a3.5,3.5,0,0,1,.735-.267,7.433,7.433,0,0,0,1.475-1.358,2.758,2.758,0,0,0,.287-.65,6.347,6.347,0,0,1,.258-.686,6.154,6.154,0,0,0,.007-2.219,2.722,2.722,0,0,1-.26-.624,1.127,1.127,0,0,0-.324-.571.285.285,0,0,1-.164-.249c0-.1-.041-.186-.091-.186a1.863,1.863,0,0,1-.486-.333,5.107,5.107,0,0,0-1.09-.622c-.382-.159-.965-.418-1.295-.575a3.529,3.529,0,0,0-.735-.286,2.735,2.735,0,0,1-.637-.243,2.818,2.818,0,0,0-.626-.242,5.689,5.689,0,0,1-1.616-.916,2,2,0,0,0-.267-.335,3.549,3.549,0,0,1-.408-.591l-.235-.419.483-.414a5.28,5.28,0,0,1,1.335-.857,7.057,7.057,0,0,1,2.415.007,9.419,9.419,0,0,0,1.958.151l1.918.043-.07-.333c-.038-.184-.1-.5-.145-.7s-.121-.363-.178-.363-.15-.177-.206-.393c-.229-.885-3.923-1.447-6.569-1m15.052.013a6.475,6.475,0,0,0-2.163.938c-.084.076-.337.272-.563.435a5.354,5.354,0,0,0-.885.934,3.015,3.015,0,0,1-.566.643c-.049,0-.091.08-.091.171a3.2,3.2,0,0,1-.252.737c-.818,1.85-.395,7.859.641,9.1a9.68,9.68,0,0,0,1.656,1.547c.174.088.427.22.56.293a8.913,8.913,0,0,0,6.513.411,3.546,3.546,0,0,1,.621-.256,7.147,7.147,0,0,0,2.134-1.794.756.756,0,0,1,.242-.326.712.712,0,0,0,.242-.388,1.707,1.707,0,0,1,.193-.541c.474-.917.7-5.4.362-7.189a5.194,5.194,0,0,0-1.947-3.322c-.267-.2-.539-.414-.606-.467-1.119-.893-4.126-1.348-6.09-.922m128.7-.024a6.671,6.671,0,0,0-2.591.931,1.024,1.024,0,0,1-.318.23c-.867,0-1.585,3.132-1.029,4.487.294.714,1.56,2.055,1.942,2.055a6.007,6.007,0,0,1,.925.363,6.057,6.057,0,0,0,.921.363,28.465,28.465,0,0,1,3.239,1.391c1.676.862,1.03,2.776-1.06,3.143-.217.038-.562.1-.768.145a1.184,1.184,0,0,1-.636-.051,12.018,12.018,0,0,0-4.45-.018l-.286.249.41.784c.534,1.02.457.976,2.067,1.189,3.1.411,5.4.357,6.54-.154a4.446,4.446,0,0,0,2.139-5.587,4.712,4.712,0,0,0-1.718-1.779c-.265-.129-.59-.3-.723-.37s-.624-.281-1.09-.459c-2.727-1.045-3.927-1.683-3.94-2.092a1.36,1.36,0,0,0-.24-.388c-.276-.353-.3-.568-.091-.766.661-.622,1.113-.93,1.367-.93.164,0,.3-.055.3-.121s.5-.121,1.272-.121,1.272.048,1.272.121a3.312,3.312,0,0,0,1.333.121,3.975,3.975,0,0,0,1.333-.113c0-.062.106-.147.236-.188.448-.142.4-1.5-.068-1.844-.781-.571-4.333-.9-6.287-.59m-115.493.077c-.217.067-.394.2-.394.3s-.046.178-.1.178c-.375,0-.432,1.015-.438,7.78l-.006,6.779.3.246a3.15,3.15,0,0,0,2.15.017l.273-.068v-5.207c0-5.262.028-5.58.416-4.876a1.815,1.815,0,0,0,.193.3,2.1,2.1,0,0,1,.213.363c.083.166.257.466.388.666s.347.564.482.81a2.113,2.113,0,0,0,.353.514,3.308,3.308,0,0,1,.438.7,6.327,6.327,0,0,0,1,1.606.681.681,0,0,1,.151.367c0,.1.041.187.092.187s.17.177.266.394a2.73,2.73,0,0,0,.393.629.8.8,0,0,1,.219.412,1.487,1.487,0,0,0,.3.575,1.624,1.624,0,0,1,.3.526.118.118,0,0,0,.1.129c.055,0,.1.078.1.174a2.224,2.224,0,0,0,.414.715c1.14,1.49,3.724,1.817,4.56.576l.276-.41v-6.653c0-4.5-.044-6.827-.135-7.191l-.136-.538h-2.637v10.946l-.315-.294a3.35,3.35,0,0,1-.561-.779,3.2,3.2,0,0,0-.323-.545,4.177,4.177,0,0,1-.366-.636,1.569,1.569,0,0,0-.393-.576c-.056,0-.1-.105-.1-.235a.4.4,0,0,0-.123-.311,2.021,2.021,0,0,1-.363-.522c-.132-.246-.377-.664-.543-.931s-.37-.621-.452-.787c-.132-.268-.859-1.48-1.277-2.127-.084-.129-.274-.481-.424-.781a4.515,4.515,0,0,0-.483-.779,1.59,1.59,0,0,1-.289-.485c-.286-.91-2.243-1.55-3.529-1.153m40.8-.018c-2.592.2-2.895,1-2.893,7.634,0,7.816-.009,7.8,5.619,7.863,4.791.052,5.028,0,5.028-1.145,0-.827-.5-1.255-1.447-1.255a2.357,2.357,0,0,1-.772-.079c-.128-.127-.811-.146-.811-.022a14.356,14.356,0,0,1-3.332-.071c-.2-.047-.486-.11-.634-.141-.506-.1-.663-.659-.619-2.2.057-1.974-.188-1.852,3.719-1.857,3.719-.005,3.712,0,3.712-1.219,0-1.135.024-1.127-3.782-1.2-3.832-.073-3.577.044-3.616-1.66-.028-1.227.159-1.975.5-1.975a.235.235,0,0,0,.208-.151c.038-.115.842-.16,3.341-.188,3.2-.035,3.294-.043,3.426-.29a1.516,1.516,0,0,0-.4-1.619l-.4-.392-2.908-.059c-1.6-.032-3.372-.023-3.938.022M65.022,179.5c-.479.511-.3,1.919.267,2.07a17.1,17.1,0,0,0,1.924.071,7.634,7.634,0,0,1,1.666.094c0,.051.122.146.273.212l.273.119.031,5.986.031,5.985.361.345c.39.373.613.4,1.916.268l.741-.078.034-5.89c.042-7.1-.033-6.8,1.713-6.8a2.316,2.316,0,0,0,.872-.108,2.852,2.852,0,0,1,.935-.157c1.066-.064,1.236-.227,1.236-1.18,0-1.311.464-1.22-6.233-1.22H65.286l-.264.28m15.357.033-.294.313-.033,7.027-.033,7.027.415.414a1.865,1.865,0,0,0,1.955.294c.722-.275.713-.232.68-3.588l-.031-3.075h2.825c4.337,0,4.019-.281,4.1,3.622l.06,2.98,1.212.036a10.1,10.1,0,0,0,1.485-.033l.273-.068-.031-7.6-.031-7.6-1.474-.034-1.474-.033-.041,2.719-.041,2.72-.363.313-.363.313H83.423l-.2-.38c-.163-.315-.193-.747-.171-2.514.033-2.7.043-2.585-.249-2.9a2.441,2.441,0,0,0-2.428.048m33.95-.087c-.623.622-.633.767-.6,8.154.019,3.776.068,6.9.108,6.939a3.567,3.567,0,0,0,2.29-.049l.3-.266.061-4.342c.033-2.388.1-4.376.137-4.418a26.3,26.3,0,0,1,2.649,5.109.144.144,0,0,0,.121.158.126.126,0,0,1,.121.129,2.462,2.462,0,0,0,2.043,2.052c.952,0,1.405-.538,2.35-2.786.674-1.6,2.323-5.089,2.409-5.089.057,0,.1,2.155.1,4.789v4.79l1.424-.034,1.423-.034.031-6.841c.02-4.317.076-6.884.151-6.96.18-.18.145-.526-.09-.893-.72-1.125-3.429-.833-3.739.4-.041.164-.114.3-.164.3s-.158.232-.242.515a2.008,2.008,0,0,1-.238.576,3.413,3.413,0,0,0-.5,1.079.128.128,0,0,1-.121.133.131.131,0,0,0-.121.138c0,.157-2.027,4.222-2.193,4.4a.468.468,0,0,0-.108.278,1.14,1.14,0,0,1-.3.489c-.279.3-.3.307-.3.079a.594.594,0,0,0-.115-.362c-.111-.112-1.7-3.255-2.378-4.719a4.911,4.911,0,0,0-.5-.887.536.536,0,0,1-.159-.288,4.576,4.576,0,0,0-.363-.843,4.173,4.173,0,0,1-.363-.869c0-.842-2.467-1.491-3.134-.824m73.731.113-.326.34v14.586h2.908v-2.272c0-3.368.118-3.579,1.865-3.334,1.133.159,1.658.414,1.943.942.125.233.267.423.315.423s.156.164.238.363.19.363.238.363.158.218.246.485.2.485.257.485.192.2.309.454a2.983,2.983,0,0,0,.361.606,1.179,1.179,0,0,1,.225.394c.042.132.127.241.19.241s.113.077.113.172c0,.712,1.733,1.139,2.947.725.666-.227.657-.186.211-.957-.193-.334-.448-.8-.566-1.03a2.587,2.587,0,0,0-.294-.485,12.436,12.436,0,0,1-.651-1.119,7.836,7.836,0,0,0-.686-1.128.322.322,0,0,1-.112-.252,1.453,1.453,0,0,0-.3-.571c-.314-.412-.294-.526.148-.827a5.48,5.48,0,0,0,2.341-3.257c.145-.739-.041-2.781-.254-2.781-.045,0-.153-.215-.239-.478a4.311,4.311,0,0,0-2.649-2.155c-.755-.265-.946-.275-4.621-.275h-3.834l-.325.339m29.284,1.686c-.259,5.27.027,10.575.569,10.575.06,0,.11.071.11.159a.88.88,0,0,0,.243.419.984.984,0,0,1,.242.357c0,.273.963.97,2.181,1.577l.909.453,2-.009c1.887-.008,2.046-.027,2.847-.343.466-.184,1-.39,1.181-.459s.333-.172.333-.231.068-.108.151-.109c.232,0,.986-.733,1.249-1.209a3.728,3.728,0,0,1,.3-.484,4.109,4.109,0,0,0,.358-1.316c0-.142.054-.259.121-.259a45.62,45.62,0,0,0,.121-5.329c0-6.344.137-5.817-1.519-5.817-1.635,0-1.481-.551-1.541,5.512-.052,5.1-.092,5.653-.451,6a2.866,2.866,0,0,0-.249.424,2.108,2.108,0,0,1-1.54.9c-.217.005-.394.064-.394.131s-.341.121-.78.121a1.871,1.871,0,0,1-.856-.121.477.477,0,0,0-.355-.121,2.706,2.706,0,0,1-2.075-1.673c-.052-.18-.126-2.752-.164-5.717l-.07-5.392-1.411-.034-1.41-.034-.1,2.033M232.562,180c-.284,1.506-.1,1.634,2.389,1.634,1.333,0,1.552.03,1.863.251l.352.25V194.03l.379.363c.378.361.385.363,1.414.284,1.521-.116,1.381.542,1.35-6.368-.027-5.955,0-6.428.322-6.428.093,0,.169-.055.169-.121a5.4,5.4,0,0,1,1.748-.121c2.713,0,3.3-.63,1.943-2.09l-.309-.333H232.711l-.149.789m16.124-.48c-1.346.769-1.342.749-1.342,7.384,0,8.126-.283,7.754,5.9,7.754,4.872,0,4.882-.005,4.458-1.969l-.084-.393h-2.592a16.9,16.9,0,0,1-2.591-.1c0-.055-.31-.113-.688-.129-1.439-.058-1.78-.919-1.416-3.571l.077-.562h6.641l.3-.3c.242-.242.3-.418.3-.939,0-1.173-.048-1.187-3.617-1.187-3.886,0-3.767.055-3.77-1.718,0-1.267.116-1.756.451-1.88a.71.71,0,0,0,.3-.209,17.823,17.823,0,0,1,3.345-.166l3.259-.036.138-.3a1.67,1.67,0,0,0-.4-1.9c-.07-.049-1.927-.089-4.126-.089h-4l-.536.306m13.147.063-.313.373,0,6.987c0,6.438.02,7.008.212,7.246a1.839,1.839,0,0,0,2.515.125l.4-.4-.023-2.431-.022-2.43.811-.134c1.586-.262,2.179-.073,2.879.914a7.312,7.312,0,0,0,.5.649,2.88,2.88,0,0,1,.3.575,1.394,1.394,0,0,0,.3.515,1.3,1.3,0,0,1,.3.484,1.275,1.275,0,0,0,.3.485,1.356,1.356,0,0,1,.3.5,2.5,2.5,0,0,0,3.3,1.54c.853-.215.853-.219-.273-2.147-.326-.558-.783-1.362-1.016-1.786a8.47,8.47,0,0,0-.636-1.017.9.9,0,0,1-.212-.351,1.732,1.732,0,0,0-.182-.453c-.166-.313-.164-.359.013-.468,2.381-1.47,3.348-4.557,2.086-6.664-.119-.2-.27-.483-.335-.63a5.053,5.053,0,0,0-2.266-1.6c-.723-.238-1.039-.254-4.7-.254h-3.924l-.314.372M41.089,180.4c-.822.84-.819.787-.087,1.575.709.763,1.263.861,1.876.333a1.532,1.532,0,0,1,.446-.3c.505,0,.623-1.023.161-1.394-.166-.133-.463-.392-.659-.575-.569-.531-.938-.454-1.737.364M10,180.521a1.677,1.677,0,0,0-.545.457,2.531,2.531,0,0,1-.278.392,2.151,2.151,0,0,0,.1,1.8c.658,1.064,2.765,1.007,3.177-.086.074-.2.177-.358.23-.358.184,0,.092-.924-.137-1.372A1.869,1.869,0,0,0,10,180.521m35.64.042a1.849,1.849,0,0,0,.01,3.227,2.234,2.234,0,0,0,2.481-.526,1.88,1.88,0,0,0-2.491-2.7m-7.679.2c-.539.226-.948,1.474-.485,1.479a1.435,1.435,0,0,1,.369.425c.158.233.349.423.423.423a3.306,3.306,0,0,0,1.163-1.4c.007-.519-.972-1.135-1.471-.925m-23.3.43c-.4.518-.39.583.084.978a.908.908,0,0,0,1.214.071c.082-.069.3-.238.483-.375.443-.331.425-.4-.2-.765-.752-.441-1.191-.416-1.577.091m89.69.568c.023.065.142.117.267.117a2.168,2.168,0,0,1,1.139.514.912.912,0,0,0,.314.213c.449,0,1.053,2.02,1.159,3.878.193,3.355-1.044,5.56-3.124,5.571a.564.564,0,0,0-.4.123.8.8,0,0,1-.848,0,.625.625,0,0,0-.433-.121,3.684,3.684,0,0,1-1.573-.64c-1.8-1.412-1.878-7.408-.115-8.9a3.324,3.324,0,0,1,1.328-.634c.136,0,.247-.051.247-.113,0-.254,1.952-.257,2.039,0m50.644,0c.022.063.169.113.327.113.757,0,1.732.848,2.267,1.971a12.419,12.419,0,0,1,0,6.134,3.115,3.115,0,0,1-2.629,2.072.755.755,0,0,0-.493.121.6.6,0,0,1-.727,0,.742.742,0,0,0-.486-.121,3.18,3.18,0,0,1-2.653-2.037,13.763,13.763,0,0,1-.076-5.977,2.906,2.906,0,0,0,.248-.641,3.567,3.567,0,0,1,.925-1.037,2.353,2.353,0,0,1,1.141-.485c.13,0,.236-.051.236-.113,0-.252,1.829-.252,1.918,0m39.614-.02c.025.073.186.134.359.134.732,0,1.724.611,1.725,1.061a.139.139,0,0,0,.121.151c.2,0,.145,1.731-.071,2.163-.467.938-.795,1.043-3.373,1.085l-2.312.037-.212-.359c-.5-.84-.262-4.138.311-4.388a11.624,11.624,0,0,1,3.451.116m70.72.013a4.257,4.257,0,0,0,1.37.123c3.2.005,4.082.4,4.082,1.8,0,2.061-1.125,2.826-4.136,2.811-2.283-.011-2.224.119-1.8-3.977.086-.832.262-1.109.48-.757M42.4,183.712a1.256,1.256,0,0,0,.386,2.359c.366.073,1.251-.23,1.251-.428,0-.049.137-.15.3-.226.381-.174.427-1.234.053-1.234a2.187,2.187,0,0,1-.55-.3,1.46,1.46,0,0,0-1.444-.168m-3.373.526a.84.84,0,0,0,.5,1.521c.992,0,1.624-1.4.755-1.667-.686-.214-.893-.19-1.256.146m-24.926-.076c-.967.414-1.066,1.3-.227,2.006.479.4.621.4,1.267-.046a3.372,3.372,0,0,1,.606-.363c.118,0,.424-.332.424-.462a3.018,3.018,0,0,0-.68-.675c-.651-.536-.969-.641-1.39-.461m-4.351.828a1.985,1.985,0,0,0,.574,3.917,1.961,1.961,0,0,0,.878-3.723,1.958,1.958,0,0,0-1.452-.193m36.6.109a2.011,2.011,0,0,0-1.176,2.149c.467,2.49,4.253,2.036,4.044-.484a2.034,2.034,0,0,0-2.868-1.665m-3.678,2.425c-.183.1-.333.221-.333.269a1.479,1.479,0,0,1-.313.426l-.313.337.338.449c.7.925,1.084.976,2.041.27.837-.619.974-1.093.315-1.093a.126.126,0,0,1-.13-.121c0-.066-.081-.121-.182-.121a.172.172,0,0,1-.182-.158c0-.337-.792-.5-1.242-.258m-29.281.5c-.358.435-.512,1.123-.251,1.123.067,0,.121.1.121.22,0,.813,1.371,1.211,2.112.614,1.074-.867,1.236-1.117.809-1.253a2.089,2.089,0,0,1-.582-.41,2.424,2.424,0,0,0-.559-.417c-.113-.044-.206-.135-.206-.2,0-.366-1.074-.123-1.445.326m4.141.32a.927.927,0,0,0-.061,1.446c.414.546.64.559.936.055a3.685,3.685,0,0,1,.39-.554c.26-.263.184-.511-.289-.944-.544-.5-.494-.5-.976,0m-7.59,1.764c-.861.568-1.268,1.826-.756,2.339a1.2,1.2,0,0,1,.244.4c.286.861,2.978.788,2.982-.081a.53.53,0,0,1,.182-.348c.29-.241.231-1.138-.111-1.68a1.954,1.954,0,0,0-2.541-.631m35.587.017a1.9,1.9,0,0,0-.027,3.122,1.863,1.863,0,1,0,.027-3.122m-30.792,1.09c-.632.253-1.05,1.731-.538,1.9a.224.224,0,0,1,.152.192c0,.25.819.808,1.188.808a2.132,2.132,0,0,0,1.716-1.545c0-.288-.054-.515-.126-.515a.58.58,0,0,1-.3-.151,2.694,2.694,0,0,0-.967-.63,1.213,1.213,0,0,0-1.126-.06m4,.07a2.023,2.023,0,0,0-.47.564l-.313.5.438.4c.58.532.984.526,1.6-.023a2.5,2.5,0,0,1,.567-.424c.261,0,.028-.362-.423-.658a1.779,1.779,0,0,0-1.4-.356m22.984.318c-.632.548-.657.76-.162,1.365.409.5.779.7.779.43a1.485,1.485,0,0,1,.363-.475c.835-.836-.1-2.089-.981-1.321m-18.142,1.583a.906.906,0,0,0,.594,1.415,3.823,3.823,0,0,0,1.082-.967c0-.487-1.31-.837-1.676-.449m-2.626.242c-1.076,1.181-1.117,1.392-.419,2.118.556.579.67.6,1.24.267.772-.455.813-.733.265-1.764-.51-.956-.687-1.057-1.085-.621m4.937.682a.951.951,0,0,0,.626,1.582c.283,0,1.161-.664,1.161-.877a1.472,1.472,0,0,0-.554-.576.671.671,0,0,1-.251-.182.718.718,0,0,0-.982.054m2.665.441c-.946.747.044,1.738,1.063,1.064.6-.395.6-.4-.033-.938-.612-.521-.54-.513-1.03-.126M12,194.664a1.639,1.639,0,0,0-.636.381c-.294.4-.111,1.981.23,1.981.056,0,.1.068.1.151,0,.313.729.939,1.093.939.506,0,1.572-1.5,1.572-2.211,0-1.1-1.117-1.684-2.361-1.241m32.119-.057c-1.519.455-1.3,2.55.342,3.276l.6.265.293-.349.512-.611c1.207-1.438.068-3.124-1.745-2.581m-26.972.079a3.644,3.644,0,0,0-1.088,1.215,2.968,2.968,0,0,0,1.332,1.246c.3,0,1.089-.346,1.089-.479,0-.048.137-.15.3-.225,1.018-.464-.544-2.142-1.636-1.756m6.223,1.561c-1,1.056.256,1.925,1.6,1.112.793-.48.795-.521.047-1.09-.763-.581-1.115-.585-1.647-.022m3.618.739a.969.969,0,0,0-.087,1.567c.166.108.3.273.3.365,0,.36.43.015.818-.657a.862.862,0,0,0-1.032-1.274m-7.621.72c-.982,1.011.452,2.62,1.5,1.681l.671-.6c.31-.278.353-.669.075-.669a.962.962,0,0,1-.381-.257c-.705-.676-1.308-.726-1.864-.154m-3.92,1.1c-1.121.774-1.233,1.17-.534,1.889.61.627.947.709,1.357.327a1.016,1.016,0,0,1,.356-.245,1.154,1.154,0,0,0,.381-.3,1.063,1.063,0,0,1,.394-.3c.06,0,.108-.082.108-.182s-.052-.182-.117-.182a1.414,1.414,0,0,1-.474-.333c-1.09-1.016-1.02-.984-1.472-.672m25.633.327c-.725.705-.643,1.424.2,1.8.185.082.337.19.337.241s.109.092.242.092.242-.051.242-.113.11-.148.245-.191a2.365,2.365,0,0,0,.632-.432,1.789,1.789,0,0,1,.483-.355c.218,0,.061-.326-.3-.629-1.386-1.154-1.331-1.143-2.083-.412m-18.514.659-.7.465.315.231c.174.127.461.354.639.5.427.359.725.343,1.2-.065.5-.427.5-.612-.036-1.159s-.563-.547-1.421.023m15,2.093c-.753.9-.774,1.167-.133,1.71.778.657,1.909-.47,1.278-1.272a1.38,1.38,0,0,1-.243-.389c0-.123-.331-.427-.465-.427a1.216,1.216,0,0,0-.437.378m-18.634.414c-.432.4-.594.783-.333.783.067,0,.121.076.121.17s.193.284.428.422l.429.253.507-.321c.963-.608.978-.709.19-1.343-.614-.494-.778-.489-1.343.035" transform="translate(-6303 1944)"/>
  </g>
</svg>
