<svg version="1" xmlns="http://www.w3.org/2000/svg" width="2542.667" height="2542.667" viewBox="0 0 1907.000000 1907.000000"><path d="M1036.7 2c-3.1 1.7-3.6 2.4-2.7 3.5.9 1.1 1.6 1.1 4.3-.5 3.9-2.3 10.9-1.6 12.8 1.2.3.5 1.1.2 1.8-.6 1-1.2.8-1.7-1.1-3-4.1-2.7-10.8-2.9-15.1-.6zM975 3.4c-18.4 5.4-27.4 16.6-30.5 38.2-1.3 8.5-.1 69.8 1.5 75.4 3.4 12.3 12.7 22.4 25.3 27.2 12.6 4.9 31 .8 40.8-9.1 6-6.1 10.3-15.8 11.7-26.5 1-7.7.3-68.3-.8-74.5-3.1-17.1-18.5-30.4-36.2-31.6-4.5-.3-9 .1-11.8.9zm22.5 11c12.3 5.7 16.6 16 17 40.8l.2 12.8h-61l.5-15.8c.5-13.4.9-16.7 3-22.2 1.3-3.6 3.5-7.8 4.8-9.3 7.8-9 23.5-11.8 35.5-6.3z"/><path d="M979.7 25.8c-5.5 6.4-3.9 12.9 3.5 13.8 2.4.4 4.1-.1 6.1-1.6 3.2-2.5 3.4-5.2.9-10-1.6-2.8-2.5-3.5-5.5-3.6-2.3-.2-4.1.4-5 1.4zM991.9 44.9c-1.4 1.1-2.3 3.3-2.6 6.3-.5 3.9-.2 4.7 1.8 6.2 2.9 2 5.2 2 9.5 0 3-1.4 3.4-2.1 3.4-5.6 0-2.4-.7-4.6-1.8-5.8-2.5-2.7-7.7-3.2-10.3-1.1zM965.9 45.6c-3 3.7 0 13.4 4.2 13.4 1.1 0 3.5-.6 5.4-1.4 4.3-1.8 5.4-5.4 3.2-10.2-1.6-3.2-2-3.4-6.6-3.4-3.2 0-5.3.5-6.2 1.6zM1098.8 4c-4.5.8-6.7 2.5-8.4 6.5-1.5 3.7-5.6 24.6-5 25.3.3.2 17.5.4 38.2.5 20.8 0 39.3.3 41.2.8 4.5 1 8.2 3.7 10.6 7.9 1.8 3.1 2 5.5 2 30.1.1 14.7.4 27 .8 27.4 1.1 1.1 4.7-1.4 6.1-4.3 1.5-3 2.6-7.1 5.6-21.2 1.1-5.2 3.6-16.9 5.6-26 3.8-17.3 3.9-20.3.5-25.1-2.4-3.3-7.2-4.7-31.5-9.5-1.1-.2-10.8-2.2-21.5-4.5-38.3-8.1-40.4-8.5-44.2-7.9zM1039.4 7.5c-2.7 2-.6 4.2 2.5 2.6 1.4-.8 2.7-.9 4-.2 1.4.8 2.2.7 3-.3.9-1.1.7-1.5-.6-2.2-3.2-1.4-7-1.4-8.9.1zM871.3 14.4c-9.3 2.9-17.7 10.9-21.2 20-2.9 7.6-2.4 20.3 1.1 27.1 10.1 19.5 34 24.8 51.6 11.3 7.5-5.8 12.3-15.6 12.3-25.3.1-11.2-3.4-19.1-11.7-26.4-8.4-7.4-21.2-10-32.1-6.7zm14.5 21.8c11.4 9.5 11.5 9.6 10.9 11.1-.3.7-5 5-10.5 9.5-7.2 5.9-10.3 7.9-10.9 7-.8-1.3-1.3-31.3-.5-33.6.7-2.1 2.1-1.4 11 6zM1035.5 21.5c-7.2 6.7-7.7 7.4-5.4 7.5 2.4 0 2.6.3 2.6 4.2 0 7.8 0 7.8 3.8 7.8 3.4 0 3.5-.1 3.5-4.1v-4l3.8.3c3.5.3 3.7.5 3.7 3.8s.2 3.5 3.8 3.8l3.7.3v-6c0-5.4.2-6.1 2-6.1 2 0 2.8-1.6 1.1-2.2-.5-.2-3.6-2.8-6.8-5.9-3.2-3-6.3-5.8-6.8-6.1-.6-.4-4.6 2.7-9 6.7zM1246 34.6c-10 2.9-17.2 7-24.4 13.9-12.2 11.7-18.7 26.4-18.6 42.5 0 12.9 1.5 19.2 6.8 29.5 7.5 14.2 22.5 25.8 38.7 30 7.2 1.9 20.3 2.1 27.1.4 8.6-2.1 21.4-8.8 27.2-14.3 5.7-5.3 15.2-18.9 15.2-21.6 0-.9.4-2 .9-2.6 1.6-1.8 3.3-10.3 3.5-18.1.3-9.2-2.4-22.6-5.6-28.6-14.4-26.6-42.9-39.1-70.8-31.1zm32 23c13.9 5.4 20.1 15.1 20.3 31.5.1 9.2-3.7 17-9.5 20-4.9 2.5-9.9 1.9-13.5-1.7-2.8-2.8-3.6-2.9-5.4-.8-3 3.6-13.2 5.2-18.1 2.7-3.1-1.5-7.2-6.6-8.3-10.3-3.1-10 3.4-22.2 13.3-25 4.8-1.3 13.2-1.3 18.6.1l4.3 1.1-.4 5.1c-1.4 19-.6 23.7 3.9 23.7 6.8 0 9.7-16.8 4.8-27.8-2.5-5.6-4.3-7.7-9.5-11.1-3.6-2.3-4.9-2.5-13.5-2.5-10.5 0-15.8 1.8-21.7 7.2-6.2 5.6-10.7 18.7-9.6 28.1 2.2 19 16.9 27.3 39.6 22.3 5-1.1 9-1.5 9.3-1 1.4 2.2-.7 5.7-4 6.8-15.7 5.2-36 1.8-44.3-7.4-12.4-13.5-11.5-37.2 1.8-51.3 10-10.6 28.6-14.9 41.9-9.7z"/><path d="M1260.1 80.2c-4.1 1.1-5.5 2.5-7.3 6.9-1.7 4.1-1.6 8.5.1 12.6.9 2.3 2.2 3.3 5 4.1 4.7 1.1 8.4-.5 10.5-4.7 2.1-4 3.1-18.2 1.4-19.2-1.7-1.1-5.4-1-9.7.3zM1067.9 42.9c-6.7 3.5-6.9 4.9-6.8 39.1.1 34.1.4 36.2 5.9 39.5 3.4 1.9 4.9 2 50.2 2 50.8-.1 49.8 0 53.4-5.8 1.8-3 1.9-5.4 1.9-35.2 0-35.6-.2-36.6-6.5-39.8-3.2-1.6-7.5-1.7-49.1-1.7-41.9.1-45.8.2-49 1.9zm94.7 9.4c.2.7.3 11.3.2 23.5l-.3 22.3-8.2-8.2-8.2-8.3-8.7 8.8-8.7 8.8-14.1-14.1c-7.8-7.8-14.5-14.1-15-14.1s-7.1 6.4-14.7 14.2l-13.8 14.3-.1-23.6c0-13 .3-23.9.7-24.2.3-.4 20.8-.7 45.5-.7 35.4 0 45 .3 45.4 1.3z"/><path d="M1128.2 59c-9.9 2.2-12 14.9-3.2 19.5 3.9 2 6.6 1.9 10.5-.5 9.6-5.9 3.6-21.3-7.3-19zM812.2 49c-3.6.8-9.2 5.5-9.2 7.7 0 .7-.6 1.3-1.2 1.4-.7 0-7.6.1-15.3.3-17 .2-21 1.7-29.4 10.5-3.1 3.2-11.2 11.7-18 18.9-11.7 12.4-12.7 13.2-17.5 14.2-7.3 1.5-18.7.9-19.6-1-.4-.8-1.4-2.8-2.1-4.4-1.8-3.8-7-9-11.2-11.3-2.2-1.2-5.5-1.8-10.7-1.8-6.4 0-8.2.4-12.1 2.7-10.2 6-14.7 17-11.5 28 4.3 14.8 20.3 22.1 33.9 15.4 2.9-1.4 6.3-3.6 7.4-4.8 2.6-2.8 6.3-9.4 6.3-11.1 0-2 56.6-1.6 60 .4 2.6 1.5 4.8 3.6 24.7 24.5 16.5 17.4 17.4 17.8 36.6 18.2l14.7.4v9.9l14.8-.3 14.7-.3v-29l-14.8-.3-14.7-.3V147h-13.5c-9.8 0-14.4-.4-16.3-1.4-1.5-.8-7.4-6.5-13.2-12.6-5.8-6.2-12.4-13.2-14.7-15.6-2.3-2.4-4.1-4.5-4-4.5.1-.1 25.5-.2 56.5-.3 51.5-.1 56.3 0 56.7 1.5.3.9.5 2.1.4 2.5-.1.5-.1 2.6 0 4.6l.1 3.7 8.1-4.9c4.4-2.8 8.2-5 8.4-5 .6 0 12.5-7.2 12.5-7.5 0-.2-1.2-1-2.7-1.8-1.6-.7-7.9-4.4-14.2-8.1-6.3-3.6-11.6-6.4-11.9-6.2-.2.3-.5 2.9-.6 5.8l-.1 5.3-75.3.1-75.3.1 2.8-3.1c2.5-2.6 9.7-10.3 23-24.2 6.2-6.5 8-7.1 23.3-7.2l13.5-.1 2.2 3.3c6.1 9.4 20.3 8.4 25.3-1.9 5.4-11.2-4.6-23.3-16.8-20.5zM1337.5 57.5c-4.1 1.4-9.4 6.7-9.6 9.5-.6 6.3-.4 7.9 1.4 11.2 2.7 4.9 9.1 8.2 14.7 7.5 15.5-1.8 17.7-22.2 3.1-28.3-4-1.7-4.5-1.7-9.6.1zM926.3 71.9c-1 3.4-1.1 35-.1 42.6 1.6 11.9 5.7 21.3 13.8 31.5 3.2 3.9 13.3 11.6 17.9 13.7 6.6 2.8 14.4 5.3 17.2 5.5 1.6.1 3 .5 3 .8.5 2 .4 17.2 0 17.9-.4.5-5.8 1-12.2 1.2-7.5.3-12.1.9-13.1 1.7-2.5 2-2.8 5-.8 7.5 1.8 2.2 2 2.2 30.7 2.3 15.8.1 29.8-.2 31.1-.7 1.2-.5 2.8-2 3.4-3.5 1.1-2.4 1-2.9-1.4-4.9-2.4-2-3.8-2.3-13.9-2.4-6.3-.1-11.5-.4-11.8-.7-.6-.6-.2-17.7.5-18.3.3-.3 3.2-1.1 6.6-1.8 17.7-3.6 34.3-17.6 41.2-34.8 3.5-8.7 3.7-10.8 4.3-34.3.5-18.7.3-21.5-1.2-23.8-2.3-3.6-6.6-3-7.7 1.1-.4 1.6-.8 11.5-.8 22 .1 26.7-2.8 36.1-14.2 47.7-17.1 17.2-44.9 19-64.4 4.2-14.7-11.3-19.1-23.5-19.2-54.1 0-9.5-.3-18.6-.7-20.2-.6-2.7-1-3-4-2.9-2.7.1-3.5.6-4.2 2.7zM1374 76.7c-1.4.9-4.5 3.6-7 5.9-5.4 5.1-6.8 6.4-19 17.4-5.2 4.7-12.6 11.5-16.4 15.2l-7.1 6.7 5.6 5.3c10.1 9.7 13.1 12.1 13.9 10.8.4-.6.6-6.1.5-12.1-.1-7.5.2-11.5 1.1-12.7 1.1-1.5 4.2-1.7 33.8-2 39.8-.3 36.6-1.7 36.6 15.2 0 6.3.4 11.7.8 12 .8.5 18.3-15.4 18.2-16.6 0-.8-.5-1.3-12.6-12.3-5.4-5-12.8-11.7-16.4-15.1-13.7-12.6-17.6-16.1-20-17.7-3.2-2.2-8.9-2.2-12 0z"/><path d="M1359 122c-3.1.4-3.5.9-3.8 3.7-.5 5.1 1.2 5.4 25.3 5.2 22.4-.2 24.2-.5 24.9-4.6.9-4.3-1.3-4.8-22.8-4.8-11.1 0-21.7.2-23.6.5zM1435.5 132.7c-9.6 8.6-23.3 21.2-27.9 25.5-2.8 2.6-5.4 4.8-5.8 4.8-1.6 0-.7 3.4 1.5 5.2 1.2 1.1 4.2 3.8 6.7 6.1s9.4 8.7 15.5 14.2c6 5.5 11.6 10.6 12.4 11.3.7.7 1.5 1.1 1.7.9.6-.6.8-70.6.2-71.2-.2-.2-2.2 1.2-4.3 3.2zM1320.1 164.2c.1 18.8.4 34.8.6 35.5.4 1 1.1.7 2.7-.9 4.1-4.3 16.5-15.5 33.5-30.5l3.4-2.9-3.5-3.5c-1.9-1.9-5.2-5-7.5-6.9-3.5-3.1-20.4-18.5-25.4-23.3-1.1-.9-2.4-1.7-2.9-1.7-.7 0-1 11.6-.9 34.2zM1081.3 140.1c-16.2 4-31.4 12.9-39.4 23-3.7 4.6-12.2 26.5-16 40.9-.5 1.9-1.1 6.6-1.4 10.5-.8 10.5 1.8 16.2 6 13.2 1.3-1 1.7-3.5 2-11.7.7-17.8 5.2-30.8 12.2-35.3 2.1-1.4 6.8-5.6 10.5-9.4 7.4-7.6 14.6-12.3 24.6-16.1 9.3-3.5 24.8-3.6 33.6-.2 9.2 3.5 17.2 8.8 26 17 4.5 4.1 9.3 8.2 10.8 8.9 4.3 2.2 9.1 14 10.2 24.6.3 3.3.8 9.1 1.2 13 .7 8 1.8 10.8 4.2 10.3 2.7-.5 3.9-7.7 3-17.5-.9-9.9-2.6-16.7-7.3-27.8-1.8-4.4-3.6-9.6-3.9-11.6-.5-2.7-2.4-5.3-7.9-10.7-10.5-10.4-24.4-19-33.4-20.7-1.5-.2-4.2-.9-5.8-1.3-5.2-1.6-21.5-1-29.2.9zM1356.2 140.2c-1.6 1.6-1.5 5.3.2 6.7 1.6 1.3 42.7 1.8 46.5.6 2.6-.8 3-6.9.5-7.9-3.1-1.2-45.9-.7-47.2.6zM680.3 142.9c-3.6 1-6.3 3.9-6.4 6.8 0 1.6-.1 28.4-.1 59.6l-.1 56.8 2.4 2.2c2.4 2.2 2.4 2.2 50.4 2.5 33.8.2 48.7-.1 50.7-.9 1.6-.6 3.1-2.4 3.8-4.2.7-2.1 1-18.1 1-47.7-.1-42.7-.2-44.7-2.1-47.9-2.8-4.6-19.5-23.6-22.7-25.8-2.5-1.7-5.6-1.8-38.7-1.9-19.8-.1-37 .1-38.2.5zm65 9l3.7.1v9c0 13.6 2.7 17 13.5 16.9 2.2-.1 5.5-.1 7.3 0l3.2.1v41.4l-.1 41.4-6.2.4c-3.4.1-23.5.3-44.7.3l-38.5-.1-.3-54.6-.2-54.7 3.7-.3c3.4-.3 49.4-.2 58.6.1z"/><path d="M700.2 168.1c-4.6.6-7.2 3.1-6.4 6.1.8 3.1 3.8 3.6 23.5 3.6s21.7-.4 21.7-4.6c0-3.5-1.7-4.4-9.3-4.8-12.4-.8-25-.9-29.5-.3zM697.5 191.8c-2.4.5-3.5 2-3.5 4.8 0 4.5 1.2 4.7 34.2 4.7 29.2.1 31.1-.1 32.4-1.8 1.9-2.5 1.8-5-.3-6.6-1.3-1.1-7.7-1.4-31.2-1.5-16.3 0-30.5.2-31.6.4zM695.2 216.2c-.7.7-1.2 2.1-1.2 3.2.1 5-.3 5 33.4 5 28.3 0 31.8-.2 33.3-1.7 1.3-1.3 1.5-2.3.7-4.4l-.9-2.8-32.1-.3c-24-.2-32.3.1-33.2 1zM702 238c-3 .3-6.1.9-6.7 1.3-2 1.3-1.6 6.5.6 7.6 1.1.6 14.1 1 32.4 1 26.2 0 30.9-.2 32.2-1.5 1.7-1.7 1.9-4.2.5-6.4-.7-1.1-3.4-1.6-11.2-1.8-24.7-.6-42.7-.7-47.8-.2zM596.2 147.6c-3.6 1.9-7.2 7.8-7.2 12 0 1.4.9 4.3 2.1 6.3 6 10.7 21.8 8.7 25-3.2 3-11.1-9.3-20.5-19.9-15.1zM553.4 156.4c-2.6 2.6-3.4 4.2-3.4 7.1 0 7.3 4.8 11.7 12.6 11.7 7.2 0 12.4-9.4 8.9-16.2-2.1-4.2-5.3-6-10.3-6-3.7 0-5 .6-7.8 3.4zM637 155.7c-3.9 3.5-4.9 8.7-2.6 13.5 2.1 4.3 5.2 6.1 10.6 6.1 10.7 0 14.6-14.7 5.6-20.7-4-2.6-10-2.1-13.6 1.1zM1229.3 173.7c-8.7 7.5-16.1 14.2-16.5 14.7-.4.6-.7 9-.7 18.7l.1 17.6 4.5 3.9c2.6 2.2 5.1 4.4 5.7 4.9.6.6 5.9 5.2 11.8 10.3l10.8 9.3 7.5.2 7.5.2.1-3.5c.1-7.1.1-78.7 0-84.3l-.1-5.7h-14.9l-15.8 13.7zm15.7 7.2v4.9l-4.7 1.6c-10.9 3.5-20.5 5.6-20.1 4.5.3-.9 22.9-15.9 24.1-15.9.4 0 .7 2.2.7 4.9zM1361.8 174.2c-12.2 11.5-24.8 23-27.8 25.4-5.4 4.4-6.3 5.4-5.6 6.2.4.4 23.9.7 52.2.7 52.9 0 54.6-.1 49.4-3.8-1-.7-4.6-3.8-7.8-6.8s-7.8-7.2-10.3-9.4c-2.4-2.2-7.2-6.6-10.6-9.7-3.4-3.2-6.6-5.8-7-5.8-.5 0-2.6 1.6-4.8 3.5-6.7 5.9-12.3 5.7-19.4-.5-1.8-1.7-3.7-3-4.1-3-.4 0-2.3 1.5-4.2 3.2zM1278.7 178.4c13.1 14.9 14.5 34.5 3.7 51.8-1.5 2.4-3.5 5-4.6 5.9-3 2.7-2.2 4.2 1.2 2.4 14.7-7.6 22.6-27.2 17.4-43.1-3.1-9.1-12.3-19.3-18.9-21l-3-.7 4.2 4.7z"/><path d="M596 176.5c-14.5 3-20.4 10.8-19.9 26.4.1 4.1.6 9.5 1.1 12 .5 2.5 1.1 5.9 1.4 7.5.8 4.6 3.3 8.5 5.8 9.2 1.9.4 2.5 1.4 3 4.7 4 28.2 4.9 31 10.4 32.8 4.9 1.6 11.3.5 13.8-2.4 1.9-2.2 3.9-9.8 5-18.2 1.5-12.8 2.4-16.5 3.8-16.5 4.8 0 8.8-12.7 9-28.5.1-11.9-.5-14.3-4.6-19-6.4-7.4-17.3-10.4-28.8-8z"/><path d="M555.5 178c-5.2 1.2-11.2 4.8-13.7 8.2-3.1 4.4-3.7 16.6-1.3 27.3 1.6 7.4 2.1 8.2 5.8 10.8 1.6 1.1 2.1 2.9 4.2 17.2 1.7 11.5 4 14.5 11 14.5 6.2 0 8.1-1.9 9.9-10.2 3.4-15.7 3.8-21.3 2.1-29.3-2-9.4-1.3-25.1 1.3-30.2l2.1-4.1-2.2-1.5c-4.3-2.8-13.2-4.1-19.2-2.7zM636.6 178.6c-7.3 1.9-8.1 3.1-5.5 8.3 2.5 5.3 3.2 18.7 1.3 27.6-2 9.9-.3 27.3 3.7 37.7 1.2 2.8 4.5 4.2 9.4 3.9 6.3-.5 8.5-4 10.1-16.1.3-2.5.9-6.4 1.3-8.7.5-2.3.7-4.4.4-4.6-.2-.2 1.2-1.6 3.1-3 4.1-3.2 5.5-8.3 6.1-22.5.4-8 .2-10-1.6-13.3-4.1-8.1-16.8-12.3-28.3-9.3zM851.5 179.5c-11.9 3.9-22.6 13.3-27 23.8-.8 2-1.9 3.7-2.3 3.8-.4.1-1.8.2-3.2.3-19 1.8-31 22.6-23.1 40 2.7 5.8 7.2 10.2 14 13.4 5.1 2.4 6.5 2.5 21.2 2.6 8.7.1 16.1.4 16.4.8.7.6.9 6.1.6 13.9-.1 2.5-.2 2.5-8.1 2.5-4.4 0-8.3.4-8.7.8-.5.4 4.4 5.7 10.7 11.8 6.3 6 14.4 13.8 18 17.2 3.6 3.4 7.1 6.6 7.8 7 .8.5 6.1-4 16-13.6 8-7.9 16.4-16 18.6-18.1 2.5-2.4 3.6-4.1 2.9-4.5-.6-.4-4.6-.7-8.7-.6-8.5.1-7.7 1-8-8.9-.3-9-1.2-8.5 14.2-8.6 15-.1 18.6-.8 24.5-4.7 10.6-7 14.9-14.5 15.4-26.7.2-6.8-.1-8.7-2.6-14-5.1-11.3-16.7-18.9-29.3-19.3l-6.7-.2-6.8-6.9c-12.8-13.1-28.8-17.3-45.8-11.8zm28 12.6c6.3 3.1 11.8 8.6 15 14.9 2.6 5.2 2.7 5.2 6.3 4.5 8.5-1.8 14-1.4 19.5 1.3 15.4 7.9 14.7 30-1.1 37.3-4.6 2.1-5.8 2.2-51.2 2.3-25.6.1-48.1-.2-50-.7-4.8-1.2-9.8-5.2-11.4-9-2-4.7-1.3-12.9 1.3-16.6 3.7-5.1 9.1-7.3 17.3-6.9l7.1.3 1.3-5.7c.7-3.2 2.4-7.5 3.8-9.6 3.5-5.6 10.8-11.6 16.3-13.5 6.9-2.4 19.5-1.7 25.8 1.4z"/><path d="M857.3 198.3c-5.1 1.9-10 6.5-12.8 12-1.4 2.8-2.3 5.3-2 5.6.3.2 2.5-1.4 4.8-3.7 9.8-9.6 24.4-10.5 35.5-2.3 3.9 2.9 5.1 2.2 2.7-1.5-6.2-9.6-18.1-13.8-28.2-10.1zM1268.4 189.2c.9 1.3 2.6 4.3 3.7 6.6 3.8 8 1.9 22.3-3.6 27.8-2.4 2.4-1.1 2.8 2.8.9 6.2-2.9 10.8-12 10.1-19.5-.6-6.1-1.3-7.9-4.6-11.5-4.5-5.2-11.7-8.8-8.4-4.3zM1189.2 189.1c-1.1.4-2.3 1.3-2.7 1.9-.6 1-.9 14.8-.6 28.6.1 4.1 3.2 5.4 12.6 5.1l7-.2.2-16c.2-21.7.6-20.5-7.7-20.3-3.7.1-7.7.5-8.8.9zM1061.2 198c-4.2 1.8-4.9 5.8-4.8 30.5.1 25.2.7 28.7 5.4 30.3 3.9 1.3 8.7-.3 10.1-3.4.8-1.8 1.1-10.3 1.1-28.3-.1-24.6-.2-25.7-2.2-27.9-2.2-2.3-5.7-2.7-9.6-1.2zM1124.1 199.6c-3.4 4.4-3.6 6.4-3.1 37.3.3 19.8 1.8 23.9 8.7 22.8 7.3-1.2 8-4.3 7.7-31.5-.1-11.9-.3-22.9-.3-24.3-.2-6.5-9-9.4-13-4.3zM1045.1 203.1c-1.9 1.1-4.2 3-5.2 4.2-3 3.5-5.2 12.4-5.1 21.1 0 15.9 4.6 24.3 14.7 26.6l3.5.8.1-7.2c0-3.9.1-16.2.2-27.4l.2-20.2h-2.5c-1.4 0-4 .9-5.9 2.1zM1140.8 227.2c-.2 16.3.1 26.6.7 27.4.8 1 1.7 1 4.8-.1 2.1-.7 4.7-2.1 5.9-3.2 4.8-4.3 7.5-13.8 7.2-24.8-.4-12.9-3.7-20.4-10.7-23.5-8.1-3.7-7.6-5.3-7.9 24.2zM1312.1 212.9l-2 3.9 2.3 5.8c1.3 3.3 3.2 8.6 4.1 11.9 2 7.1 4.6 11 8.4 13 2.8 1.4 2.9 1.4 4.6-2.6 1.8-3.9 1.8-4-.3-6.2-2.3-2.5-3.9-6.2-4.7-11-1.1-6.5-3.7-12.6-6.6-15.6-1.6-1.7-3.1-3.1-3.4-3.1-.2 0-1.4 1.8-2.4 3.9zM1362.3 225.6c-3.3.7-8.4 2.4-11.4 3.9-5.4 2.7-15.3 12-14.4 13.5.3.4 3.2 2.2 6.5 3.9l6.1 3.2 3-2.2c4.7-3.3 11-3.6 16.9-.9 2.7 1.2 5.5 2 6.2 1.8 1.1-.5 10.8-18.7 10.8-20.2 0-.3-1.9-1.2-4.2-2.1-5.7-2.1-12.1-2.4-19.5-.9zM1391.8 234.3c-2 3-8.8 17.4-8.8 18.6 0 .4 1.3 1.4 2.9 2.1 3.9 1.6 7 5 8.6 9.6 3.6 10.6-4.8 21.1-15.9 20-2.7-.3-5.9-1.2-7.2-2.1-2.3-1.5-2.4-1.4-6.1 5.7-4.8 9.4-6.3 12.7-6.3 14.3 0 .6 7.3 4.7 16.3 9.1l16.2 7.8 10.5.1c10.1 0 10.8-.1 16.8-3.4 7.1-3.9 14.9-11.8 18-18.3 2.7-5.9 4.4-15.6 3.8-22.1-1.4-15.7-9.7-25.7-29.1-35.1-18.8-9.2-18.1-8.9-19.7-6.3zM984.9 238.4c-.2.2-2.4.6-5 .9-7.6.9-25.2 7.7-30.3 11.7-18.2 14.4-27.7 28.7-31.5 47.5-10.9 53.1 33.4 99.1 87.5 91 12.8-1.9 28-9.4 37.9-18.7 17-15.8 25.5-35.8 25-58.3-.9-33.8-22.9-62.1-55.7-71.6-6.4-1.8-26.7-3.6-27.9-2.5zm1.6 34.4c-1 1-15.5.9-15.5-.1 0-2.4 6.8-13.3 10.9-17.5l4.6-4.7.3 10.9c.1 6 0 11.1-.3 11.4zm15-19.6c6.7 7.7 12.5 16.8 12.5 19.6 0 .4-3.5.7-7.7.7h-7.8v-11.3c-.1-6.1.2-11.2.5-11.2s1.4 1 2.5 2.2zm23.9 5c5.9 3.2 16.6 12.4 16.6 14.4 0 .5-3.2.9-7.2.9h-7.2l-4.9-9.3c-2.7-5-4.5-9.2-4.2-9.2.4 0 3.5 1.5 6.9 3.2zm-59.4-1.4c0 .5-1.9 4.4-4.2 8.7l-4.3 8-7.2.1-7.3.2 1.5-2.8c1.9-3.7 8.7-9.4 14.9-12.5 5.3-2.7 6.6-3 6.6-1.7zm53.6 29.6c1.3 1.9 3.3 11.2 3.8 17.7l.3 4.6h-12.9l-12.8.1.2-11.7c.3-13.5-.4-12.7 12-12.5 6.2.2 8.5.6 9.4 1.8zm-67 1.8c-.3 1.8-.8 6-1.2 9.2-.7 6.9-1.1 9.3-1.8 10.4-.2.4-5.1.8-10.8.7h-10.3l-.1-3c0-4.2 1.3-10 3.8-15.7l2-4.8h19l-.6 3.2zm34.2 8.3c-.1 6.3-.4 11.6-.7 11.7-.3 0-5.8.2-12.3.3-11.5.2-11.6.1-12.1-2.2-.5-2.7 2-16.8 3.4-19.5.8-1.6 2.4-1.8 11.4-1.8H987l-.2 11.5zm65.7-7.3c2.1 5.1 3.3 9.8 4.1 15.5l.6 4.3h-8c-14.2 0-13.6.5-15.5-11.5-1-5.6-1.7-10.8-1.7-11.4 0-.7 3.2-1.1 9.4-1.1h9.4l1.7 4.2zm-102.9 31.2c.6.2 1.4 2.6 1.7 5.3 1.1 8.2 1.8 12.7 2.2 15.1.4 2.3.3 2.3-9.8 2l-10.2-.3-2.2-5.5c-1.1-3-2.4-8-2.8-11.2-.6-4.9-.5-5.7 1-6 2.2-.4 18.6.1 20.1.6zm34.9 0c2.5.6 2.5.7 2.5 11.6v11h-20.1l-1.9-4.3c-1.5-3.4-3.5-14.4-3.2-17.4.2-1.8 16.7-2.4 22.7-.9zm35.9-.5c2.8.1 2.8.1 2.2 5.2-.4 2.9-.8 5.4-1 5.8-.2.3-.7 2.8-1 5.5-.4 2.7-.9 5.3-1.1 5.7-.3.3-5.2.7-11 .8l-10.5.2v-11.5c0-13.2-1-12.2 12-11.9 4.1.1 8.8.2 10.4.2zm36.3 2.4c-.3 1.2-1.3 5.6-2.2 9.7-.9 4.2-2 8.2-2.4 8.9-.6 1-3.9 1.5-11.1 1.8l-10.1.5.6-4.3c.4-2.4.8-4.6 1-4.9.2-.3.6-2.6 1-5 1.2-9 .3-8.4 14.3-8.7 9.3-.2 9.4-.2 8.9 2zm-97.5 34.4c2.8 3 9.8 15.2 9.8 17.1 0 1.7-12.6-4.8-18.5-9.6-2.8-2.1-5.8-5.3-6.7-7l-1.8-3 7.3-.1c6.8-.1 7.5.1 9.9 2.6zm28 7.8c-.2 5.5-.5 10.2-.8 10.4-1.4 1.5-14.4-16.5-14.4-20 0-.5 3.5-.8 7.8-.6l7.7.2-.3 10zm25.3-8.3c-1.2 4.1-6.8 12.7-10.7 16.5l-3.8 3.7V354h7.6c7.3 0 7.5.1 6.9 2.2zm29.6-.5c-1.6 3.1-8.4 9.5-13.9 13-5.1 3.3-13.7 7-12.9 5.5.2-.4 2.6-4.5 5.2-9.2 2.7-4.7 5.4-9 6.1-9.5.7-.6 4.7-1.2 8.9-1.3 7-.2 7.5-.1 6.6 1.5zM485.6 248.6c-13.9 3.3-23.7 8.2-32.7 16.3-18.3 16.5-26.8 40.2-22.8 64 2.6 15.4 8.3 26.6 19.4 37.6 21.4 21.5 53.6 27.1 79.8 13.9 20.5-10.3 33.1-26.3 38.4-48.9.2-1.1.7-6.1 1-11.1.7-12.1-1.4-22-7.5-34.4-3.8-7.9-6.1-10.9-13.2-18-6.8-6.8-10.2-9.4-17-12.7-4.7-2.3-11.6-4.9-15.5-5.9-8.9-2.2-22.3-2.5-29.9-.8zm8.9 27.6c-.1 7.9-.3 14.9-.4 15.5-.1.9-2.8 1.2-9.8 1-11.3-.2-11.2 0-6.4-10.2 3.5-7.4 9.4-15.4 13.5-18.3 1.7-1.2 3.1-2.2 3.2-2.2.1 0 0 6.4-.1 14.2zm15.2-9c5.5 5.9 9.6 12.4 12.4 19.7 1.7 4.7 1.7 5 .1 5.5-2.3.7-18.2.4-18.3-.3-.4-3.9-.2-30.1.2-30.1.3 0 2.8 2.4 5.6 5.2zm-33.9 1c-3.4 4.4-5.7 9-8.8 17.3l-2.6 7-8.2.3c-4.5.2-8.2 0-8.2-.4 0-1.5 8.1-13.2 10.8-15.5 6.2-5.6 16.1-11.9 18.6-11.9.4 0-.3 1.5-1.6 3.2zm52.2.3c3.2 2 8.1 5.8 10.8 8.5 4.8 4.8 11.2 13.5 11.2 15.2 0 .5-3.7.8-8.2.6l-8.2-.3-3.1-8c-1.7-4.4-4.8-10.6-6.8-13.8-2-3.1-3.2-5.7-2.6-5.7.6 0 3.7 1.6 6.9 3.5zm-67.8 33.4c2.3.1 2.6.5 2.2 2.3-.8 3.4-.7 24.2.1 26.7.6 2 .4 2.1-8.8 2.1-8.1 0-9.6-.3-10.2-1.8-1.2-2.9-1.4-19.4-.4-24.7l1.1-5 6.6.2c3.7.1 7.9.2 9.4.2zm31.4 0l3 .1-.1 14.7c-.1 8.2-.3 15.1-.3 15.5-.1.5-5.1.8-11.1.8-9.6 0-11-.2-11.5-1.8-.5-1.7-.9-14.5-.7-22.9.2-7 0-6.9 20.7-6.4zm34 .4c.6.3 1.2 2.3 1.3 4.4.4 5.4.2 20.4-.3 22.8-.3 1.1-.5 2.4-.5 2.8-.1.4-5.2.6-11.3.5l-11.2-.3-.1-15c0-10.8.3-15.1 1.2-15.5 1.8-.7 19.7-.5 20.9.3zm26.5-.4c.9 0 2 .9 2.4 1.8 1.2 3.2 1.4 19.7.4 24.5l-1.1 4.8H535l.6-2.5c.8-3.3.9-16.8.1-23.2-.6-4.4-.4-5.2 1.1-5.5 1.5-.3 10.7-.2 15.3.1zm-84.9 48c1.5 4.1 4.3 10.1 6.4 13.5 2 3.3 3.9 6.5 4.2 7 .7 1.3-8.8-4.4-13.9-8.3-4.7-3.7-9.1-8.5-12.6-13.6-4-6-3.9-6.1 5-6l8.2.1 2.7 7.3zm26.8-7c.4 0 .6 6.8.5 15 0 13.2-.2 14.8-1.6 14.1-2.5-1.4-9.4-9.3-12.2-14.1-2.9-5-6.8-14.5-6.2-15.1.4-.3 18-.3 19.5.1zm28.7 0c2.9.2-4.8 15.5-11.7 23.4-7.6 8.6-7.5 8.6-7.3-8.6.1-8.4.2-15.2.2-15.3.1-.1 17.3.3 18.8.5zm26.5 1c-.8 3.7-9.9 14.5-16.3 19.3-7.2 5.5-15 8.8-11.7 5 2.5-2.8 7.5-12.3 9.9-18.7 1.2-3.3 2.6-6.3 3.1-6.6.4-.3 4.1-.5 8.1-.5 5.6.1 7.1.4 6.9 1.5zM1331 253.4c-2.8 7.3-1.7 20.4 2.2 28.4 3.9 7.6 13.6 17.2 17.6 17.2 1.2 0 10.2-17.8 10.2-20.2 0-.9-1.4-2.1-3.1-2.9-7.1-2.9-11.9-9-12.1-15.5-.1-3.2-.6-3.8-4.7-5.8-7.8-3.9-9-4.1-10.1-1.2zM1181.6 255.5c-2.2 3.3-2 5.8.5 8.1 1.8 1.6 3.8 1.9 12 2 5.5 0 10.1.3 10.4.5.4.5 11.1 46.2 12.1 51.9.3 1.4 1.4 6.2 2.4 10.7 1.1 4.6 2.2 9.3 2.5 10.5.2 1.3.9 4.4 1.5 6.9l1.1 4.7 6-2.1c5.6-1.9 5.9-2.2 5.5-4.9-.4-2.5-.1-2.8 2.2-2.9 1.5 0 3.6-.2 4.7-.4s5.4-.6 9.5-.9c17.2-1.2 23.6-1.7 25.5-2.1 1.1-.2 6.5-.7 12-1 12.6-.8 17.1-2 18.9-4.8 1.4-2.3 4.3-12.3 10.1-35.2 2.9-11.5 3.2-13.2 1.9-15.2l-1.4-2.2-45.8.2c-25.1.2-47 .1-48.6-.3-2.8-.5-3.2-1.2-5.6-9.8-4.2-14.5-6.8-16.2-24.4-16.2-11 0-11.4.1-13 2.5z"/><path d="M1356.1 255.6c-2.3 3-2.6 5.5-1.1 8.5 1.3 2.4 22.2 12.9 25.6 12.9 3.8 0 7.7-4.7 7-8.4-.9-4.2-2.6-5.8-11.3-10-4.3-2-8.6-4.2-9.5-4.7-3.5-1.8-8.5-1.1-10.7 1.7zM604.1 280.4c-4.7 4.8-4.7 4.7.5 11.1 6.3 7.8 9.3 22.8 7.1 35-1.1 6.3-3.8 12.3-8.4 18.7l-3.6 4.9 3.9 4c2.1 2.1 4.2 3.9 4.7 3.9 3 0 12.4-15.4 15.4-25.2 1.9-6.4 2.2-23.5.4-29.3-2.9-9.5-8.6-20.1-13.6-25.2l-2.2-2.2-4.2 4.3zM764.3 280.2c-1.8.5-4 2-4.9 3.3-1.5 2.3-1.5 2.7-.1 4.9 1.3 1.9 3.1 2.6 8.9 3.6 17.6 3 27 7.4 35.6 16.8 8.3 9.1 13.3 20.6 14.7 33.7.7 6.5 1.8 8.3 5.6 9 4.3.8 6.3-1.6 6.4-7.6.4-17.8-10.4-38.5-26-49.9-9.8-7.1-21.1-12.4-29.3-13.6-2.1-.3-4.6-.7-5.7-.8-1.1-.2-3.5.1-5.2.6zM1154.8 285.8c-3.4.4-4.6 1.9-5.6 6.8l-.8 3.9-27.4.1c-36.4.1-38.9.3-40.2 2.7-.6 1.2-1 12.8-.9 31.1 0 29.8.5 42.3 1.6 43.5.4.3 24.6.7 53.7.8 43.1.2 53.7-.1 56.4-1.2l3.3-1.4v-33.8c0-18.6-.3-35.2-.6-37-.6-3.7-2.4-4.6-9.4-4.4-5.3.1-6.5-.9-7.4-5.9-.3-1.9-1-3.9-1.5-4.4-.8-.8-16.1-1.4-21.2-.8zm16.4 4.1c1.5.1 1.7.9 1.5 4.8-.1 2.7-.5 5-.9 5.4-.6.4-7.7.4-15.9 0-1.3-.1-1.7-1.2-1.7-5-.1-4.4.1-5 2.1-5.3 1.9-.3 10-.2 14.9.1zm-21.3 16.2c9.7 2.1 18.6 10.1 21.3 19.3.6 2.3 1.1 7.2 1.1 11.1-.2 12.2-6 21.2-17.2 26.4-7.6 3.5-19.1 3.5-26.9.1-22.2-9.7-23-43.7-1.3-54.2 7.9-3.8 14.4-4.6 23-2.7z"/><path d="M1136 311c-19.2 4.7-25.6 26.2-12.4 41.9 11 13.1 35.3 8.7 41.3-7.5 3.4-8.9 2.6-16.1-2.8-24.6-5.2-8.3-16-12.3-26.1-9.8zm-4.1 15.8c1.2 2.2-.4 5.2-2.7 5.2-3.1 0-4.5-1.6-3.8-4.4.8-3.1 5-3.6 6.5-.8zM1096 290.2c0 2.5.4 2.8 3.3 2.9 8.2.2 18 0 18.4-.5.3-.3.3-1.6-.1-2.9-.5-2.3-.8-2.4-11.1-2.3H1096v2.8zM720.5 290.8c-4.2 2.6-12.8 12.3-15 16.9-1 2.1-1.8 5.6-1.8 7.9.2 4.6 3.8 13.4 8.3 20 1.6 2.5 3 4.7 3 4.9 0 .5.6 1.3 8.5 11 24.1 29.4 58.8 55.2 72.4 53.8 5.4-.5 15.5-7.6 20.9-14.7 4-5.2 3.1-7.7-6-17.2-12.6-13.1-14.8-13.7-22.3-6.4l-5 4.9-23-22.9-23.1-22.9 3.8-4.1c8.7-9.3 8.6-10.5-1.5-21.1-11.9-12.4-13.7-13.4-19.2-10.1zM660.3 292c-6 1.2-14.5 5.6-18.9 9.9-15.4 14.9-10.1 43.3 10.2 53.6 13.6 6.9 33.7 1.3 41.9-11.5 12.2-19.3 1.6-47.4-19.6-51.9-5.6-1.2-7.6-1.2-13.6-.1zM586.7 297.9l-3.6 4 3.1 5.6c2.6 4.9 3 6.4 2.6 11.3-.3 4-1.3 7-3.2 10.1l-2.8 4.4 4.5 4.5 4.5 4.5 3.4-4.7c8.7-12.4 8.7-28.2-.2-40.6-1.2-1.7-2.7-3-3.5-3-.7 0-2.9 1.8-4.8 3.9zM760.8 303.2c-1 .7-2.1 2.7-2.4 4.5-.7 3.6.9 4.9 7.2 5.9 16.7 2.6 28.1 14.2 29.7 30.2 1.1 11 11.9 11 11.9-.1 0-9.3-5-21.3-11.8-28.2-8.9-9-29.5-16.3-34.6-12.3zM1357.4 311.5c-4 1.7-4.1 1.8-4.8 9.5-.4 3.6-.9 8.7-1.1 11.4-.7 6.2.4 5.5 8.1-5.9l5.6-8.2-1.5-3.5c-1.9-4.6-2.6-4.9-6.3-3.3zM1326.7 317.7c-.2.4-.4 2.8-.3 5.3.1 4.2.4 4.6 5.1 7.7 2.8 1.8 5.8 3.9 6.7 4.7 2.3 2 5.9 3.8 6.4 3.3.5-.4-7.2-18.2-8.7-20.3-1-1.2-8.5-1.8-9.2-.7zM1424 322c-16.2 4.6-27.9 16.8-31.6 32.8-.7 3.1-1.2 5.8-1 6 .2.2 1.8.6 3.4.8 2.9.5 3.1.3 4.1-4.6 3.6-16.9 19.9-30 37.3-30 3.6 0 3.8-.1 3.8-3.4v-3.4l-5.2.1c-2.9 0-7.8.8-10.8 1.7zM890 335.1c-4.1 1-8.6 2-10 2.2-12.8 2.3-35 7.1-37 8-1.3.7-3.4 2.7-4.6 4.5-2.2 3.3-2.3 3.9-2.3 37.4 0 18.8-.2 34.2-.4 34.4-.2.2-2-.1-4-.7-12.7-3.5-25.3 7.2-24.1 20.4 1.1 10.4 10.5 18.2 21 17.3 8.3-.7 14.1-4.5 18.2-11.9 1.5-2.8 1.8-7.4 2.2-38.2l.5-34.9 7.5-1.7c4.1-1 9.5-2 11.9-2.4 2.5-.3 4.7-.8 5.1-1 .3-.2 2.4-.6 4.6-.9 5.3-.8 7.5-1.3 11.5-2.3 7.8-2.1 7.4-3.3 7.4 20.2 0 26.7.2 25.7-3.8 24-8.8-3.6-20.9 2.5-24.2 12.1-5.6 16.2 11 30.4 27.7 23.7 5.1-2 7.1-4.1 10.3-10.8l2.4-4.9v-45.5c0-44.8-.2-48.3-3.3-50.4-1.6-1.1-8.2-.5-16.6 1.4z"/><path d="M1429.5 333.9c-5.7 1.5-12 4.9-15.9 8.7-4.2 4.2-8.3 12.1-8.8 16.8-.3 2.6 0 3 2.9 3.3 3 .4 3.3.2 4.3-3.8 2.5-9.2 9.8-16.1 18.8-17.9 8.3-1.6 8.4-1.7 8-4.7-.2-2.3-.8-2.8-3.3-3-1.6-.1-4.3.2-6 .6zM1375 334.7c-.8.4-5.3 2.4-10 4.6-8.1 3.8-8.4 4-5.6 4.8 1.5.4 6.8 1.1 11.6 1.4l8.7.6 2.7-3.2 2.7-3.2-2.7-2.8c-2.7-2.8-4.4-3.3-7.4-2.2zM1316.2 345.4c-2.9 3.4-2.8 5 .5 7.6 3.2 2.5 4.2 2.4 15.9-3.1 10.5-4.8 10-5.4-4.8-6.4-9.1-.6-9.4-.6-11.6 1.9z"/><path d="M1430.1 347.6c-5.1 1.5-10.2 6.6-11.8 11.8-1.3 4.1-.9 4.6 2.9 4.6 2.2 0 3.1-.7 4.2-3.4 1.6-3.7 5.2-6.6 8.6-6.9 2.3-.2 3.7-2.1 3.6-5.1-.1-2.4-2-2.7-7.5-1zM1340.1 357.6c-6.3 9-6.9 10.6-4.9 14.9 1.2 2.7 3.3 3.1 7.2 1.3 3-1.3 3.3-2 4.1-11.3.3-3.9.8-8.2 1.1-9.7 1-5.2-1.5-3.6-7.5 4.8zM1232.5 353.6c-4.6 1.5-7.4 4-9.1 8.1-3.8 8.9.4 17.5 9.9 20.4 7.9 2.5 17-3.2 18.2-11.5 1.8-11.8-8.2-20.7-19-17zm7.3 10c2.6 1.8 2.9 5.6.6 7.8-1.8 1.9-4.3 2-6.5.3-2.9-2.3-3-4.7-.4-7.3 2.8-2.8 3.3-2.9 6.3-.8zM1278.9 353.3c-7.3 1.7-12.7 10.9-10.7 18.4.4 1.7 2.2 4.6 4 6.3 5.4 5.5 10.4 6.3 17.3 3 10-4.8 11.3-18.6 2.4-25.2-3.9-3-7.9-3.7-13-2.5zm6.9 10.3c3.4 2.3 3 6.8-.7 8.4-4.3 1.7-7.1 0-7.1-4.6 0-2.7.5-3.7 2.3-4.4 3-1.2 3-1.2 5.5.6zM1356 354.1c0 .6.7 3.9 1.6 7.3.9 3.3 1.7 6.8 1.9 7.8.2.9 3.7 14.4 7.8 30 4.1 15.5 7.8 29.5 8.1 31 .4 1.6 1 2.8 1.5 2.8s3.7-4.5 7.1-10c3.4-5.5 6.3-10 6.5-10 .2 0 4.3 4.8 9.2 10.7 4.8 6 9.7 11.9 10.9 13.3 1.2 1.4 4.5 5.3 7.3 8.7 2.9 3.5 5.6 6.3 6 6.3.8 0 12.9-9.7 16.5-13 .5-.6-.3-2.5-2-4.7-2.8-3.8-20.9-25.7-26.5-32.1-1.6-1.9-2.9-3.7-2.9-4.2 0-.4 2.1-1.5 4.8-2.4 13-4.7 16.6-6.2 17-7.4.2-.6-.1-1.2-.6-1.2-.6 0-10.4-4.5-21.7-10-11.4-5.5-20.9-10-21.1-10-.2 0-6.7-3.2-14.5-7-14.3-7-16.9-7.9-16.9-5.9zM1432.5 361.5c-1.4 1.3-2.5 2.9-2.5 3.5 0 1.6 4.6 6 6.3 6 2.4 0 5.6-3.8 5.2-6.2-.5-2.3-3.9-5.8-5.7-5.8-.5 0-2 1.1-3.3 2.5zM646.8 365.2c-17.8 1.6-29.1 12.1-32.3 30.1-1.2 6.7-1.7 32.1-.7 35.9.4 1.6 4 1.8 51.7 1.8 36.4 0 51.6-.3 52.1-1.1 1.4-2.4.8-30.5-1-38.9-1.8-8.8-7-17.4-13.3-21.7-3.6-2.5-10.4-5.2-15.1-5.9-5.4-.9-32.5-1-41.4-.2zM930.3 377.9c-6.8 1.7-13.5 8.1-15.1 14.3-2.4 9.3 2.2 19.4 10.7 23.4 14 6.7 30.1-4 28.9-19.1-1-12.3-13.1-21.4-24.5-18.6zM442.2 379.2c-.7.7-1.2 2.6-1.2 4.4 0 2.7-.8 3.8-5 6.8-4.6 3.3-5.4 3.6-8.6 2.7-2.9-.8-3.7-.6-5.3 1-1.7 1.9-3.1 6.1-3.1 9.5 0 .8 1.7 2.2 3.7 3.1 3 1.4 4.1 2.8 5.5 6.8 1.7 4.6 1.7 5.3.3 8.3-2.1 4.7-1.9 6.5 1.3 8.9 4.8 3.6 6.7 3.7 10.1.5 2.6-2.4 4.1-2.9 8.5-3 4.7 0 5.7.3 8.2 2.9 1.5 1.6 3.3 2.9 3.9 2.9.7 0 3.1-1.4 5.4-3.1 3.7-2.6 4.2-3.4 3.6-5.7-.4-1.5-1.3-3.4-2-4.2-1.1-1.3-1.1-2 .1-4.9.8-1.8 1.4-4.2 1.4-5.2 0-1.2 1.5-2.6 3.9-3.9 2.2-1.1 4.3-2.4 4.6-3 .4-.6-.1-3.3-1-6.1l-1.7-5.1-5.1.5c-4.6.4-5.6.1-9.2-2.7-2.2-1.7-4.1-3.1-4.2-3.1-.1-.1-.5-1.9-.9-4.1-.3-2.1-1.1-4.2-1.8-4.6-1.8-1.2-10.1-.9-11.4.4zm12.2 22.4c3.3 3.4 3.4 7.3 0 11.3-2.1 2.5-3.2 3.1-5.7 2.7-6.6-.8-8.7-3.2-8.7-9.6 0-6.4 9.4-9.3 14.4-4.4zM1304.3 379.2c-7.2 1.9-9.6 10.2-4.4 16 2.4 2.7 3.6 3.2 7.1 3.2 3.5 0 4.8-.6 7.1-3.2 3.4-3.8 3.7-7.4 1-11.8-2.3-3.8-6.4-5.4-10.8-4.2zM1341 378.8c-.5.2-1 1.4-1 2.7 0 2.8-4.5 6-8.1 5.7-2.2-.2-2.9.4-3.8 2.8-.9 2.7-.7 3.2 1.4 4.6 3.1 2 4.5 6.2 3.2 9.2-.8 1.7-.6 2.6.8 4.2 2.2 2.4 3.8 2.5 5.9.5 1.6-1.6 8.6-2.1 8.6-.6 0 1.6 3 2.1 5.5.9 2.7-1.2 3.1-2.8 1.5-5.8-1.3-2.4.4-6.4 3.6-8.5 2-1.3 2.2-1.9 1.3-4.4-.8-2.3-1.6-2.9-3.8-2.9-3.8.1-7.8-2.7-8.4-6.1-.5-2.3-1.1-2.9-3.1-2.7-1.4 0-3 .2-3.6.4zm5.8 12.8c1.2.8 2.2 2.3 2.2 3.2-.1 2.5-2.4 5.2-4.5 5.2-2.4 0-5.5-2.9-5.5-5.1 0-1.6 3.4-4.9 5-4.9.3 0 1.6.7 2.8 1.6zM524.4 391.5c-28.6 6.4-50.6 28.8-56.9 57.9-1.8 8.5-1.1 24.3 1.5 33.5 7.2 25.2 28.4 45.8 53.5 51.7 7.2 1.7 20.9 2.2 28 1 22.4-3.6 43.8-18.9 54-38.5 4.4-8.5 7.9-22.7 7.9-31.6-.2-31.3-16.1-56.6-43.8-69.4-11.9-5.5-31.3-7.5-44.2-4.6zm25.1 8c3.7.4 7.2 1.2 13.5 3.1 3.3 1 10.7 5 14.9 8.2 22.9 17.1 31.5 51.6 19.8 79.7-7.9 19.1-27.1 33.7-47.1 35.8-1.9.2-1.9-1-1.9-40.1 0-22.1.3-40.5.6-40.8.3-.3 3.6 2.4 7.4 6.1 6.6 6.5 6.9 6.6 11.1 6.2 5.8-.6 9.2-3.8 9.2-8.8 0-3.7-2.3-6.9-13-17.9-6.6-6.8-18.8-19.9-21.2-22.9l-2.8-3.2-2.7 1.9c-6.9 4.9-36.2 37.1-36.4 40-.1.9-.2 2.4-.3 3.2-.2 2.6 2.4 5.8 5.6 6.9 6 2.1 8 1.4 13.8-4.5 9.8-10.1 9-13.3 9 33.6v41l-2.7-.6c-22-5.2-39.5-20.3-47.1-40.7-2.9-7.7-3.3-9.8-3.9-20-1.7-31.3 20.4-59.2 52-65.5 8.3-1.7 13-1.9 22.2-.7z"/><path d="M378.6 418.6c-5.1 2.7-5.2 3.1-3.1 10.9.4 1.5-.7 3-4.1 5.9-4.4 3.8-4.7 3.9-9 2.9-3.6-.8-4.6-.7-5.7.6-2.4 2.7-3.6 5.6-3.9 9.5-.3 3.2.1 3.9 2.7 5.4 4.2 2.4 4.5 3 4.5 9.4 0 5.4-.1 5.7-3.5 7.7-2 1.1-3.8 2.8-4.1 3.6-.7 1.7 2.3 10.3 4.2 12.2 1.1 1.1 4.3 1 8.7-.3 1.3-.4 3.2.8 6.3 4 3.9 4.1 4.2 4.9 3.4 7.2-2.1 5.5-1.4 7.3 4.1 9.8 6.6 3 9.4 2.4 11.5-2.3 1.6-3.6 1.7-3.7 7.2-3.5 7.8.1 8.2.2 8.2 1.6.1 2.5 3.7 6 6.2 6 3.7 0 9.8-3.2 11-5.8.8-1.7.7-3.1-.2-5.4-1.2-2.8-1-3.2 2.1-6.9 4.3-5 5.3-5.4 10.2-4 4.8 1.3 6.4 0 9.1-6.9 1.9-5.1 1-7.8-3.5-9.4-1.6-.5-2.9-1.3-2.9-1.6-.1-.4-.2-3.5-.3-6.9l-.2-6.2 3.8-1.7c2-.9 3.7-2 3.8-2.3 0-.3.2-1.3.4-2.2.4-2-2.6-8.9-4.9-11.1-1.3-1.3-2.2-1.5-4.2-.8-4.4 1.7-6.5 1.1-10.5-2.9l-3.9-3.9 1.2-4.5c1.4-5.5.7-6.7-5.8-9.2-5.9-2.3-8.7-1.4-10.8 3.2-1.7 3.8-1.7 3.8-7.4 3.6-3.1-.1-6-.2-6.3-.2-.3-.1-1.4-1.9-2.4-4.1-2.2-4.9-4.6-5.1-11.9-1.4zm28.2 32.1c11.2 8.4 6.9 24.8-6.9 26.1-8.7.8-15.2-5.2-15.3-14.3-.1-5.8 2-9.2 7.3-12.3 4.4-2.6 11.1-2.3 14.9.5zM860.3 451.9c-5.6 3.5-6.8 8.2-3.3 13.8 4.1 6.8 13.4 5.9 17.2-1.6 4.1-8.2-6-17.1-13.9-12.2zM667.3 454.7c-.4.1-10.3.3-22 .5s-21.6.7-22 1.2c-1 .9-1.1 129.1-.1 130.1 1.2 1.2 25.7 1.8 83.3 1.8 54.3 0 97.2-.7 98.2-1.6 1.7-1.8 1.7-128.6 0-130.4-1.1-1-25-1.5-77.9-1.7-32.3-.1-59 0-59.5.1zm-13.6 8.7c.1.1.3 5.3.5 11.6l.3 11.4-9.5-.2c-5.2 0-10.7-.1-12.2-.1l-2.8-.1v-11.3c0-6.3.2-11.6.4-11.8.4-.4 22.9.1 23.3.5zm112.2.5c.5.7.6 108.4.2 115.1-.1 1.3-6.5 1.5-51.8 1.4-28.5-.1-52-.2-52.3-.3-.4-.1-.5-114.8-.1-117.2.2-.9 103.5.1 104 1zm31.9-.4c.7.7.6 21.5-.1 22.1-.3.4-5.8.7-12.1.8l-11.6.1v-11.6c0-6.4.2-11.8.5-12.1.6-.6 22.7 0 23.3.7zM654 506v12h-24v-24h24v12zm144.1-10v20.5c-.1 1.2-2.1 1.5-12.2 1.5h-12l.4-11.8c.3-6.4.5-11.8.6-12 .1-.1 5.3-.2 11.6-.2 10.8 0 11.5.1 11.6 2zm-.3 30.5c.4.4.6 14 .3 21.3-.1 1.7-1.2 1.9-12.2 1.9l-12 .1.2-11.2c.2-6.1.6-11.6 1-12.1.7-1 21.8-1 22.7 0zm-144 11.2l-.3 11.8-11.7.1-11.8.1V526h24.1l-.3 11.7zm-1.5 20.2c1.5.1 1.7 1.3 1.7 11.3v11.3l-11.2-.2c-6.2-.1-11.7-.2-12.1-.2-.8-.1-.8-19.6 0-21.7.4-1 7.2-1.1 21.6-.5zm145.8 1.6c.5 18 .4 20.4-1.1 20.7-.8.2-6.2.3-12 .3h-10.5l-.1-11c-.1-6.1 0-11.2.2-11.6.1-.3 5.5-.5 11.8-.5 10.9.1 11.6.2 11.7 2.1z"/><path d="M684.1 483c-.7.4-1.4 2.7-1.6 5.1-.5 5.6-.6 60.4-.1 64.4.2 1.6.4 4 .5 5.2.2 4.7 6.7 2.2 29.1-11.1 5.8-3.5 15.5-9.1 21.7-12.6 14.4-8.1 18.2-11.2 16.7-13.7-1.4-2.3-11.8-9.3-20.7-13.9-3.8-2-10.3-5.6-14.4-8-4.1-2.4-7.6-4.4-7.9-4.4-.2 0-3.6-2.1-7.6-4.6-8-5.2-13.9-7.6-15.7-6.4zM827.1 466.2c-4.8.8-7.5 2.4-12.1 6.8-9.6 9.4-5.8 26.1 7.2 32 8.1 3.7 17.5 1.6 23.5-5.3 7.4-8.5 6.8-19.3-1.7-27.8-5.2-5.2-10.2-6.9-16.9-5.7zM434.5 493.4c-3.5 1.5-4.9 3.9-11.5 20.5-6 15.2-9.7 21.4-17.8 30.2-9.1 9.8-20.7 16.8-27.2 16.4-.8-.1-2.3.3-3.3.7-1.7.9-1.8 3.2-1.5 40.3l.3 39.5 3 1.1c1.7.7 6.6 2.9 11 4.9 7.8 3.6 14.3 5.6 21.5 6.5 6.3.7 66.4.6 69-.2 8.8-2.7 12.2-10.9 8.3-20.4-1.5-3.9-1.5-4.2 0-5.1 7.4-4.1 9.4-10.2 5.8-18.3-2.5-5.6-2.5-5.5-.8-5.5 1.5 0 5.9-4.5 7.6-7.7 1.7-3.2 1.3-7.4-.9-11.8-1.3-2.5-1.6-4.1-1-4.3 2.8-1 7.1-5.7 8.1-9.1 1.3-4.2 0-10.1-2.9-13.8-3.6-4.6-6.9-5.1-33.9-4.9-13.9.1-25.3-.2-25.3-.6 0-.5.9-3.6 2.1-7.1 4.9-14.6 6.5-34.6 3.3-42.8-2.1-5.4-3-6.4-7.4-8.3-2.9-1.2-4-1.2-6.5-.2zM558.5 551.3c-6 6.2-15.2 15.6-20.2 20.9l-9.3 9.7v6c0 3.4.3 6.1.6 6.1s6.3-5.9 13.2-13.1c25.3-26.2 29.1-29.9 30.4-29.4.8.3 10.5 10 21.7 21.5 11.2 11.6 20.6 20.8 20.9 20.5.3-.2.5-3.1.4-6.2 0-5-.4-6.1-2.9-8.3-1.5-1.5-4.9-4.9-7.5-7.8l-4.8-5.1V544h-6c-6.3 0-6.4.1-6 5.3.1 2.5-.1 2.7-1.8 1.8-1-.5-3-2.4-4.3-4.1-3-3.9-7.9-7-11-7-1.7 0-5.5 3.2-13.4 11.3zM330.3 553.6c-5.6 2.8-5.8 3.9-5.7 47.9.1 38.3.3 44.9 1.9 48.7 1.1 2.7 6.2 3.7 18.4 3.7 11.2 0 11.5-.1 14.3-2.9l2.8-2.8.1-16.4c.2-31.4-.1-69.3-.5-71.3-.3-1.1-.5-2.6-.5-3.2-.1-.7-1.2-2-2.6-2.9-3.7-2.4-23.7-2.9-28.2-.8zm17.4 75.9c4.3 3 3.8 8.8-1.1 12-6.6 4.3-13.5-5.1-8.1-11 2.7-2.8 6-3.2 9.2-1z"/><path d="M569.8 561.7c-1.8 1.5-3.5 3.1-3.8 3.5-.3.4-6.4 6.9-13.5 14.4-7.2 7.5-13.2 14.4-13.6 15.3-.3.9-.5 8-.4 15.8.1 17.4-.3 16.9 12.8 16.6 5 0 9.5-.1 9.9-.2.5-.1.7-5.8.7-12.9-.1-7-.1-13.8 0-15.2l.1-2.6 10.8.1 10.7.1v14.8c0 14 .2 14.9 2 15.5 3.5 1.2 18.2.6 19.9-.8 1.3-1.1 1.5-4 1.5-16.5v-15.3l-7.2-7.5c-4-4.1-11.6-12-16.9-17.6l-9.7-10.2-3.3 2.7zM685.4 596.1c-1.8 2-1.9 4.4-1.9 49.5 0 42.4-.2 47.5-1.6 49-2.2 2.1-5.9.3-6-2.9 0-1.2-.2-19.5-.3-40.7-.2-21.2-.4-38.9-.4-39.3-.3-1.1-13.9-.6-17.6.6-2.8 1-2.8 1-2.3 7.1.3 3.4 1.5 11.7 2.6 18.6 2.3 15.1 5.9 37.6 6.5 41 .3 1.4 1 5.8 1.6 9.8 1.4 9.6 3.3 14 6.5 15.2 2.8 1 113.3 1.4 117 .4 4.9-1.3 5-2.2 5.2-45.4 0-22.4-.3-42.2-.8-44.2-1.6-6.2-2.1-6.3-35.6-6.3-22.9-.1-30.5-.4-31.6-1.4-.9-.7-2.3-3.5-3.2-6.2-.9-2.7-2.5-5.4-3.5-5.9-1-.6-8.8-1-17.3-1-14.3 0-15.5.1-17.3 2.1zM525 637.3c-8 3.9-12.3 13.2-9.8 21.1 1.2 3.8 1.2 4-.2 9.4-1.2 5.1 0 10.9 3.3 15.3 2.1 3 9 6.9 12 6.9.9 0 3.2 1.1 5.2 2.4 6.6 4.5 16.1 1.5 18.5-6 1-3 1-3.8-.1-4.5-1-.6-1.6-.1-2.1 1.9-.9 3.5-4.2 7-7.3 7.8-3.9 1-9.8-2.5-11-6.4-1.1-4-4.5-4.6-3.7-.7.5 3 0 3.1-4.8.4-6.4-3.6-9-10.8-6.5-18 1.3-3.7 1.3-4.7 0-8.7-.9-2.5-1.3-5.7-1-7.2 2.1-9.8 12-15 21-11.1 2.8 1.2 4.9 1.5 7 1 5.3-1.5 10.9.4 15.3 5.1 1.8 1.9 2.1 1.9 5.5.5 5.1-2.1 9.9-1.9 13.7.7 4.6 3.2 7 6.7 7.4 11.1.3 2.6 1.2 4.4 3.2 6 1.5 1.2 3 2.4 3.3 2.7 1.8 1.6 3.3 5.8 3.3 9.7 0 8.7-7.7 15.7-16.2 14.7-5-.6-8.2-4.2-8.3-9.4-.1-3.7.4-4.7 3.2-7.1 4-3.3 3.4-5.8-.9-3.3-4.8 2.9-7 10.4-4.5 15.4 4.6 9 15.7 10.2 23.9 2.6 3.3-3 6.5-9.8 6.1-13.1-.6-5.5-2-8.8-5.4-12.2-2.5-2.4-4.4-5.5-5.1-8.3-1.7-6.1-4.2-9.5-9.3-11.9-4.7-2.3-10-2.7-14.2-1.1-2.3.9-3.3.5-7.1-2.2-3.9-2.7-5.2-3.1-10.6-3.1-3.5.1-8.3-.5-10.8-1.2-6.2-1.7-7.8-1.6-13 .8zM594.6 652.8c-1.4 1.3-.4 2.2 2.4 2.2 1.7 0 4.4.7 6.1 1.5 1.9 1.1 4.1 1.4 6.4.9 4.6-.8 7.7 0 11.5 3.2 2.7 2.3 3.4 2.5 5.6 1.5 7.8-3.5 18.4 2 18.4 9.7 0 3 1.1 5.2 2.5 5.2.7 0 2.3 1.5 3.4 3.4 5.6 8.9 1.4 18.6-8.6 20.2-3.3.5-4.4.2-6.7-1.8-4.1-3.5-4.4-8.2-.7-11.8 3.3-3.4 2.7-5.8-.8-3.4-3.4 2.4-5 6.9-4 11.3 3.2 14.5 25.9 8.7 25.9-6.6 0-5-1.1-7.5-5-11.8-1.5-1.7-3.1-4.4-3.5-6-.9-4.2-5.2-9.5-8.9-11-3.1-1.3-8.3-1.4-12.2-.1-1.4.4-2.7.1-3.8-.9-2.8-2.9-8.6-4.7-12.7-4-2.1.4-4.6.2-5.9-.5-2.3-1.2-8.6-2.1-9.4-1.2zM392.4 669.4c-18.2 6.6-30.2 22.8-30.9 41.5-.3 8.8 1.2 15.7 5.5 24l3 6-2.9 2.7c-2.2 2-4.1 2.8-7.4 2.9-2.4.1-5.2.7-6.1 1.2-3.1 1.7-27.8 26.8-29.3 29.8-4.5 8.6 1 19.5 10.5 20.9 6.8 1 10-1 23.5-14.3 14.7-14.5 16.7-17.2 16.7-23 0-3.3.6-4.8 3-7.1l2.9-2.9 5.3 2.9c13.6 7.3 30.5 7.3 43.4-.1 18.9-10.7 28-30.8 23.4-51.4-3.4-15.3-16.7-29.2-32.4-33.9-7.3-2.2-21-1.8-28.2.8zm27.1 11.9c7.3 2.5 14.7 9.4 18.7 17.5 2.9 5.9 3.3 7.6 3.2 14.7 0 9.5-2.2 14.8-9 22.4-17.7 19.7-50.6 11.8-57.4-13.9-7.1-26.5 18.1-49.6 44.5-40.7z"/><path d="M401 687.7c-11.4 3.7-19.3 14.4-19.1 26 0 6.1 3.4 14.5 7.1 17.8 2.8 2.6 3.2 1.6 1.3-3.5-7.3-20.6 11.5-39.4 32-32.2 3.1 1.1 5.7 1.7 5.7 1.2 0-1.3-6.2-6.2-10-7.8-3.5-1.4-14.2-2.4-17-1.5zM472.2 674.1c-5.4 2.7-8.5 7.8-8.3 13.2.4 7.2.3 12.1-.2 15.2-.5 3.6 1.5 9.1 4.5 12.3 1.2 1.2 4.3 2.9 7 3.7 2.6.8 5.8 2.1 7 2.9 2.8 2 7.1 2 10.8.1 1.7-.9 3-1.7 3-1.9 0-.2.7-2 1.5-4 1.4-3.2 1.4-3.6 0-3.6-.8 0-1.7 1.1-2.1 2.4-.9 3.6-3.8 5.8-8 5.9-2.9.1-4.1-.5-6-2.8-1.3-1.7-2.4-3.6-2.4-4.3 0-.6-.4-1.2-1-1.2-.5 0-1 .9-1 2.1 0 1.8-.4 2-2.6 1.5-5.9-1.5-9.6-9.4-7.4-16 .9-2.7.9-4.4 0-7.1-2.1-6.2 0-12.3 5.3-15.5 3.8-2.4 8.7-2.6 12.6-.5 1.6.8 3.1 1.2 3.4.8 1-1 8.5-.5 10.9.8 1.3.6 3 2.1 4 3.2 1.4 1.8 2 2 4 1 1.2-.7 3.1-1.3 4-1.5 1.2-.2 1.5-.7.9-1.7-.7-1.1-1.5-1.1-3.9-.3-2.5.9-3.3.7-4.7-.8-2.4-2.7-8-4.3-12.5-3.7-2 .2-4.4.1-5.2-.4-3.5-1.9-9.4-1.8-13.6.2z"/><path d="M522.5 700.7c3.5 8.8 7.9 27.6 9.1 38.8 1.3 10.9.8 28.1-1 38.5-1.8 10.5-6.5 27-7.6 27-.8 0-2.2-3.2-4.4-10-5.6-17.8-5.5-33.9.4-55.7 1.2-4.5 2.3-8.6 2.4-9 0-.5-11.7-.8-26.1-.9-14.5 0-26.3.2-26.3.5s.7 2.8 1.6 5.6c2.8 8.8 5.2 24.8 5.2 33.5 0 16.3-3.5 30.3-12 47.8-2.7 5.7-4.7 10.6-4.4 10.9.3.3 12.5.6 27.1.5 14.6 0 26.5.1 26.5.3 0 .3-1.1 2.4-2.5 4.9-1.4 2.5-2.5 4.9-2.5 5.3 0 .5 23.6.9 52.5.9s52.5-.4 52.5-.8c0-.5-.9-2.6-2-4.8-1.1-2.2-2-4.4-2-4.9 0-.6 11.3-.9 29.3-.9 16-.1 31.1-.1 33.4-.1l4.2-.1-5.3-10.8c-7.3-14.7-12.1-27.2-14.7-37.8-4.2-17.3-2.5-42.7 4.1-62 1.1-3.1 2-6.1 2-6.5 0-.4-14.2-.8-31.6-.7-28.9 0-31.5.1-31.1 1.7 1.1 3.4 3.8 12.7 4.2 14.4.2 1 .6 2.6.9 3.5 3.2 10.7 3.8 35.2 1.1 48.4-1.8 8.8-6.2 23.8-7.5 25.1-1.4 1.5-8-19.5-9.7-30.8-1-6.7-1-27.5 0-35.5 1-7.3 7.1-32 8.7-35 .5-1 1-2.1 1-2.4 0-.3-17.1-.6-38.1-.6-35.9 0-38.1.1-37.4 1.7zm12.4 11.6c5.7 17.1 7.7 35.3 5.7 52.9-.6 5-1.1 6.6-2.1 6.2-.8-.4-1.1-1.4-.8-2.7 1-4 1.2-28.1.2-33.2-.5-2.8-1.2-6.1-1.4-7.5-.6-3.2-4-14.7-5.3-18.1-1-2.6-.7-3.9.9-3.9.4 0 1.7 2.8 2.8 6.3zm75.2 10.9c1.2 4 2.7 10.4 3.4 14.3 1.4 7.4 1.5 30.1.1 32.3-1.6 2.6-2.3 0-1.4-5 1-5.1.5-20.6-.7-27.6-.4-1.8-1.7-7-3.1-11.4-2.7-9.1-2.8-9.8-1.4-9.8.5 0 1.9 3.3 3.1 7.2zm-131.6 17.9c.9 3.4 1.8 7.1 2 8.3.2 1.2.7 3.9 1 6.1.8 4.8.7 18.9-.1 22.2-.9 3.5-2.2 2.7-1.6-1 1.2-8.3.3-21.4-2.2-31.2-2.9-11-3-11.9-1.7-11.1.4.3 1.6 3.3 2.6 6.7zM737.2 713.2c-27 3.8-48.7 28.5-49.6 56.3-.9 28.3 15.6 51.7 42.4 60.1 6.8 2.2 20.8 2.9 28.2 1.5 24.5-4.8 43.9-24.2 48.4-48.3.6-3.5.7-17.3.1-19.8-.2-.8-.7-3.3-1.2-5.5-1.2-5.9-6.1-15.8-10.7-21.7-14.2-17.9-34.7-26-57.6-22.6zm20 42.4c9 7.4 16.7 14.4 17.2 15.5 1.1 2.3.2 3.3-17 17.4-5.3 4.4-11 9.2-12.6 10.6-4.7 4.2-7.6 5.5-9 4.1-1.8-1.8-1.7-59.4.1-61.6 1.8-2.2 2.4-1.7 21.3 14zM414.9 779.3c-6.2 3.3-10.1 9.2-10.5 15.9-.2 2.9-.3 5.6-.4 5.9 0 .4-6.3 4.6-14 9.4l-14 8.7 1.6 3.6c.9 2 1.9 4.7 2.1 5.9.3 1.3.8 2.3 1.1 2.3.8 0 12.7-7.2 22-13.2l7.3-4.7 4.9 2.6c13.1 6.8 28.8-1.6 30.3-16.3 1.7-16-16-27.7-30.4-20.1z"/><path d="M346.3 815.5c-5.7 1.7-10 5-12.2 9.3-7.3 14.6 2.2 31.2 17.9 31.2 4.5 0 12.1-2.8 13.4-4.9 1.4-2.2 4.2-1 17 7.1 7.2 4.5 15 9.3 17.3 10.7 4.3 2.6 4.5 3.1 4.3 10.6 0 .3.7 2.2 1.5 4.2 2.9 6.9 9.3 11.9 16.5 12.9 16.4 2.3 29-16.2 20.8-30.7-5.5-9.8-19.7-13.6-28.6-7.6l-3.6 2.3-18.6-11.5c-10.2-6.3-18.6-11.6-18.8-11.6-.1-.1-.4-2-.6-4.2-.6-6-3.4-11.2-7.9-14.4-3.4-2.5-5.6-3.3-12.7-4.4-.8-.1-3.4.3-5.7 1zM743.6 843.7c-.1.1-3.1.3-6.6.4-7.7.2-12.2 2.5-14.1 7.1-1 2.4-1.3 11.6-1.4 37.7 0 19 .3 36.3.6 38.5.4 2.4 1.9 5 3.8 7l3.1 3.1 57.3.2c62.1.2 61.8.2 65.4-5.3 1.7-2.6 1.8-5.7 1.8-38.9 0-19.8-.4-37.8-.9-40-1.1-5.1-4-8.3-8-9-2.8-.5-100.5-1.3-101-.8zm97.5 29.5V914l-.1 11H734.4v-33.3c.1-18.2.4-33.7.8-34.2.4-.7 18.5-1 53.2-1H841l.1 16.7z"/><path d="M766 871.4c0 .7 3.7 10.1 5.5 14.1.8 1.6 2.9 6.5 4.7 10.8 1.8 4.2 3.8 7.7 4.3 7.7.6 0 1-.3 1.1-.8.2-2.7 1.7-7.2 2.4-7.2.5 0 3.7 2.7 7 6s6.4 6 6.8 6c.4 0 1.9-1.1 3.4-2.5 2.9-2.7 2.8-4.9-.2-6.5-1-.5-3.7-3.2-6-5.9l-4.1-5 4.5-1.2c2.5-.6 4.6-1.5 4.6-1.9 0-.4-6.4-3.5-14.2-6.8-14.2-6-19.8-7.9-19.8-6.8zM525.3 851c-26.8.6-26.7.5-28.2 7.1-.4 1.9-.6 7.1-.5 11.6.2 4.5 0 8.4-.4 8.7-.4.2-3.9.5-7.7.7-8 .2-11.7 2.1-13.3 6.8-.9 2.6-1.7 33.5-1.3 50.5.2 6.6 2.3 12.1 5.5 13.9 1.1.6 5.5 1.4 9.6 1.7l7.4.5.2 8.4c.1 8 .3 8.6 3.1 11.1l3 2.7 35.2-.1 35.3-.1 2.4-2.8c2.1-2.5 2.4-3.8 2.4-11.3V952h7c8.2 0 11-1.1 13.6-5.3 1.8-3 1.9-5.4 1.9-31.2 0-25.8-.1-28.2-1.9-31.2-2.6-4.2-5.8-5.5-13.8-5.4H578v-10.4c0-11.1-.9-14.6-4.4-16.4-2.7-1.4-17.7-1.7-48.3-1.1zm43.7 22.5V887l-6.2.1c-18.8.2-56-.1-56.7-.5-.5-.4-.7-22.5-.2-25.9 0-.4 14.3-.7 31.6-.7H569v13.5zm-77.4 15.3c2.6 1.6 1.7 8.5-1.3 9.6-2.6 1-6.3-2.1-6.3-5.2 0-1.6.5-3.3 1.2-4 1.3-1.3 4.7-1.6 6.4-.4zM568 925c1.1.7 1.2 4.5 1.1 28.7L569 965h-31.5c-24.5 0-31.5-.3-31.6-1.3-.1-1.1-.1-27.5 0-36l.1-3.8 30.5.2c16.7.1 30.9.5 31.5.9z"/><path d="M517.6 932c-3.9.7-5.3 3.1-3.8 6.4 1.1 2.5 1.4 2.6 11.4 2.7 27.2.1 33.2-.2 35-1.7 1.7-1.6 1.6-5-.1-6.7-1.1-1.1-37.3-1.7-42.5-.7zM514.9 949.9c-2.8 2.3-2 6.6 1.4 7.5 1.3.3 11.2.5 21.9.5 15.8 0 20-.3 21.7-1.6 1.6-1 2-2.1 1.5-3.6-1.2-4.2-2.6-4.5-23.9-4.5-18.1-.1-20.7.1-22.6 1.7zM1424.2 874.2c-.7.7-1.2 2.4-1.2 4 0 4.1-7.4 8.9-12.4 8.1-3.4-.5-3.7-.4-5.1 3-2.2 5.2-1.9 6.5 1.9 8.8 4.6 2.7 6.4 8.8 4.2 14.1-1.6 3.6-1.5 3.7 1.5 6.2 3.7 3.1 5.8 3.3 8.8.5 3.4-3.2 10.4-3.3 14-.3 3.7 3.1 5.4 3 9.2-.4l3.2-2.8-1.8-3.3c-2.4-4.7-.4-11.6 4-13.8 4.2-2.2 4.5-3 2.8-8l-1.5-4.5-4.3.5c-3.2.4-4.9.1-6.3-1.1-1.1-.9-3-2.5-4.1-3.4-1.2-1.1-2.1-3-2.1-4.7 0-1.7-.6-3.1-1.6-3.5-2.6-1-7.9-.7-9.2.6zm8.1 17.9c3 1.4 4.8 4.9 4 8-1.4 5.4-7.2 7.3-11.6 3.9-3.7-2.9-3.8-8-.1-10.9 3-2.4 4.3-2.6 7.7-1zM614.6 875.3c-2 1.5-3 7.4-2.1 12.5.7 3.8 3.8 6.1 9.1 6.7 10.4 1.1 23.1 4.8 32.4 9.5 17 8.6 31.7 23 40.9 40.2 5.9 10.9 8.6 19.2 10.6 32.3.9 6.1 2.4 9.1 5.1 10.4 3.9 1.8 9.8 1.3 12.7-.9 2.4-1.9 2.5-2.5 2.2-9.3-.3-3.9-.6-8.1-.9-9.2-.2-1.1-.9-4.1-1.5-6.6-6.1-26.6-24.4-52.4-48.4-68.3-20-13.1-52.9-22.6-60.1-17.3zM386.4 893.5c-17.2 4-25.3 20.1-18 36 1.8 3.8 8.6 11.4 29.7 32.6 15.1 15.2 28.8 28.3 30.4 29.1 8.2 3.9 18.6.9 23.1-6.7 6.3-10.8 4-15.6-18.7-38.6-9.6-9.7-18.4-18.2-19.6-18.8-3.3-1.7-6-1.3-7.7 1.1-2.6 3.7-1.9 6.2 3.2 11 9.9 9.5 29.9 30.4 31.6 33 3.3 5.1-1 10-6.4 7.3-1.4-.7-14.3-13.3-28.7-27.9-27.8-28.2-28.5-29-26.8-36.6 1.4-6.4 9.7-10.7 17.1-8.9 3.8 1 8 4.8 38.8 36 19 19.1 35.2 36.2 36.1 37.8 6.8 13.2-1.9 29.6-16.7 31.6-10.1 1.4-10.7.9-40.8-29.1-15.1-15-27.8-27.6-28.2-28-.4-.3-2.1-.3-3.8.1-3.6.8-5.4 4.2-4.1 7.7 1.5 3.8 54.1 56.4 58.6 58.6 14.6 7.1 31.4 3.6 41.5-8.6 2.7-3.3 6.4-9.8 5.9-10.4-.1-.2.3-1.3 1-2.6 2.9-5.4 1-21.3-3.3-27.3-.8-1.2-17.5-18.4-37.1-38.4-33.2-33.8-36.1-36.5-41.3-38.4-7.7-2.8-9.8-3-15.8-1.6zM898.7 908.6c-.1.1-2.4.4-5.2.5-6.9.4-18.1 4.8-24.7 9.7-10.1 7.4-15.4 16.3-16.2 26.9-.6 8.7 1 14.6 6.1 22l4.5 6.6-5.1 10.7c-2.8 5.9-5.1 11.2-5.1 11.8 0 .6 5.5-2.1 12.2-6l12.2-7.1 4.5 1.3c11.7 3.2 22.8 3.9 32.3 1.9 12.4-2.7 26.9-12.7 31.7-22 2.3-4.3 4.8-14 4.5-17.5-.7-9.4-4.4-17.4-11.5-24.4-6.8-6.7-18-12.4-26.9-13.6-4-.5-13-1.1-13.3-.8zm-17.2 34.8c1.1.8 1.8 2.6 1.8 4.6 0 5.5-6.1 8.1-9.7 4.1-2.5-2.8-2.6-5.3-.3-7.9 2.3-2.5 5.4-2.8 8.2-.8zm24.4.7c1.9 2.1 2 2.8.7 6.6-1.4 4.2-8.8 4.2-10.2 0-1.4-4-1.3-4.8.7-6.8 2.5-2.5 6.3-2.4 8.8.2zm24.4 1.1c1.6 3.4 1.3 5.6-1.1 7.5-3.6 2.9-10.2-.1-10.2-4.7 0-2.9 3.5-6 6.9-6 2.2 0 3.2.7 4.4 3.2z"/><path d="M614.4 916.5c-1.9 1.9-2.4 3.5-2.4 7.3 0 7.3 2.3 9.7 11.2 11.7 21.1 4.8 38 22 41.8 42.5 1.4 7.5 4.3 10 11.4 10 10.3 0 11.7-6.5 5.3-24.7-7.6-22-26.4-39.7-49.2-46.4-11.1-3.2-15.2-3.3-18.1-.4zM1349.5 918.6c-4.9 2.5-6.3 4.4-8 10l-1.6 5.4h-9.5c-9.2 0-9.7.1-12.5 2.9-1.9 2-2.9 4-2.9 6 0 4.7 12.3 49.3 14.6 52.8 3 4.8 4.3 4.9 46.4 4.8 43.3-.1 43.8-.2 47.2-6 2-3.6 12.8-49.1 13.1-55.3.1-3.4-.4-4.8-2.5-6.9-2.6-2.6-3-2.6-16.5-2.8-7.6 0-14.3-.4-15-.8-.6-.4-.9-1.6-.6-2.6.3-1.2-.6-3.1-2.5-5.2l-3-3.4-21.9-.2c-18-.2-22.4 0-24.8 1.3zm42.2 13c-.3 2.4-.9 4.8-1.2 5.3-1.1 1.9 1.9 2.2 19.1 2.2 16.1 0 17.5.1 17.1 1.7-.8 2.7-2.3 9.4-6.8 29.2-2.3 10.3-4.8 19-5.6 19.7-1.7 1.4-76.3 1.4-76.3 0 0-.4.4-2.7 1-5 .5-2.3 3.5-15.7 6.6-29.7 3-14 6-26 6.6-26.7.8-1 5.8-1.3 20.5-1.3l19.5.1-.5 4.5zM1464 930.8l-3.1 2.8 3 3.8c9.3 11.7 9.7 29.5 1 41.5-1.6 2.3-2.9 4.5-2.9 5 0 1.2 4.8 6.1 5.9 6.1 3 0 9.8-11.6 12-20.4 2.3-9.2 1.2-21.5-2.5-29-2.8-5.5-7.9-12.6-9.1-12.6-.6 0-2.6 1.3-4.3 2.8z"/><path d="M1451.8 943c-3.4 3.3-3.3 3.2-.7 8.8 2.6 5.2 2.2 12-.9 16.1l-2 2.8 3.3 3.6 3.4 3.7 2.4-3c6.2-7.3 7.2-20 2.4-28.3-3.8-6.4-4.7-6.9-7.9-3.7zM774.8 942.8l-3.7.3-.3 8.6-.3 8.6-10.9 2.9c-6 1.5-11.1 3-11.3 3.2-.7.7-.6 7.6.1 8.4 1.1 1 75.7 1.1 77.8 0 1.9-.9 2.3-7.4.5-8.5-.6-.3-5.8-1.8-11.6-3.3l-10.6-2.6-.2-8.4c-.2-4.6-.6-8.6-.8-8.9-.6-.6-22.7-.8-28.7-.3zM975.5 943.2c-5.1 1.1-9.5 4.2-12.6 8.6-3.7 5.4-3.4 14.4.5 20.1 7.6 10.9 23.5 11 31 .2 5.1-7.3 4.4-15.8-1.7-22.7-5-5.8-10.5-7.8-17.2-6.2zM1274.5 950.5c-12.2 3.4-22.7 11.7-29.1 23.1-3.4 6.1-6.8 17.6-5.6 18.9.3.3 2.2.5 4.3.5 3.6 0 3.7-.1 4.4-4.3 1.6-9.7 9.5-20.7 18.7-26 9.1-5.3 20.1-6.8 31.4-4.1 3.2.7 6.1 1.1 6.5.9.4-.3 1.2-1.8 1.7-3.5 1.3-3.7 1-3.9-8.2-5.6-8.8-1.7-17.5-1.6-24.1.1zM622.4 958.8c-1.2.4-3.5 1.8-5.1 3.2-10 8.6-4.8 24.3 8.5 25.6 6 .6 10.9-1.9 14-7.2 4-6.8 1.6-16.6-4.8-19.9-3.4-1.8-9.8-2.6-12.6-1.7zM1196.7 968.6c-2.3 1.3-2.8 2-2.3 4 .9 3.2-1.8 5.9-5.8 5.9-2.4 0-3.4.6-4.5 2.9-1.3 2.7-1.2 3.1.6 4.6 2.8 2.2 3.5 7.8 1.2 8.5-2.4.8-3 3.1-1.7 6.1.9 1.9 1.8 2.4 3.9 2.2 3.9-.4 7.1 2.8 6.4 6.3-.5 2.1-.2 3 1.4 3.8 3.1 1.7 5.9 1.3 6.6-.9.5-1.5 1.5-2 4-2s3.5.5 4 2c.7 2.2 3.5 2.6 6.6 1 1.3-.8 1.9-2 1.7-3.9-.3-3.9 1.6-5.9 5.9-6.3 3-.2 3.8-.8 4.6-3.2.9-2.6.7-3.2-1.2-4.4-2.8-1.9-2.8-6.6 0-8.6 1.6-1.1 1.9-2 1.4-3.8-1.2-3.7-2.5-4.8-5.2-4.2-2.9.8-5.8-2.6-5.8-6.6 0-4.4-6.7-6.1-8-2.1-.8 2.5-6.7 2.2-8-.3-1.3-2.6-2.5-2.8-5.8-1z"/><path d="M1280.5 968.4c-9 2.8-14.9 7.8-18.4 15.6-2.6 5.6-2.7 9-.3 9.1.9.1 2.7.3 3.8.4 1.7.2 2.4-.6 3.4-3.9 2.9-10 13.5-15.6 24.7-13.1 2.9.7 3.4.5 4.3-1.9 1.5-4 1.2-5.4-1.1-6.1-3.9-1.3-12.4-1.3-16.4-.1zM1018.2 974.6c-1.4 1-2.2 2.6-2.2 4.4 0 2.4 2.5 5.4 14.5 17.4 8 8.1 14.5 14.9 14.6 15.4 0 .4.2 12.5.2 26.9.1 14.4.4 26.4.7 26.7 1.1 1 10.1 1.2 10.9.2.5-.6.8-12.6.6-26.6-.1-15.4.2-26.3.8-27.5.6-1.1 7.3-8.3 14.9-16 14.5-14.6 15.6-16.7 11.9-20.4-1.9-1.9-3.7-2-33.3-2-26.7-.1-31.7.2-33.6 1.5zm46.6 11.5c-.4.9-7.6 8.6-11.1 11.7l-2.5 2.4-6.6-6.6c-3.6-3.6-6.6-6.9-6.6-7.5 0-.5 5.9-.8 13.5-.8 7.5 0 13.4.4 13.3.8zM1150.8 984c-.3 1.2-.2 72.1.1 79.7.1 2.2.4 2.3 10 2.3h10l-.1-41c-.1-28.4-.5-41.3-1.2-41.8-.6-.3-5-.7-9.8-.7-7-.1-8.7.2-9 1.5zM964.3 986.6c-12.8 3.3-22.3 11-27.7 22.4-2.8 5.8-3.1 7.6-3.3 16.6-.3 13.8 1 17.5 10.8 30.7 6.8 9.2 10.6 16.7 11.3 22.5 1 8.7 1.9 9.1 22.3 8.8 15.5-.1 15.8-.3 17.4-9.1 1.3-7.2 5.4-15.2 11.5-22.5 8.5-10.2 11.4-18.5 10.7-30.5-.4-8.3-1.6-12.3-5.4-19.1-5.3-9.4-16.5-17.9-26.4-20-6-1.2-16.1-1.2-21.2.2zm21.3 10c8.6 2.9 14.9 8.6 19.2 17.4 2.3 4.7 2.7 6.8 2.7 14.5 0 10.1-1.4 13.6-8.2 21.3-5.8 6.6-11.1 15.8-12.4 21.9-.7 3-2 5.8-2.8 6.2-1.7.8-17.7.9-18.4.1-.2-.3-1.4-3.7-2.6-7.5-1.5-5.1-4.1-9.8-9.5-17.3-8.7-12.2-10.7-16.5-11.2-24.9-.8-15 8-27.1 23.1-31.9 5.6-1.8 14.3-1.7 20.1.2z"/><path d="M966.7 1004.4c-6.1 2.2-10.3 6.2-13.6 12.7-3.2 6.4-3.8 10.9-2.1 15.4 1.2 3 3 2.5 3-1s5.4-13.1 9.7-17c4.2-3.9 10.9-7.5 13.9-7.5 1 0 2.6-.5 3.4-1 4.2-2.8-7.3-4-14.3-1.6zM1285.8 985.7c-3.2.8-5.5 7.5-5.2 15.5.1 7.2 0 7.5-2.7 9.4-6.1 4-5.9 2.8-5.6 65.1.2 52.7.4 57 2 59.5 3.8 5.6 5.4 5.8 41.9 5.8 36.7 0 37.7-.2 42.2-6.3 2.2-3 2.3-6.7 1.2-101.4-.3-25.7.1-25.4-30.9-25.3-11.1.1-22.2.1-24.8.1l-4.5-.1.3-5.8c.4-8.1-.4-11.6-3.2-14.6-2.3-2.5-5.9-3.2-10.7-1.9zm59.2 56.3v19h-57.7v-38h57.7v19zm-43.2 34.5c0 3.6-.3 6.7-.7 6.9-.3.2-3.6.6-7.1.7l-6.5.3-.2-7.2-.1-7.2h14.5l.1 6.5zm21.7.2v6.8l-5 .5c-9.3.9-9.5.7-9.5-7.1v-6.9h14.5v6.7zm21.7-5.1c.2.9.1 4 0 6.9-.4 5.3-.4 5.3-4 5.7-2.1.1-5.2.2-6.9 0l-3.3-.3V1070h6.9c5.6 0 7 .3 7.3 1.6zm-43.5 27.5l.1 6.9h-14.6l.1-6.9v-7l3.6-.3c2-.2 5.2-.1 7.2 0l3.6.4v6.9zm21.4-6.2c0 .3.2 3.4.3 6.8l.2 6.3H1309v-13.9l4.3-.3c4.9-.4 9.7.2 9.8 1.1zm21.4-.7c.4.4.7 6.3.6 10.5l-.1 3.3h-14v-6.8c0-3.8.2-7.1.4-7.3.5-.5 12.6-.2 13.1.3zm-42.9 28.6l.1 7.2h-14.3l-.1-6.9c-.2-7.9-.4-7.7 8.7-7.6h5.5l.1 7.3zm21.5-5.3c.1 1.1.2 4.2.2 7v5l-7.1.3-7.2.3v-7c0-4.5.4-7.1 1.2-7.3.6-.2 3.8-.4 7-.4 5.1.1 5.8.3 5.9 2.1zm21.9 3c.9 9.3.7 9.5-7.1 9.5h-6.9v-6.8c0-3.8.2-7.1.4-7.3.2-.2 3.3-.4 6.8-.4h6.3l.5 5zM511.8 986.7c-.9.2-2 1.3-2.3 2.3-.7 2.1-.8 19-.5 43.3.2 8.6.1 15.9-.1 16.2-.3.2-3.3.5-6.7.6-11.8.4-11 3.5 4.6 17.1 6.4 5.7 11.9 10.5 12.2 10.8.3.3 3.3 3.1 6.6 6.3 3.3 3.1 7.1 5.9 8.4 6.2 2.8.5 6.6-2.1 16.5-11.6 3.9-3.6 10.9-10.1 15.7-14.3 8-7.1 11.2-11.6 9.4-13.4-.4-.3-3.8-.8-7.6-1l-7-.4.1-27.4c0-32.9-.2-34-4.4-34.7-3.8-.6-42.5-.6-44.9 0zM1457.5 994.4c-2 2-3.5 2.4-11.5 2.8l-9.2.4-9.7 10c-11.7 12.3-13.2 13.3-19.4 13-4.1-.1-4.9-.5-6.2-2.9-4.6-8.9-16.1-10-22.1-2.1-6.3 8.2-.6 20.2 9.9 20.6 4.6.2 9.8-3 11.7-7 1.7-3.6.6-3.4 20.2-3.4 6.4.1 12.5.5 13.5 1.1 1 .5 5.7 5.1 10.3 10.1 4.7 5.1 9.8 9.9 11.5 10.7 1.8 1 5.8 1.6 10.5 1.7 7.3.1 7.5.2 7.8 2.7.3 2.6.5 2.6 7.7 2.6 4.5 0 7.5-.4 7.8-1.1.2-.6.3-4 .2-7.6l-.1-6.5-7.6-.3c-7.3-.3-7.7-.2-8 2-.3 2.1-.8 2.3-7.9 2.6l-7.6.3-8.6-8.8c-4.7-4.8-8.4-8.9-8.2-9.1.6-.6 58.2-.5 59.2.1.6.4.8 1.9.5 3.3l-.5 2.7 7.4-4.1c4-2.2 7.5-4.4 7.6-4.9.3-.8-10.8-7.4-13.5-8.1-1-.3-1.3.5-1 2.5l.3 2.8h-39.7c-21.9.1-39.8-.2-39.8-.5 0-.8 15.7-17 16.7-17.1.4-.1 4.1-.3 8.2-.4 6.8-.2 7.6 0 9.6 2.3 4.7 5.5 14.5.9 13.1-6.2-1.2-6.4-8.5-8.7-13.1-4.2zM815.2 1002.1c-8.9 4.4-18.2 15.1-21.2 24.3-1.5 4.7-1.6 14.7-.1 20.2 2.6 9.5 12.9 21.1 22.5 25.2 4.4 2 4.3.7-.5-4.5-9-9.7-13.1-20-12.8-32.2.3-11.2 4.1-19.6 13.7-30.3 1.9-2.1 3.3-4.1 3-4.3-.2-.2-2.3.5-4.6 1.6zM887.1 1003.7c1.3 1.5 3 3.3 3.7 4.1 5.5 6.1 10.7 17.7 11.5 25.9 1 10.3-3.8 23-12.3 32.7-2.8 3.2-4.9 6-4.7 6.3 1.1 1 10.5-4.8 15.3-9.3 13.5-12.9 15.7-32 5.4-46.8-5.2-7.7-15.2-15.6-19.6-15.6-1.5 0-1.4.4.7 2.7zM1123.1 1003.9c-.9.6-1.3 56.6-.4 60.2.5 1.7 1.6 1.9 9.9 1.9 9.1 0 9.4-.1 9.5-2.3 0-2.1 0-53.9-.1-58.2 0-1.9-.7-2.1-9-2.1-4.9 0-9.3.2-9.9.5zM642 1005.5c-7 1.9-9.2 3-14.5 7.2-7.8 6.2-11.8 15.7-11 26.4 1.7 23.4 23 37 45 28.8 21.3-7.9 26.6-35.9 10.4-54.3-6.5-7.5-19.6-11-29.9-8.1zm12.8 20.9c6.2 3.4 8.4 13.9 4 18.7-6.6 7.1-16.5 5.9-21-2.6-1.5-2.7-1.1-9.2.7-11.8 3.4-4.9 11.5-7 16.3-4.3zM716 1005.4c-9.8 2.1-17.5 7.2-21.6 14.2-13.4 22.9 3.4 52.5 28.9 50.8 21.1-1.5 35.3-19.8 30.7-39.5-4.5-19.1-19.7-29.3-38-25.5zm11.3 21c4.2 1.7 7.6 7.9 7.1 12.6-.9 7.4-7.9 12-15.3 10-9.3-2.5-12.4-14-5.5-20.2 4.2-3.7 8.7-4.5 13.7-2.4z"/><path d="M821 1020c-12.2 10.7-9.8 29.6 4.6 36.5 2 .9 3.8 1.4 4.1 1.2.2-.3-.9-2.4-2.6-4.7-5.5-7.6-6.8-15.5-4-24.4.9-3.2 2.9-7.1 4.3-8.5 1.4-1.5 2.6-3 2.6-3.4 0-1.8-5.4.1-9 3.3zM875 1016.5c0 .3.9 1.6 2 2.7 1.1 1.2 3 4.2 4.1 6.6 4 8.2 1.9 22.3-4.3 28.9-5.1 5.5 2.7 3.3 8.4-2.3 10.1-9.7 9.2-24.6-2.1-33.1-3.7-2.9-8.1-4.4-8.1-2.8z"/><path d="M847.4 1021c-5.9 1.8-11.4 9.4-11.4 15.7.1 3.9 3.3 10.7 6 12.6 2.9 2 2.9 6.6 0 20.5-4.9 24.1-15.4 47.5-30.5 67.9-1.8 2.5 2.5 3.3 12.2 2.4.6 0 2.2-1.8 3.4-3.9 5.5-8.8 14.5-13.4 26.2-13.4 10.7.1 20.9 5.8 25.3 14.3 1.5 3.1 1.7 3.1 7.9 3.2 9.4 0 9.2.6 2.6-9.1-10.4-15.3-20-36.5-24.7-54.5-2.2-8.6-2.3-9.3-3.1-17.4l-.6-7.2 3.6-4c3.9-4.3 5.3-9.1 4.2-14.3-.8-3.9-3.8-8.6-6.9-11-2.8-2.1-10.1-3-14.2-1.8zm13.7 85c1 1.9 1.8 3.9 1.9 4.3 0 .5-3.4.6-7.6.4-4.2-.3-8.9-.1-10.5.3-2.2.7-2.9.5-2.9-.5 0-.8.5-1.7 1-2 .6-.3 1-1.5 1-2.5 0-2.7 2.2-3.6 9.1-3.5 5.9 0 6.1.1 8 3.5zM1217.3 1021.8c-1.9.3-2.2.9-2.1 3.8.2 4.1-.1 4.4-7.1 7.3l-5.4 2.3-2.4-2.6c-1.3-1.4-2.7-2.6-3.1-2.6-.8 0-7.3 5.8-9.1 8.2-1.1 1.5-.9 2.2 1.4 5.2l2.7 3.6-2.3 5.5c-2.3 5.5-2.3 5.5-6.6 5.5h-4.3v15.9l4.7.3 4.6.3 1.9 5.4c1.7 5.2 1.7 5.6 0 7.9-.9 1.4-2.1 3.1-2.7 3.9-.8 1.1.2 2.5 3.9 5.9 2.8 2.4 5.2 4.4 5.5 4.4.4 0 1.8-1.1 3.3-2.5 3.3-3 3.4-3 8.6-.5 2.2 1.1 4.6 2 5.2 2 .9 0 1.3 2.2 1.3 7.2 0 1.6 1 1.8 7.8 1.8h7.9v-4.5c0-2.5.1-4.5.3-4.5.1 0 2.7-.9 5.7-1.9l5.5-2 3.2 2.5c1.7 1.3 3.4 2.4 3.6 2.4.8 0 9.7-8.7 9.7-9.5 0-.4-1.1-2-2.5-3.6l-2.4-3 2-5.1c2.7-7 2.5-6.8 7-6.8h3.9l.1-5.5c.1-3 .2-6.5.2-7.8.1-1.9-.4-2.2-4.3-2.5l-4.5-.3-2.3-6.2-2.3-6.2 2.6-2.3c1.5-1.2 2.5-2.6 2.3-3.1-.5-1.4-8.8-10.1-9.6-10.1-.4 0-2 1.1-3.6 2.5s-3 2.5-3.1 2.5c-.2 0-2.8-1.1-5.9-2.5-5.5-2.4-5.6-2.6-5.6-6.5 0-3.1-.4-4-1.7-4.1-1 0-3.6-.1-5.8-.2-2.2-.1-5-.1-6.2.1zm15.8 20c1.4.5 4 2.2 5.8 3.8 11.8 9.9 12.9 28.5 2.4 39-7.3 7.3-21.8 9.3-30.5 4.1-15.4-9-17.8-31.3-4.6-42 7.1-5.7 19.3-7.9 26.9-4.9zM1094.8 1025.1c-1.1.7-1.9 35.2-1 39.1.4 1.6 1.7 1.8 10.3 1.8h9.8l.3-19.6c.2-10.8 0-20.1-.4-20.6-.7-1.2-17.3-1.7-19-.7zM1515.7 1042.7c-.2.4-.7 2-1 3.4-.9 3.4-5.3 6.3-9.3 6.1-2.8-.2-3.3.2-4.3 2.9-1.2 3.5-.4 5.4 2.9 6.4 2.2.7 3.6 7.4 2.2 10.2-1.3 2.5-.5 4.1 2.8 5.8 2.5 1.3 2.9 1.2 4.8-.5 2.9-2.7 9.2-2.7 11.5 0 1.5 1.7 2.1 1.9 3.9.9 4.4-2.3 5-3.6 3.5-6.5-1.6-3.1-.2-9.1 2.5-10 3.1-.9 3.9-2.9 2.7-6.3-1-2.8-1.5-3.2-4.3-3-4.2.4-9.4-3.2-9.8-6.9-.3-2.3-.8-2.7-4-3-2-.2-3.8.1-4.1.5zm7.5 15c3.4 3 2.1 7.7-2.5 8.8-3.2.8-6.7-1.6-6.7-4.7 0-5.1 5.4-7.6 9.2-4.1zM1067.2 1046.1c-1.7.7-1.9 1.8-2 9.8 0 5.6.4 9.4 1.1 9.8 1.3.8 17.6.5 18.9-.3 1.4-.9 1-19.4-.4-19.5-5.2-.5-16-.4-17.6.2zM1427.3 1053.2c-6.4 1-20.1 5.9-26.1 9.4-5.9 3.5-9 7-9.8 11.4-.4 1.9-.8 18.1-.8 36-.1 36.7.2 38.5 6.8 41.7l3.5 1.6-.1 21.4c-.1 13.2.3 21.8.9 22.4 1.1 1.1 78.3 1.6 80 .6.6-.4 1.1-9.8 1.2-22.4.1-15.4.5-21.9 1.3-22.2.6-.2 2.7-1.9 4.7-3.7l3.6-3.2.3-35.6c.3-39.3.2-40.2-5.9-44.9-5.3-3.9-14.7-8.4-22.9-10.7-8.1-2.4-26.8-3.3-36.7-1.8zm42.2 115.8v15.5h-55v-14c0-7.7.1-14.8.3-15.7.4-1.6 2.7-1.7 27.6-1.5l27.1.2v15.5z"/><path d="M1422.7 1163.8c-1.5.3-1.7 1.2-1.5 5.5l.3 5.2h15l.3-5.3c.2-2.8-.1-5.3-.5-5.3-2.5-.4-12.1-.4-13.6-.1zM1448.1 1163.8c-.6.2-1.1 2.8-1.1 5.8v5.5l7.3-.3 7.2-.3v-11h-6.2c-3.4 0-6.7.1-7.2.3zM468.3 1069.7c-1 .4-1.3 4.8-1.3 17.6 0 14.9.3 17.8 2 21.5 3.3 7.3 1.3 7 65.6 7.3 39 .1 57.7-.2 59.4-.9 7.9-3.5 9-7 9-28.2v-17h-12v16.5c0 14.8-.2 16.6-1.7 17.3-2 .7-103.2.8-107.3 0l-2.5-.5-.5-16.8-.5-16.9-4.5-.1c-2.5-.1-5.1 0-5.7.2zM1026.7 1072.5c-2.8.6-6.6 1.8-8.3 2.7-4.9 2.7-10.1 9.2-11.8 14.9-4.1 13.7.6 25.9 12.5 32.4 4.6 2.5 6.5 2.9 14.8 3.1 5.3.1 10.5.3 11.7.3 1.1.1 5.9 3.1 10.5 6.7s9.7 7.3 11.3 8.1c4.1 2.2 5.4.3 5.7-7.9l.2-6.7 3.6-1.2c6.7-2.1 13-6.2 15.6-9.9 11-15.9 2.9-38.3-15.2-42.1-7.4-1.5-43.7-1.8-50.6-.4zm53.8 7.2c17.8 9.5 14.1 36.8-5.4 39.9-5.9.9-7.1 2.2-7.4 7.6-.1 2.6-.5 5-.9 5.4-.4.4-4-1.8-8-4.8-10.1-7.6-9.1-7.2-20.8-7.4-11.6-.2-16.5-1.6-21.3-6.2-7.1-6.8-8.2-18.9-2.4-27.7 2.1-3.3 8.5-7.9 12.2-8.8 1.1-.3 12.8-.5 26-.4 22.5.2 24.3.3 28 2.4zM733.6 1073.7c-.3.3-25.3.6-55.5.7l-55 .1-2.3 2.3c-2.3 2.2-2.3 2.5-2.3 28.5 0 33.2.4 39.4 2.4 41.8 1.4 1.6 3.5 2 15.6 2.6 34.6 1.8 113 .3 114.6-2.1.5-.7.7-66.7.3-68.4-.4-1.2-1.9-2.9-3.5-3.8-2.8-1.4-13.3-2.6-14.3-1.7zm-9.9 15.8c2.8 1.8 3.5 6.8 3.6 22.8.1 15.9-1 18.2-8.5 19.3-7.5 1.1-68.1.6-71.2-.6-3.5-1.3-4.1-4.1-4.1-22.2 0-14.6.1-15.9 2.1-17.8 3.1-3.1 8.5-3.5 43.8-3.2 25.6.3 32.5.6 34.3 1.7z"/><path d="M649.6 1093.7c-.9.9-.7 32.3.2 32.4.4.1 16.6.2 36 .3l35.2.1v-3.5c.1-1.9.2-9.1.3-16l.2-12.4-3.5-.7c-4.1-.9-67.6-1-68.4-.2zM1112.5 1075c-.3.5.4 1.5 1.4 2.3 1.1.7 4.8 3.9 8.1 7s6.5 5.7 7.1 5.7c1.3 0 16.9-13.9 16.9-15 0-1-32.9-1-33.5 0zM789 1079.3c-11.3 6.5-28.2 17.5-30.5 19.8-1.6 1.6-2 3.4-2.2 10.3-.1 4.7.2 9.7.6 11.3.9 3.5 6.9 7.6 21.6 14.8 12.5 6.2 19.9 8.5 21.6 6.8 2.3-2.3 2.8-9.8 2.5-36.5-.3-34.7-.1-34.3-13.6-26.5zM1109 1088c0 6.6.2 12 .5 12s3.3-2.6 6.7-5.8l6.1-5.9-3-2.9c-1.7-1.6-4.7-4.4-6.7-6.2l-3.6-3.2v12zM1142.6 1082.3l-6.8 6.1 6.9 6.2c4.6 4.3 7 5.8 7.3 4.9.6-1.7.5-22.4-.1-23-.3-.2-3.5 2.4-7.3 5.8zM1539.2 1084.2l-4 4.2 3.8 5c4 5.3 7.3 12 8.4 17.1.3 1.7.9 4.1 1.2 5.5 2.2 10.3-1.3 23.2-9.2 34.1-1.9 2.6-3.4 5.1-3.4 5.7 0 1.7 6.6 8.2 8.3 8.2 4.2 0 14.5-18 16.5-29 .3-1.9.6-8.2.7-14 0-10.8-1.3-17.4-4.8-24.5-3-6.2-10.6-16.5-12.2-16.5-.7 0-3.1 1.9-5.3 4.2zM909.1 1082.7c-6.2 1.5-12.3 4.6-17.4 8.6l-3.9 3 2.6 2.5 2.5 2.6 3.8-3c6.9-5.5 13.8-7.8 23.4-7.7 9.3 0 16.1 2.3 23.4 7.9 3.4 2.6 3.6 2.6 5.5.9 3-2.7 2.5-3.9-3.2-7.9-10.5-7.1-25.1-9.9-36.7-6.9zM962 1090.1c-4.9 1-6.9 3.7-5.9 7.6.6 1.9 1.8 3.5 3.2 3.9 3.3 1.1 27.7 1.2 31 .1 5.3-1.8 5.5-9.7.3-11.3-2.8-1-24.4-1.1-28.6-.3zM1117.2 1096.9l-7.4 6.7h19.1c10.5-.1 19.1-.4 19.1-.8 0-.5-.3-.8-.7-.8-.5-.1-3.4-2.5-6.7-5.5-3.2-3-6.2-5.5-6.7-5.5-.4 0-2 .5-3.3 1.2-2.1.9-2.9.8-4.3-.5-1.7-1.4-2.3-1-9.1 5.2z"/><path d="M913.3 1095c-4 .9-11.1 4.5-14 7.2l-2.2 2.1 2.3 1.8c2.9 2.3 4 2.4 5.6.3 5.3-6.3 22.3-6.2 29.8.1l2.9 2.4 2.3-2.4c2.6-2.7 2.2-3.7-2.8-6.9-7-4.3-16.3-6.1-23.9-4.6zM1524 1099.3c-6.5 5.9-6.5 5.9-2.9 12.2 4.4 7.8 4 16.3-1 23.4-1.2 1.6-2.1 3.2-2.1 3.5 0 .3 1.8 2.4 4 4.6 5.1 5.2 6.7 4.5 11.5-5.4 3-6.2 3.5-8.3 3.5-14.2 0-3.8-.5-8.9-1.1-11.3-.9-4.1-7.3-15.1-8.7-15.1-.4 0-1.8 1.1-3.2 2.3zM963.2 1104.8c-1.3.2-2.8 1.4-3.4 2.7-1.7 3.8-.2 7.2 4.2 9.5 2.2 1.1 4 2.5 4 3s1.8 1.4 4 2c4.4 1.2 10.5-.6 11.6-3.5.3-.8 1.2-1.5 1.9-1.5s2.4-1 3.9-2.1c2.2-1.7 2.6-2.7 2.1-4.8-1.2-5-2.6-5.6-14.8-5.6-6.1 0-12.2.1-13.5.3z"/><path d="M914.6 1108.5c-2 .7-4.4 1.9-5.4 2.6-.9.7-1.9 1.5-2.1 1.6-.3.2.6 1.4 1.9 2.7 2.1 2.3 2.4 2.4 4.7.9 3.1-2 9.3-2 12.5.1 2.3 1.5 2.6 1.5 4.6-.7 2.1-2.2 2.1-2.4.5-3.9-4.5-3.9-11.1-5.2-16.7-3.3zM1145.5 1112.7c-13.2 2.3-18.4 15.6-12.6 32.3 4.8 13.6 18.6 36.6 32.5 54 7.5 9.4 7.5 9.1 1.9 8.4-2.6-.3-5.7-.7-6.8-.9-6.1-.7-13.9 3.9-16.5 9.7-3.5 7.8 0 22.7 8.6 36.3 4 6.3 6.9 8.9 9 8.1 1.4-.5 1.6-2.1 1.1-12.6-.6-14.9-.2-15.6 7.6-13.4 2.8.9 7.1 2.7 9.4 4 3.5 2 18.7 13.5 20.3 15.3.3.3 4.6 4 9.5 8.1 24.4 20.4 32.5 25.4 46.2 28.6 11.2 2.6 21.6.7 26.7-5 5.5-6.3 8.9-15.1 8.2-21.6-1.6-14.2-7.3-27.4-27.1-62-4.8-8.5-10-18.2-11.5-21.5-4.6-10.1-11.3-29.3-10.7-30.8.5-1.3 3.1-2 11.7-3.3 1.9-.3 4.5-1.2 5.8-2 3.4-2.2 1.4-4.7-7.1-8.9-8.8-4.3-16.5-6.5-23.5-6.5-4.6 0-5.7.4-9 3.4l-3.7 3.4v8.9c0 4.8.4 10.6.8 12.8.8 3.9.7 3.9-12-8.7-20.9-20.7-35.7-31.4-48.3-34.8-5.3-1.4-7.8-1.7-10.5-1.3zm11.4 7.9c.1.1 0 .7-.4 1.3-.7 1.3-4.5-.4-4.5-2 0-.9 3.7-.4 4.9.7zm-9.7 4.5c2.6 1.9 2.8 2.3 1.5 3.6-1.8 1.9-3.2 1.1-5.2-2.8-1.9-3.5-.6-3.8 3.7-.8zm24.8 3.8c0 .5-.9 1.6-2 2.6-1.8 1.6-2.3 1.7-4.5.5-3.3-1.7-4.3-5-2-6.6 1.4-1 2.3-.9 5.1.8 1.9 1.1 3.4 2.3 3.4 2.7zm-31.7 5.1c.7 2.9-1.1 3.6-2.2.8-.9-2.4-.5-4.2.8-3.3.5.2 1.1 1.4 1.4 2.5zm18.7.7c2.7 2.4 2.4 4.4-1 7.1l-2.8 2.2-2.1-2.6c-2.6-3.3-2.7-5.3-.3-7 2.3-1.8 3.8-1.7 6.2.3zm23.8 1.8l2.7 2.5-2.9 2.5c-3.6 3.1-4.3 3.1-7.3.3-2.8-2.7-2.9-3.2-.1-5.8 2.8-2.6 4.3-2.5 7.6.5zm57 1c3.4 1 6.5 2.1 6.7 2.5.2.4-2 1.3-4.9 2-6.7 1.6-8 3.7-6.6 10.9 2.3 12.1 10.3 30.2 24.5 55.1 14.1 24.8 22.4 42.4 24.1 51.2 1 5.5.5 10.8-1.6 15.5-1.6 3.7-2.2 4.3-3.8 3.4-2.4-1.3-16.5-16.1-18.8-19.7-1-1.6-2.1-3.1-2.5-3.4-1.6-1.3-8.6-13.2-11.9-20.4-8-17.2-18.9-54.7-21.6-74.1-.2-1.7-.6-4.1-.9-5.5-.3-1.4-.8-5.3-1-8.7-.3-5.4-.1-6.4 2-8.7 2.8-3 5.9-3 16.3-.1zm-92.4 7.1c2.1 3.1 1.8 5.2-1 7.1-2 1.3-2.3 1.1-3.8-2.2-2.9-6 1.3-10.4 4.8-4.9zm21.9 8.1c-4.6 3.9-5.6 4-7.7.8-2.3-3.5-2-4.7 2.2-7.8l3.6-2.8 2.9 3.3 2.9 3.3-3.9 3.2zm25-5.9l2.7 2.8-3.5 3.2c-1.9 1.8-3.8 3.2-4.2 3.2-1.2 0-5.3-4.3-5.3-5.6 0-1.2 5.5-6.4 6.9-6.4.4 0 1.9 1.3 3.4 2.8zm-37.2 11.3l2.2 3.1-3.2 2.9c-3.6 3.3-4.4 3.1-6.7-1.3-1.5-2.8-1.4-3.1.7-5.4 3-3.2 4.3-3 7 .7zm23.6-.9c1.3 1.2 2.3 2.7 2.3 3.3 0 1.3-3.2 4.4-7.1 6.9-2.7 1.7-2.7 1.7-4.9-1.9-1.2-2-2.1-3.7-1.9-3.8.2-.2 2.1-1.7 4.2-3.5s4.1-3.2 4.4-3.2c.4 0 1.7 1 3 2.2zm24.7.4c1.4 1.5 2.6 2.9 2.5 3.3 0 .3-1.9 2.1-4.2 3.9l-4.1 3.4-3-3.3-2.9-3.3 3.8-3.3c2.1-1.8 4.1-3.3 4.5-3.3.4 0 1.9 1.2 3.4 2.6zm-12.4 16c-1.4 2.2-6.1 6.1-8.3 7-.9.3-2.3-.7-3.8-2.7l-2.3-3.2 4.9-4.4 5-4.3 2.8 2.9c2.5 2.4 2.7 3.1 1.7 4.7zm22.5-5.1c1.4 1.4 2.5 3.1 2.5 3.8 0 1.2-6.3 6.7-7.6 6.7-1.3 0-5.4-4.3-5.4-5.6 0-.9 6.5-7.2 7.7-7.4.1 0 1.4 1.1 2.8 2.5zm-50.1 8.3c-3.9 3.8-5.2 3.7-7.6-.6l-1.8-3 3.7-3.2 3.7-3.2 2.7 3.3 2.8 3.4-3.5 3.3zm37 4.7c1.9 2.9 1.4 4.1-3.5 8.4-4.3 3.7-5.9 3.6-8.5-.5l-1.8-2.7 4.9-4.2c5.2-4.6 6.5-4.7 8.9-1zm-26.3.7c2.6 3.2 2.4 4.1-1.8 7.7l-3.8 3.2-2.9-3.2-2.9-3.3 3.6-3.3c4.3-3.9 5.3-4 7.8-1.1zm46.2 3.9c.2 3.7-.1 4.4-1.7 4.4-1 0-2.8-1.3-4-2.8l-2-2.8 2.9-2.4c3.6-2.8 4.5-2.2 4.8 3.6zm-10.6 6.1c1.3 1.2 2.3 2.9 2.3 3.9 0 1.6-7.9 8.9-9.7 8.9-.5 0-2-1.4-3.3-3.2l-2.3-3.1 4.9-4.3c2.7-2.4 5.1-4.3 5.3-4.4.3 0 1.5 1 2.8 2.2zm-25.6 2c2.6 3.2 2.4 4.2-1.7 7.7-4.1 3.6-4.9 3.6-7.8-.3l-2.1-2.7 3.9-3.5c4.5-4 5.2-4.1 7.7-1.2zm38.9 13.9c0 .4-2.3 2.6-5.1 5l-5.2 4.3-2.9-3.3c-3.3-3.7-3.6-3.1 4.1-9.4l3.4-2.8 2.8 2.7c1.6 1.5 2.9 3.1 2.9 3.5zm-28.5-1.4c4.1 4.9-.2 8.6-7.2 6.1-2.1-.7-4-1.4-4.3-1.6-.6-.5 7.2-7.2 8.3-7.2.4 0 1.9 1.2 3.2 2.7zm-12.4 12.6c16.5 5.4 32 12.5 50.9 23.3 8.6 4.8 10.2 6.2 13.3 11.2 4.9 8 8.6 12.5 17.8 21.8l8 8.2-2.8.9c-4.2 1.5-13.2.7-19.4-1.6-5.8-2.2-18.1-9.5-24.5-14.6-5.1-4.1-16.8-13.8-17.4-14.5-.3-.3-2.7-2.4-5.5-4.5-2.7-2.2-5.6-4.7-6.5-5.6-3.5-3.4-15-11-20.3-13.4-3.1-1.4-8-2.8-11-3.1-4.7-.4-5.8-.2-7.5 1.6-2.1 2.3-3.2 6.1-3.2 11.9-.1 3.4-.1 3.5-1.6 1.6-2-2.7-5.4-14.4-5.4-18.9 0-4.9 1.5-7.5 5.3-9.2 4.9-2.2 11.6-1.1 29.8 4.9zm47.9-1.8c1.5 4.5 1 5.6-3.5 9.1l-3.6 2.7-2.5-2.8c-1.3-1.5-2.4-3.3-2.3-3.9 0-1.2 8.6-8.6 9.9-8.6.5 0 1.4 1.6 2 3.5zm-26.4-.1c1 .8 1.7 1.6 1.4 1.9-.8.8-5-1.1-5-2.3 0-1.4 1.3-1.3 3.6.4zm32.2 15c1.4 3.1.7 3.7-2.3 2.2-2.4-1.1-3.1-2.6-1.8-3.9 1.3-1.4 3-.6 4.1 1.7zM992.9 1119.5c-1.1 1 .8 11.4 2.4 13.9 2.3 3.4 4.2 4.2 7.3 2.8 4.7-2.2 1.9-10.3-5.2-15-3.6-2.4-3.8-2.4-4.5-1.7zM916.1 1122.4c-4.1 4.9 1.4 12.1 6.6 8.8 2.4-1.5 3.3-5.8 1.7-8.1-1.7-2.4-6.5-2.8-8.3-.7zM566.2 1133.5c-12.3 3.8-21.5 15.7-22.6 28.8-1 13.7 6.6 26.7 19.4 32.5 8 3.7 19.2 3.6 27.2-.2 9.2-4.5 15.4-12.1 18.2-22.8l1.5-5.3.1 5c.6 16.7 7.6 36.6 18.6 53.2 5.2 7.8 17.4 21.2 24.4 26.8 7.8 6.2 20.6 13.4 30.6 17.3 20.9 8 39.1 10 40.8 4.4.4-1 .7-4.3.7-7.2.2-4.7-.2-5.7-2.5-7.7-1.5-1.3-3.5-2.3-4.4-2.4-.9 0-2.6-.2-3.7-.5-1.1-.2-3.6-.6-5.6-.8-4.9-.5-19.1-5.2-25.3-8.3-27.1-13.6-46.3-38.8-52.2-68.5-1.3-6.5-2.8-12.7-3.4-13.8-2.3-4.3-13-4.8-16.6-.7l-2.1 2.5-.1-3c-.1-4.4-3.2-12.9-6.1-16.9-8.3-11.5-23.7-16.7-36.9-12.4zm12.7 5.9c2 2.4 5 12 4.1 13-.9.9-12.8 1.1-13.7.2-.3-.2.2-2.7 1.1-5.3 2.8-8.4 5.8-11.2 8.5-7.9zm-13.9 6.1c-1.7 5.6-2 6-4.6 5.7-1.5-.2-3.6-.8-4.7-1.3-1.8-1-1.8-1.1 0-3.1 1.8-2.2 10.4-8 10.9-7.5.2.2-.5 3-1.6 6.2zm25-4.4c4.4 2.7 8 6.1 8 7.5 0 1-8 4-8.4 3.2-1.1-2.2-4.2-12.8-3.7-12.8.3 0 2.2 1 4.1 2.1zm-27.5 23.4v6.6l-4.9 1.4c-2.7.8-5.5 1.5-6.2 1.5-2.3 0-3.2-11.3-1.4-16.7l1.1-3 5.7 1.9 5.7 1.8v6.5zm40.3-6.3c.9 3.2.8 10.2-.3 14.4l-.5 2.1-5.9-1.9-6-2v-6.3l.1-6.4 4.1-1.5c6.4-2.2 7.5-2 8.5 1.6zm-18.5.8c.5 0 .7 2.4.5 5.2l-.3 5.3-7.4.5c-4 .3-7.8.2-8.4-.2-1-.6-1.4-8.9-.4-10.5.4-.6 8.2-.8 16-.3zm-1.6 17.3c2.5 1.6-3.7 16-6.7 15.5-1.7-.3-5.6-7.7-6.6-12.5-.5-2.5-.3-3.2 1.2-3.5 3-.6 10.8-.3 12.1.5zm-17.6 7.4c1 3.7 1.3 6.3.8 6.3-3 0-13.2-9.2-11.7-10.4.9-.8 6.5-2.4 7.7-2.3.8.1 2.2 2.8 3.2 6.4zm30.6-5.2l3.6 1.5-3.2 3.4c-1.7 1.8-4.9 4.3-7.1 5.5l-3.9 2.2 2-5.5c1-3.1 1.9-6.2 1.9-7.1 0-1.9 2.1-1.9 6.7 0z"/><path d="M1007.2 1135.2c-2.5 2.8-4 6.5-3.7 9.5.1 1.4-.4 2.3-1.2 2.3-1.5 0-1.8-1.6-.4-2.5 1.1-.6.6-4.4-.8-5.8-1.5-1.5-11.3-2-13.1-.7-1.3.9-1 1.4 1.6 3.8 1.7 1.5 3.9 3.2 5 3.9 1.8 1.1 1.7 1.2-.8 1.2-5.8.2-4 4.3 3.5 8l4 2-2.9.6c-6.9 1.6-6.8 1.4-4.7 3.7 6.5 7.2 15.9 10.2 19.2 6.1l1.7-2.1 1 2.2c.6 1.4 2 2.2 4.1 2.4 2.7.3 3.6-.2 5.2-2.9 1.9-3 2.1-7.8.9-17.2-.3-2.3-.7-2.2-4 1l-2.8 2.7-.1-4c-.1-2.1-.1-4.3 0-4.7.1-.4-.4-1.7-1-2.8-1.1-2.1-1.1-2.1-3.6.3l-2.5 2.3.2-3.5c.3-6.1 0-8-1.3-8-.8 0-2.3 1-3.5 2.2zm2.1 14.9c-.3 1.1-.6 1.8-.7 1.7-.1-.2-.7-1-1.3-1.8-1-1.3-.8-1.6.6-1.7 1.4-.1 1.7.4 1.4 1.8zm-.3 5.8c0 1.1 3.9 2.6 5.6 2.3.7-.1.9.8.6 2.3l-.4 2.5-2.4-2.5c-1.3-1.4-2.8-2.6-3.4-2.6-.5-.1-1.4-.3-2-.4-.5-.1-1.3-.3-1.7-.4-.9-.2 1.8-2.1 3-2.1.4 0 .7.4.7.9zM1036.1 1140.6c2 5.5 14 18.6 18.2 20 .9.3 1.7 1.2 1.7 2 0 1.7.3 1.7-6.2 0-5.5-1.4-6.8-1.4-13-.1-4.1.8-8.8 4.5-8.8 7 0 2 3.5 5.5 5.8 5.6.9 0 2.7.2 3.9.3 2.5.3 11.4-.9 15-1.9 2-.6 2.3 0 4.7 10.7 1.5 6.4 2.8 15.4 3.1 20.8.4 11.1 1.3 14 5.2 16.7 4.6 3.2 8.3 4 17.3 3.8 9.4-.3 13.3-1.5 16.3-4.8 3-3.4 3.5-5.6 4.1-16.8.3-6.2 1.6-14.3 3.1-19.9 1.3-5.2 2.5-9.9 2.5-10.3 0-.5 1.2-.6 2.8-.3 1.5.4 3.8.9 5.2 1.2 4.6.9 13.6.7 15.7-.5 5.1-2.7 3.6-8.1-3-10.6-5.8-2.2-10.3-2.5-15.7-.9-5.6 1.7-6 1.7-6 .1.1-.6 2.3-2.8 5-4.7 6.8-4.9 16.6-17.7 14.8-19.5-.3-.3-3.8.9-7.9 2.6-12.9 5.3-21.7 6.7-26.4 4.1-6.2-3.4-13.7-3.5-22.7-.2-7.1 2.6-11.4 2-26-3.6-4.8-1.9-9-3.4-9.2-3.4-.3 0-.1 1.2.5 2.6zm57.9 9.5c5.2 2.8 9 8.8 9.2 14.4.1 3.3-.5 4.3-5.9 9.4-7 6.4-8.5 10.3-8.7 21.6-.1 6.5.2 7.4 3 11 7.2 9.1 4.4 12.6-10.1 12.6-7.6 0-12.4-1.3-12.7-3.3 0-.7-.2-2-.3-2.8 0-.8 1.2-3.2 2.8-5.2 3.6-4.8 4.5-8 4-14.8-.6-9.5-2.9-14.5-8.3-18.7-6.3-4.8-7.5-7.8-5.9-13.7 1.4-5 4.7-8.6 10.2-11.2 6.9-3.1 16.3-2.9 22.7.7z"/><path d="M1079.5 1203.7c-2.6.5-7.7 8.5-6.9 10.7.7 1.8 3.5 2.7 8.5 2.8 6.4.1 7.8-.2 9.3-1.7 1.8-1.8 1.2-3.8-2.4-8.2-2.6-3.2-5.1-4.3-8.5-3.6zM880.2 1148.5c-4.3 1.4-5 2.5-1.6 2.4 4.2-.1 7.7-1.3 8.1-2.6.5-1.4-2.2-1.3-6.5.2zM893.5 1148.4c-1.7 1.2-1.3 1.4 4.1 2.4 3.2.6 6.7 1.3 7.7 1.7 3 1.2 2-2.3-1.3-4-3.6-1.9-8-1.9-10.5-.1zM907.5 1148.1c.3.8 1.7 2.2 3.1 3.3 2.4 1.7 2.7 1.7 4.2.2 2-2 .9-3.2-4.1-4.1-2.9-.6-3.6-.4-3.2.6zM1287.7 1153.2c-6.4 7.9-11.5 19.2-13.2 29.2-.8 4.6-.8 16.1 0 19.6.3 1.4.8 3.5 1.1 4.8 2.1 10.3 12.8 28.2 16.9 28.2.7 0 2.9-2 4.9-4.4l3.6-4.4-3.2-3.8c-3.2-4-8.4-14.3-9.4-18.5-1.1-4.8-1.2-16.5-.2-21.4 1.5-6.9 4.8-14.1 9.2-19.8 3.6-4.8 3.7-4.9 1.9-7-4.9-5.6-6.1-6.7-7.1-6.7-.6 0-2.6 1.9-4.5 4.2zM1373.8 1153c-2.1 2.1-3.8 4.2-3.8 4.7 0 .4 1.1 2 2.5 3.5 3.1 3.4 7.9 12.8 9.8 19.3 3.6 12.7-.7 32-9.3 42-.9 1.1-2 2.5-2.4 3.2-.8 1.4 6 9.3 7.9 9.3 2.2 0 8.2-7.8 11.9-15.5 10.8-22.4 8.1-47.5-7.1-66.3-1.9-2.3-4-4.2-4.6-4.1-.7 0-2.9 1.8-4.9 3.9zM1506.3 1149.7c-.7.2-1.3 1.7-1.3 3.1 0 3.3-5 6.7-9.2 6.3-2.2-.2-3 .3-3.8 2.4-1.5 4-1.2 5.4 1.5 6.7 3.2 1.5 5 6.6 3.4 10.1-.9 2.1-.9 3 .1 4.2 2.6 3.2 4.6 3.6 7.3 1.5 1.4-1.1 3.9-2 5.7-2 1.8 0 4.3.9 5.7 2 2.6 2.1 4.7 1.7 7.3-1.4 1-1.3 1-2.2 0-4.5-.8-2.1-.9-3.5-.1-4.9.6-1.1.8-2.2.4-2.5-.3-.4.8-1.4 2.6-2.4 3.2-1.9 3.8-4.1 2-7.4-.7-1.4-1.9-1.9-4.3-1.7-1.8.1-4-.5-5-1.3-4-3.4-4.6-4.1-4-5 1.6-2.6-4.3-4.9-8.3-3.2zm7.9 15c.8 1 1.3 2.4 1.2 3-.1.7-.2 2-.3 2.8-.1 1.9-4.7 3.8-7.3 2.9-3-.9-4.2-5.2-2.3-8 1.9-2.9 6.5-3.2 8.7-.7zM918.3 1151.2c-2.5 3.2-2.2 3.5 3.2 3.7 6.1.2 7-1 2.5-3.4-3.5-1.8-4.5-1.9-5.7-.3zM888.6 1153.6c-.7 1.7 1 6.4 2.2 6.4.5 0 2.8-.7 5.1-1.5s5.3-1.6 6.6-1.8c6.7-.9 2.5-3.3-6.7-4-5.1-.4-6.8-.1-7.2.9zM874 1154.6c-5.6 1.9-11.9 4.9-14.3 6.8-2.7 2.1-3.2 7.9-1.2 13.1 1.8 4.9 3.1 5.5 6.1 2.7 4.4-4 11.2-9 15.8-11.6 4.8-2.8 4.8-2.9 4.2-6.9-.4-2.2-.9-4.4-1.2-4.9-.8-1.2-4.3-.9-9.4.8zM900.8 1159.6c-5.6 1.8-7.6 2.8-7.2 3.8.6 1.5 7.8 6.6 9.3 6.6 1.1 0 7.1-10.1 7.1-11.9 0-1.5-.2-1.4-9.2 1.5zM922 1158.5c.7.8 1.6 1.5 2.1 1.5s3.1 1.3 5.7 3c5.9 3.6 6.4 3.7 6 .8-.4-3.2-6.3-6.8-11.1-6.8-3.4 0-3.8.2-2.7 1.5zM744.3 1160.1c-4.2.8-6.3 2.6-8 6.6-2.1 5-1.9 112.6.2 117.7 2.8 6.5 3.1 6.6 44 6.6 40.8.1 41.4 0 44.1-6.6 2.2-5.2 2-114.3-.2-118.6-3.2-6.1-3.1-6.1-41.7-6.3-19.4 0-36.7.2-38.4.6zm69.2 59.5v44.4l-5 .1c-30 .5-59.8 0-60.5-1.1-.4-.7-.7-20.6-.6-44.3l.1-43.2 20-.5c11-.3 25.9-.4 33-.2l13.1.3-.1 44.5zM785 1273c4 4 1.4 11-4.2 11-4.2 0-6.8-2.5-6.8-6.6 0-5.7 6.9-8.5 11-4.4zM911.4 1161.5c-.9 1.4-2.2 4.2-2.9 6.3-1.5 4.4-1.1 4.7 7.3 5.5 4 .4 5.2.2 5.2-.9 0-2.2-5.9-13.4-7-13.4-.5 0-1.7 1.1-2.6 2.5zM655.2 1160.8c-2.9.5-5.1 5.2-4.6 9.8.5 5.3 4.4 17.4 7.6 23.9 7.9 15.7 23.6 29.9 39.7 35.9 20.7 7.7 27.2 6.5 27.2-5 0-5.1-.3-6.2-2.5-8.1-1.4-1.2-5.1-2.7-8.3-3.4-9.9-2.1-20-7.6-27.3-14.9-7.7-7.8-12.3-16-15-26.7-1.1-4.3-2.8-8.6-3.8-9.5-1.7-1.7-8.6-2.8-13-2zM706.7 1161.1c-2.5.4-5.1 1.9-7.3 4.1-6.5 6.5-5.4 18.5 2.2 23 6.4 3.8 13.3 3.4 18.1-1 4.2-3.7 5.3-6.3 5.3-11.8 0-9.9-8-16.1-18.3-14.3zM918 1160.9c0 .6.5 1.3 1 1.6.6.4 2.2 2.9 3.5 5.6 2.6 5.1 4.6 6 8.6 3.9 3.7-2 2.1-4.5-6.3-9.4-4.7-2.7-6.8-3.2-6.8-1.7zM939.9 1164.7c-.5 4.8-.2 6.7 1.1 7.6 2.4 1.8 8.3 9.6 11.4 14.9 1.5 2.7 2.9 4.8 3.3 4.8 1.4 0-1-8.9-3.9-14.1-4.5-8.6-11.5-16.3-11.9-13.2zM884.5 1167.1c-7.5 4-19.5 14.1-19.5 16.5 0 2.7 19.8 16.4 23.7 16.4 1 0 2.9-3.5 10.1-19l3-6.5-4.6-2.9c-2.6-1.5-5.6-3.7-6.7-4.7-2-1.8-2.2-1.8-6 .2z"/><path d="M1306.6 1170.3c-6.4 8.4-8.9 20.4-6.3 30.4 1.5 5.7 7.5 16.3 9.2 16.3.7 0 3.1-1.7 5.4-3.9 3.9-3.6 4.1-4 3-6.5-.7-1.4-1.5-2.6-1.9-2.6-1.2 0-3.2-7.3-3.2-12 .1-5.1 2.2-11.2 4.9-14.2 1.5-1.7 1.5-2-.8-4.5-3.1-3.5-6.2-6.2-7.1-6.3-.4 0-1.8 1.5-3.2 3.3zM1356.1 1170.8c-2.3 2.1-4.1 4.1-4.1 4.5 0 .4 1 2.4 2.3 4.5 3.7 6 4.5 10 3.3 16.2-.7 3.1-2.2 7-3.4 8.7-1.2 1.7-2.2 3.4-2.2 3.9 0 1.4 7.8 8.4 9.4 8.4 1.9 0 6-6.8 8.4-14.1 2.3-6.5 2.2-15.4-.2-22.6-1.8-5.3-6.9-13.3-8.5-13.3-.5 0-2.8 1.7-5 3.8zM848.6 1171.3c-4.5 5.8-8.8 16.3-8.8 21.5-.1 4.9 2.4 12.2 4.1 12.2.6 0 1.8-1.7 2.7-3.8 1-2 3.7-6.7 6.1-10.4l4.4-6.7-2-3.9c-1.1-2.2-2.1-5.6-2.3-7.7-.3-4.9-1.2-5.2-4.2-1.2zM1017 1172.6c0 .3 1.4 3.2 3 6.6 2.8 5.5 4.1 9.8 2.2 7.3-2.1-3-10-6.2-16.8-6.9-6.8-.6-6.8.8-.1 4.3 6.5 3.5 13.8 8.7 19.8 14.3 3.6 3.3 13.3 15.6 14.1 17.8.4 1.3 3.8.3 3.8-1.2 0-.5-3.6-7.3-8-14.9-4.4-7.7-8-14.4-8-14.9 0-.6-.3-1-.8-1-.4 0-1.3-1.2-1.9-2.8-2.2-4.6-5.2-9.2-6.3-9.2-.5 0-1 .3-1 .6zM933.5 1175.1c-1.6 1-3.7 1.9-4.7 1.9-1.8 0-1.8 2.3 0 8 .7 1.9 1.8 7.3 2.6 11.9.8 4.6 1.9 8.8 2.5 9.4 1.2 1.2 11.1-1.8 15.4-4.8 4.3-2.8 4.4-4.8.8-12-3-5.8-11.5-16.6-12.9-16.4-.4 0-2 .9-3.7 2zM905.8 1176.3c-.9.7-3.7 6.6-6.3 13.1-4.3 11.1-4.6 12.1-3 13.2 2.8 2.1 20.7 5.3 26.3 4.8 1.5-.1 3.3-.2 4-.3 1.5-.1 1.1-6.8-1.4-20.4l-1.6-8.7-3.7-.1c-4.9-.1-9.1-.8-11.1-1.9-1.1-.6-2.3-.5-3.2.3zM982.2 1177.7c-6 2.9-8.3 9.2-5.5 15 5.1 10.9 20.8 8 21.8-4 .7-8.6-8.5-14.8-16.3-11zM1328.5 1184.4c-3 2.8-3.5 4-3.5 7.8 0 3.4.6 5 2.5 6.8l2.5 2.3.2 30.6.3 30.6 4.4.3c2.7.2 4.7-.1 5.2-.9.4-.7.7-14.4.7-30.6l.1-29.3 2.5-3.1c5.7-6.7 1.7-16.5-7.2-17.4-3.7-.3-4.6.1-7.7 2.9zM856.4 1193.2c-3.5 4.9-8.4 14.7-8.4 16.8 0 2.7 15.4 14.3 25.5 19.2 4 1.9 4.7 2 5.5.8 1.5-2.4 8-21 8-22.9 0-1.1-2.1-2.7-6.2-4.7-3.4-1.6-9.5-5.5-13.4-8.6l-7.3-5.7-3.7 5.1zM951 1206.4c-4.3 2.8-11.4 5.6-14 5.6-2.8 0-3.7 2.4-4.5 12.5-1.3 15.1-1.5 14 2.5 13.7 5.4-.4 13.8-4.3 17.2-8.1 3.7-4 4.5-6.9 4.6-15.3.1-9.9-1-11.4-5.8-8.4zM1408.3 1204.6c-.7.3-1.3 1.6-1.3 2.8 0 3-5.1 6.6-9.4 6.6-2.9 0-3.6.4-4.5 3.2-1.1 3.1-1 3.5 2.1 5.9 2.6 2.2 3.2 3.4 3.2 6.5 0 2.2-.3 4.6-.7 5.5-.6 1.2.1 2.2 2.5 3.7 3.2 2.1 3.3 2.1 5.4.2 2.8-2.7 9.4-2.7 11.7 0 1.8 2.2 3.8 1.8 7.1-1.6 1.4-1.3 1.4-1.9.3-4.1-1.6-3-.1-9 2.5-9.9 2.8-.9 3.6-2.7 2.6-6.2-.8-3-1.2-3.3-4.2-3.1-4 .4-8.9-3.1-9.6-6.9-.4-2.2-1.1-2.7-3.5-2.9-1.7-.1-3.6 0-4.2.3zm7.1 15c3 3 .8 9.4-3.3 9.4-2.6 0-6.1-2.9-6.1-5.1 0-5.4 5.7-8 9.4-4.3zM975.5 1206c-.8 1.3-.4 22.2.5 26.8.4 2 1.3 6.2 1.9 9.3l1.2 5.5 9.2 1.8c5.1.9 12.1 2.4 15.7 3.2 3.6.8 7.1 1.6 7.8 1.8 2 .4 4.5 5.2 8.2 15.1 4.5 12.5 6.8 15.6 14.3 19.5l3.7 2 .1-2.2c.7-9.6-3.1-26.8-7.9-36.6-2.8-5.6-3-5.7-14.5-11.5-8.2-4-12.4-6.8-14.3-9.2-1.4-1.9-2.4-3.9-2.2-4.4.1-.5 4.1.6 8.8 2.6 9.4 4 17.1 4.8 20.8 2.1l2.2-1.5-3.5-4c-3-3.5-15.2-12.3-17-12.3-.3 0-2.5-.9-4.8-1.9-8.8-4-12.3-5.2-15.7-5.6-11.4-1.3-13.9-1.4-14.5-.5zM891.9 1210.6c-2.5 6.3-6.9 19.9-6.9 21.1 0 3 15.1 6.9 30 8 10.9.7 10.6 1 12.6-13.7 1.7-12.7 1.5-13-7-13-5.6 0-21.7-2.8-25.8-4.5-1.3-.5-2.1 0-2.9 2.1zM838 1211.3c0 4.1 1.4 8.7 2.6 8.7 2.5 0 1.4-8.4-1.2-9.4-.8-.3-1.4 0-1.4.7z"/><path d="M1044.5 1221.6c-5.4 3.6-11.9 9.9-16.2 15.7l-3.6 4.9 2.6 2.5 2.5 2.6 4.6-3.4 4.7-3.3 5 5 5.1 5.1-2.2 11.4c-1.2 6.3-2.3 12.5-2.6 13.9-.2 1.4-.9 4.7-1.4 7.5-.5 2.7-1.2 6.6-1.5 8.6l-.6 3.5 9.8-.2c5.4-.1 16.4-.3 24.4-.4l14.7-.2 1.7-3.8c5.9-13.1 22-20.3 35.9-15.9 4.2 1.2 5.8 1.4 6.1.6.2-.7 1.4-6.2 2.5-12.2 2.9-14.7 2.9-14.9 4.6-22.8.8-3.7 1.4-7.5 1.4-8.3 0-1.2-4.7-1.4-34.7-.8-19.2.3-39.1.7-44.3.7-7.8.2-9.5.5-9.8 1.8-.2 1.2-1.4 1.6-4.2 1.5-3.4-.1-3.8-.3-2.7-1.7.7-.9 2.7-3.5 4.5-5.9l3.2-4.3-2.2-2.4c-1.2-1.3-2.4-2.3-2.7-2.3-.4 0-2.4 1.2-4.6 2.6zM845 1226.7c0 8.5 1.3 10.8 12.4 21.8 5.6 5.6 9.2 8.5 11.5 9 3.8.8 4 .7 4.7-3.1.2-1.6.7-3.5 1-4.3.2-.8.7-3.7 1-6.6l.6-5.1-5.4-2.4c-5.7-2.6-15.3-8.7-20.6-13.2-1.8-1.6-3.7-2.8-4.2-2.8-.6 0-1 3-1 6.7zM882.3 1242.2c-1.5 1.9-4.7 16.3-4 18.1.8 2.2 6.8 3.8 16.9 4.4 10.8.6 14.9-.1 18.7-3.3 3.1-2.6 8.1-10.6 8.1-13 0-1-1.4-1.4-4.7-1.5-11.7-.2-24.8-2.4-32.4-5.4-.9-.3-2 0-2.6.7zM937.5 1244.5c-2.2.8-5.1 1.7-6.5 1.9-1.8.4-3.4 2.2-5.7 6.4-1.8 3.2-3 6.2-2.7 6.5 1.5 1.5 18.6-10 21.2-14.2 1-1.8 1-2.1-.5-2-1 0-3.6.7-5.8 1.4zM967.9 1254.3c-14.4 4.9-23.9 15.5-27.2 30.4-1.4 6.1-1.4 7.1-.3 15.4 1.6 12.2 10.2 23.6 22.2 29.6 18.9 9.3 40.2 3.5 52.5-14.3 1.6-2.4 2.9-4.9 2.9-5.8 0-.8.4-1.7.9-2 .9-.6 1.9-4.8 2.7-11.8.3-2.1 0-6.4-.5-9.5-2.5-13.3-10.6-23.9-22.6-29.9-6.3-3.1-8.5-3.7-15.7-4-6.6-.3-9.6.1-14.9 1.9zM1181.6 1260.7c-7.7 1.7-12.6 4.6-17.1 9.9-5.1 6.2-7.6 12.4-7.7 19.2-.2 14.2 5.7 24 18.1 30 7.6 3.7 19.1 3.8 26.5.2 23.2-11.2 24.7-42.9 2.6-55.7-7.5-4.4-14.4-5.5-22.4-3.6zm16.9 9.3c18.6 8.5 17.7 35.5-1.4 43.6-5.4 2.3-13.8 2.2-18.7-.3-14.1-7.4-18.4-23.7-9.4-36.1 3.7-5.2 6.8-7.2 13.3-8.7 6-1.5 10.6-1 16.2 1.5z"/><path d="M1188.9 1271.4c-3.3 1.6-4.2 6-1.7 9.1 4.5 5.8 12.2.7 9.3-6.1-1.5-3.6-4.3-4.7-7.6-3z"/><path d="M1182.8 1286.3c-3.1 2.6-4.9 7-2.4 6.1.9-.3 1.6-1 1.6-1.4 0-.4.6-1 1.4-1.3 1.3-.5 1.3.1 0 4.1-3.1 9.9-3.9 14.9-2.5 16.6.8.9 2.2 1.6 3.3 1.6 3 0 7.8-2.9 8.7-5.3 1.2-3.1.2-4.1-2-2.1-1.1.9-2.1 1.5-2.3 1.3-.2-.2.7-3.8 2-7.9 1.3-4.1 2.4-8.4 2.4-9.6 0-4.7-5.7-5.9-10.2-2.1zM863 1267.6c-27.7 5.7-33.1 8.7-37.3 20.9-3.5 10.2 1.6 22.6 11.2 27.4 6.3 3.2 11.3 3.5 21.9 1.1 18.1-4 22.7-5.7 26.7-9.7 4.3-4.3 7.5-10.2 7.5-13.8 0-2.6-.1-2.7-4.2-2-5.4.9-7.1 1.8-11.1 5.9-2.7 2.8-4.8 3.7-12.6 5.6-18.2 4.3-23.6 3.8-26.7-2.2-1.8-3.5-1.8-7.2.1-10.8 2-3.8 5.1-5.3 15-7.5 4.4-.9 11.7-3.2 16.3-5.1 4.5-1.9 8.8-3.4 9.5-3.4.7 0 2.2-.6 3.2-1.4 1.8-1.3 1.7-1.4-1.4-3.1-1.9-.9-4.5-1.9-6-2.1-1.4-.3-3.3-.6-4.1-.8-.8-.2-4.4.2-8 1z"/><path d="M894.2 1274c-4.1 1-8.8 2.1-10.5 2.3-6.2 1-12.6 3.9-16.1 7.3-6.8 6.6-9.8 16.1-5.1 15.8 6-.4 9.2-1.7 12.5-5.3 3.2-3.6 4.4-4.1 15-6.5 13.9-3.2 17.1-3.4 20.4-1.7 2.7 1.5 5.6 6.6 5.6 10.1 0 3.3-2.8 7.8-5.8 9.4-1.5.7-7 2.3-12.2 3.5-5.2 1.3-11.8 3.3-14.6 4.6-2.8 1.4-7.2 3-9.8 3.7-5.2 1.4-5.6 2.1-2.3 4.2 4.5 2.9 11.7 3.4 21.3 1.4 4.9-1 10-2 11.3-2.3 9.6-1.7 18.6-7.7 22.1-14.4 6.3-12.5-1.3-29.7-14.5-32.9-5.8-1.4-9.1-1.2-17.3.8zM1112 1281.2c-7 2.2-13.2 7.5-16.5 14.3-2.7 5.6-2.7 16.4.2 22.5 9.1 19.6 36.2 21.4 47.7 3.1 4.4-7 5.2-18.2 1.7-25.3-6.4-13.2-19.2-18.8-33.1-14.6zM432.7 1383.6c-.1.1-3.6.5-7.7.8-6.6.6-10.9 1.1-18.5 2.1-37.8 5.1-85.5 22.3-119 42.7-47.3 29-83.4 75.7-102 132.4-3.1 9.3-8.1 29-9 35.4-.4 2.4-.8 4.7-1 5-.1.3-.6 3-.9 6.1-.4 3.1-.9 6.6-1.1 7.8-1.6 8.2-2.3 46.3-1.1 55.1.2 1.4.4 4.4.5 6.6l.1 4.2 12.3 4.1c15.9 5.5 53.6 18.9 56.2 20.1 12.3 5.5 102.6 35.6 115.5 38.5.8.2 7.9 1.9 15.8 3.9 20.4 5.2 40.7 9 58.7 11.1 3.2.4 6.7.9 7.7 1 1 .2 8.2.7 16.1 1 14 .7 17.6.3 8.7-.8-2.5-.4-8.3-1.6-13-2.7-45.1-11-77-40.3-87.6-80.5-3.4-13-3.9-17.1-3.7-34 .1-13.2.5-16.4 3.1-26.7 8.3-31.9 27-56 54.1-69.7 16.1-8.1 35.4-14.1 51.1-15.9 8.3-.9 41.6-.9 49.5 0 5.9.7 21.1 3.2 25 4.2 1.1.2 4.1.9 6.6 1.5 13.2 3 31.7 10.3 50.4 20 6.5 3.3 12 5.9 12.3 5.7.6-.6.5-140.7-.1-141.2-1-1-33.4-14.7-42.7-18.1-27.9-10.1-58.1-16.2-94-18.9-7.5-.6-41.8-1.2-42.3-.8zM682.1 1527.7c0 100 .3 134.3 1.1 134.3.7 0 2.1-.8 3.2-1.9 2.8-2.4 41.2-29.7 55.9-39.6 38-25.8 81.7-51.8 115.5-68.9l11.2-5.7v-152.6H682l.1 134.4zM889 1399.4c-.1 7.7-.1 115.2 0 122.3v5.3h10c9 0 10.6-.3 16.7-3.1 25.1-11.5 82.4-36 112.1-47.8 50.4-20.1 121.9-44.2 153.2-51.6.8-.1 5.1-1.2 9.6-2.4 10.7-2.7 33-7.8 42.9-9.7 10.9-2.2 11.6-2.3 14.5-2.9 2.7-.6 18.1-3 24.5-4 2.3-.3 5-.7 6-.9 1.1-.2 4.5-.7 7.6-1 3.1-.4 6.6-.8 7.6-1.1 1.1-.2 5.6-.6 9.9-1 4.3-.4 9-.8 10.3-1 1.3-.2 7.6-.7 14-1.1 6.4-.4 13.2-.8 15.1-.9 3-.2 3.5-.6 3.6-2.7l.1-2.5H889v6.1zM1366.9 1393.9c-.1.3-.3 113.7-.3 251.9-.1 172.9.1 251.2.9 251.3.5.1 83.5.2 184.2.3 121.7.1 183.4-.2 183.6-.9.3-.9.1-120.3-.2-123.2-.1-.9-21.7-1.2-90.5-1.1-49.8 0-90.8-.2-91.3-.5-.6-.4-1-61.3-.4-68.4.1-.9 19.5-1.1 79.2-1.2 43.5 0 79.3-.2 79.6-.5.4-.4.7-101.1.4-117.7l-.1-3.6-76.7-.1c-42.3 0-78-.1-79.4-.1l-2.5-.1v-31c-.1-27.4.1-31 1.5-31.4.9-.3 39.2-.5 85.1-.5h87l3.5-.1-.1-60.8c-.1-33.4-.2-61.2-.3-61.8-.1-1.1-363-1.6-363.2-.5z"/><path d="M1334.7 1413.6c-.1.1-3.7.5-8 .9-4.3.3-8.8.8-10 1-1.2.2-4.9.6-8.2 1-5 .5-16.1 2.2-34 5.1-1.6.3-8.4 1.7-15 3.1-6.6 1.4-13.1 2.7-14.5 3-5.1.9-40.9 10.2-52.5 13.7-18.7 5.4-59.6 18.6-64 20.6-1.1.5-8.4 3.2-16.3 6-19.4 6.9-23.9 8.6-53.2 20-24 9.4-84.9 33.8-87.5 35-1.1.6-3.8 1.6-6 2.4-3.6 1.3-1.1 1.5 27.2 1.5l31.2.1v167.7c.1 92.3.1 175.7.1 185.3v17.5h93c82 0 93-.2 93.1-1.5 0-.8.2-84.3.2-185.5l.2-184h68l68-.1.3-56.7.3-56.8-6.1.3c-3.4.2-6.2.4-6.3.4zM856 1575.1c-29.3 15.5-44.4 24-69.5 39.4-26.8 16.4-52.7 33.8-87.7 58.8l-16.7 11.9.2 106.2.2 106.1H869v-164.2c0-90.4-.3-164.3-.7-164.3-.5 0-6 2.8-12.3 6.1zM175.4 1696.5c2 12.5 7.8 33.7 13.2 48.5 6.8 18.7 23.5 49.2 33.6 61.5.9 1.1 3.9 4.7 6.6 8 20.4 24.8 47.3 45.6 79.9 61.9 17 8.5 41.8 17.7 54.3 20.1.8.2 3.3.8 5.5 1.4 3.5.9 14 3 22.6 4.5 1.5.2 5.3.7 8.5 1.1 3.3.4 7 .9 8.4 1.1 13.2 2.3 70.4 2.2 84 0 1.4-.3 5.2-.7 8.5-1.1 34.4-3.6 72.3-16 98.5-32 1.9-1.2 6.4-3.7 10-5.7 17.7-9.5 58.6-32.1 59.4-32.8.4-.5-2.1-6.4-5.7-13.2-3.5-6.7-8.8-16.8-11.7-22.3-2.9-5.5-6.7-12.7-8.5-16-1.7-3.3-6.3-11.9-10-19-8.2-15.7-15.7-29.9-16.1-30.4-.2-.2-4.9 2.7-10.6 6.4-25.9 16.8-62.2 30.5-90.3 34.1-2.2.3-5.1.7-6.5 1-13.4 2.3-49.8 2.2-70.5-.1-16.6-1.9-43.7-6.7-57-10.2-3.3-.8-6.7-1.6-7.5-1.8-.8-.2-5.1-1.3-9.5-2.4-4.4-1.2-8.7-2.4-9.5-2.6-.8-.2-1.5-.4-1.5-.5 0-.1-.7-.3-1.5-.5-6.9-1.3-56.1-17.4-79.5-26-16.6-6-87.7-32.5-92.8-34.5l-4.8-1.9.5 3.4z"/></svg>