<?xml version="1.0"?>
<svg xmlns="http://www.w3.org/2000/svg" xmlns:xlink="http://www.w3.org/1999/xlink" version="1.1" id="Capa_1" x="0px" y="0px" viewBox="0 0 512 512" style="enable-background:new 0 0 512 512;" xml:space="preserve" width="512px" height="512px" class=""><g><g>
	<g>
		<circle cx="256" cy="383.051" r="15" data-original="#000000" class="active-path" data-old_color="#FFFDFD" fill="#FFFFFF"/>
	</g>
</g><g>
	<g>
		<circle cx="316" cy="383.051" r="15" data-original="#000000" class="active-path" data-old_color="#FFFDFD" fill="#FFFFFF"/>
	</g>
</g><g>
	<g>
		<circle cx="376" cy="383.051" r="15" data-original="#000000" class="active-path" data-old_color="#FFFDFD" fill="#FFFFFF"/>
	</g>
</g><g>
	<g>
		<circle cx="136" cy="383.051" r="15" data-original="#000000" class="active-path" data-old_color="#FFFDFD" fill="#FFFFFF"/>
	</g>
</g><g>
	<g>
		<circle cx="196" cy="383.051" r="15" data-original="#000000" class="active-path" data-old_color="#FFFDFD" fill="#FFFFFF"/>
	</g>
</g><g>
	<g>
		<path d="M447,289.054c35.841,0,65-29.159,65-65s-29.159-65-65-65H281.201l-14.746-29H365c35.841,0,65-29.159,65-65    s-29.159-65-65-65H65c-35.841,0-65,29.159-65,65c0,35.841,29.159,65,65,65h103.799l14.746,29H147c-35.841,0-65,29.159-65,65    s29.159,65,65,65h142.545l-14.746,29H106c-35.841,0-65,29.159-65,65s29.159,65,65,65h103v63.891l132.429-63.891H406    c35.841,0,65-29.159,65-65s-29.159-65-65-65h-33.545l14.746-29H447z M65,100.055c-19.299,0-35-15.701-35-35    c0-19.299,15.701-35,35-35h300c19.299,0,35,15.701,35,35c0,19.299-15.701,35-35,35H65z M247.545,159.055h-30.344l-14.746-29    h30.344L247.545,159.055z M239,464.163v-16.109h33.389L239,464.163z M406,348.054c19.299,0,35,15.701,35,35s-15.701,35-35,35H106    c-19.299,0-35-15.701-35-35s15.701-35,35-35H406z M308.455,318.054l14.746-29h30.344l-14.746,29H308.455z M147,259.054    c-19.299,0-35-15.701-35-35c0-19.299,15.701-35,35-35h300c19.299,0,35,15.701,35,35c0,19.299-15.701,35-35,35H147z" data-original="#000000" class="active-path" data-old_color="#FFFDFD" fill="#FFFFFF"/>
	</g>
</g><g>
	<g>
		<circle cx="297" cy="224.051" r="15" data-original="#000000" class="active-path" data-old_color="#FFFDFD" fill="#FFFFFF"/>
	</g>
</g><g>
	<g>
		<circle cx="357" cy="224.051" r="15" data-original="#000000" class="active-path" data-old_color="#FFFDFD" fill="#FFFFFF"/>
	</g>
</g><g>
	<g>
		<circle cx="417" cy="224.051" r="15" data-original="#000000" class="active-path" data-old_color="#FFFDFD" fill="#FFFFFF"/>
	</g>
</g><g>
	<g>
		<circle cx="177" cy="224.051" r="15" data-original="#000000" class="active-path" data-old_color="#FFFDFD" fill="#FFFFFF"/>
	</g>
</g><g>
	<g>
		<circle cx="237" cy="224.051" r="15" data-original="#000000" class="active-path" data-old_color="#FFFDFD" fill="#FFFFFF"/>
	</g>
</g><g>
	<g>
		<circle cx="215" cy="65.051" r="15" data-original="#000000" class="active-path" data-old_color="#FFFDFD" fill="#FFFFFF"/>
	</g>
</g><g>
	<g>
		<circle cx="275" cy="65.051" r="15" data-original="#000000" class="active-path" data-old_color="#FFFDFD" fill="#FFFFFF"/>
	</g>
</g><g>
	<g>
		<circle cx="335" cy="65.051" r="15" data-original="#000000" class="active-path" data-old_color="#FFFDFD" fill="#FFFFFF"/>
	</g>
</g><g>
	<g>
		<circle cx="95" cy="65.051" r="15" data-original="#000000" class="active-path" data-old_color="#FFFDFD" fill="#FFFFFF"/>
	</g>
</g><g>
	<g>
		<circle cx="155" cy="65.051" r="15" data-original="#000000" class="active-path" data-old_color="#FFFDFD" fill="#FFFFFF"/>
	</g>
</g></g> </svg>
