<?xml version="1.0"?>
<svg xmlns="http://www.w3.org/2000/svg" height="512px" viewBox="0 0 496 496.01195" width="512px"><path d="m451.023438 405.316406c7.925781-7.3125 12.984374-17.695312 12.984374-29.304687v-16c0-22.054688-17.945312-40-40-40-19.3125 0-35.472656 13.769531-39.195312 32h-26.277344c-3.3125-9.289063-12.113281-16-22.527344-16-10.417968 0-19.21875 6.710937-22.53125 16h-26.277343c-3.191407-15.648438-15.546875-28-31.191407-31.191407v-17.945312c13.765626-3.574219 24-15.992188 24-30.863281h8c4.421876 0 8-3.574219 8-8v-24h16v-16h-16v-.085938c0-15.304687 7.253907-30.347656 19.902344-41.242187 22.9375-19.785156 36.097656-48.457032 36.097656-78.671875 0-28.574219-11.355468-55.214844-31.96875-75.015625-20.601562-19.800782-47.832031-30.136719-76.320312-28.894532-54 2.175782-98.730469 47.941407-99.695312 102.015626-.554688 30.605468 12.351562 59.757812 35.40625 79.984374 12.6875 11.117188 20.0625 26.328126 20.496093 41.910157h-15.917969v16h16v24c0 4.425781 3.574219 8 8 8h8c0 14.871093 10.230469 27.289062 24 30.863281v17.945312c-15.648437 3.191407-28 15.542969-31.195312 31.191407h-26.277344c-3.3125-9.289063-12.113281-16-22.527344-16-10.417968 0-19.21875 6.710937-22.53125 16h-26.277343c-3.722657-18.230469-19.875-32-39.191407-32-22.058593 0-40 17.945312-40 40v16c0 11.609375 5.054688 21.992187 12.980469 29.304687-26.34375 10.710938-44.9804685 36.550782-44.9804685 66.695313v16c0 4.425781 3.5742185 8 7.9999995 8h128c4.421876 0 8-3.574219 8-8v-16c0-30.144531-18.640624-55.984375-44.984374-66.695313 7.925781-7.3125 12.984374-17.695312 12.984374-29.304687v-8h25.46875c3.3125 9.289062 12.113282 16 22.53125 16 10.414063 0 19.214844-6.710938 22.527344-16h25.472656v8c0 11.609375 5.054688 21.992187 12.980469 29.304687-26.34375 10.710938-44.980469 36.550782-44.980469 66.695313v16c0 4.425781 3.574219 8 8 8h128c4.421876 0 8-3.574219 8-8v-16c0-30.144531-18.640624-55.984375-44.984374-66.695313 7.925781-7.3125 12.984374-17.695312 12.984374-29.304687v-8h25.46875c3.3125 9.289062 12.113282 16 22.53125 16 10.414063 0 19.214844-6.710938 22.527344-16h25.472656v8c0 11.609375 5.054688 21.992187 12.980469 29.304687-26.34375 10.710938-44.980469 36.550782-44.980469 66.695313v16c0 4.425781 3.574219 8 8 8h128c4.421876 0 8-3.574219 8-8v-16c0-30.144531-18.640624-55.984375-44.984374-66.695313zm-323.015626 66.695313v8h-16v-16h-16v16h-48v-16h-16v16h-16v-8c0-30.871094 25.125-56 56-56 30.871094 0 56 25.128906 56 56zm-80-96v-16c0-13.230469 10.765626-24 24-24 13.230469 0 24 10.769531 24 24v16c0 13.230469-10.769531 24-24 24-13.234374 0-24-10.769531-24-24zm112-8c-4.417968 0-8-3.582031-8-8 0-4.414063 3.582032-8 8-8 4.414063 0 8 3.585937 8 8 0 4.417969-3.585937 8-8 8zm29.964844-197.945313c-19.503906-17.109375-30.421875-41.773437-29.949218-67.671875.824218-45.75 38.65625-84.46875 84.335937-86.3125 24.40625-.886719 47.167969 7.714844 64.589844 24.457031 17.449219 16.746094 27.058593 39.296876 27.058593 63.472657 0 25.558593-11.136718 49.816406-30.546874 66.542969-16.175782 13.953124-25.453126 33.402343-25.453126 53.371093v.085938h-64.082031c-.433593-20.183594-9.792969-39.785157-25.953125-53.945313zm90.035156 69.945313v16h-64v-16zm-48 32h32c0 8.824219-7.179687 16-16 16-8.824218 0-16-7.175781-16-16zm72 200v8h-16v-16h-16v16h-48v-16h-16v16h-16v-8c0-30.871094 25.125-56 56-56 30.871094 0 56 25.128906 56 56zm-80-96v-16c0-13.230469 10.765626-24 24-24 13.230469 0 24 10.769531 24 24v16c0 13.230469-10.769531 24-24 24-13.234374 0-24-10.769531-24-24zm112-8c-4.417968 0-8-3.582031-8-8 0-4.414063 3.582032-8 8-8 4.414063 0 8 3.585937 8 8 0 4.417969-3.585937 8-8 8zm64 8v-16c0-13.230469 10.765626-24 24-24 13.230469 0 24 10.769531 24 24v16c0 13.230469-10.769531 24-24 24-13.234374 0-24-10.769531-24-24zm80 104h-16v-16h-16v16h-48v-16h-16v16h-16v-8c0-30.871094 25.125-56 56-56 30.871094 0 56 25.128906 56 56zm0 0" fill="#FFFFFF"/><path d="m232.007812 192.011719h32v16h-32zm0 0" fill="#FFFFFF"/><path d="m240.007812 143.203125v16.808594h16v-16.808594c5.09375-1.039063 9.832032-3.070313 14.023438-5.855469l12.320312 12.320313 11.308594-11.3125-12.316406-12.320313c2.78125-4.191406 4.8125-8.925781 5.855469-14.023437h16.808593v-16h-16.808593c-1.042969-5.097657-3.074219-9.832031-5.855469-14.023438l12.316406-12.320312-11.308594-11.3125-12.320312 12.320312c-4.191406-2.785156-8.929688-4.816406-14.023438-5.855469v-16.808593h-16v16.808593c-5.097656 1.039063-9.832031 3.070313-14.027343 5.855469l-12.320313-12.320312-11.308594 11.3125 12.320313 12.320312c-2.785156 4.191407-4.816406 8.925781-5.859375 14.023438h-16.804688v16h16.804688c1.042969 5.097656 3.074219 9.832031 5.859375 14.023437l-12.320313 12.320313 11.308594 11.3125 12.320313-12.320313c4.195312 2.785156 8.929687 4.816406 14.027343 5.855469zm8-63.191406c13.230469 0 24 10.769531 24 24s-10.769531 24-24 24c-13.234374 0-24-10.769531-24-24s10.765626-24 24-24zm0 0" fill="#FFFFFF"/></svg>
