<svg xmlns="http://www.w3.org/2000/svg" viewBox="-6530.141 128.956 254.282 250.044">
  <defs>
    <style>
      .cls-1 {
        fill: #556080;
      }

      .cls-2 {
        fill: #ecf0f1;
      }

      .cls-3 {
        fill: #0067a3;
      }

      .cls-4 {
        fill: #f3d55b;
      }

      .cls-5 {
        fill: #4cae4e;
      }

      .cls-6 {
        fill: #d1d4d1;
      }

      .cls-7 {
        fill: #f8ca0f;
      }
    </style>
  </defs>
  <g id="presentation" transform="translate(-6530.141 128.456)">
    <rect id="Rectangle_105" data-name="Rectangle 105" class="cls-1" width="245.806" height="25.428" transform="translate(4.238 0.5)"/>
    <rect id="Rectangle_106" data-name="Rectangle 106" class="cls-2" width="228.854" height="177.997" transform="translate(12.714 25.928)"/>
    <path id="Path_87" data-name="Path 87" class="cls-3" d="M39.238,60.69A4.234,4.234,0,0,1,35,56.452V43.738a4.238,4.238,0,0,1,8.476,0V56.452A4.234,4.234,0,0,1,39.238,60.69Z" transform="translate(113.331 126.283)"/>
    <path id="Path_88" data-name="Path 88" class="cls-4" d="M43.238,73.642A4.234,4.234,0,0,1,39,69.4V39.738a4.238,4.238,0,0,1,8.476,0V69.4A4.234,4.234,0,0,1,43.238,73.642Z" transform="translate(126.283 113.331)"/>
    <path id="Path_89" data-name="Path 89" class="cls-3" d="M47.238,67.166A4.234,4.234,0,0,1,43,62.928V41.738a4.238,4.238,0,0,1,8.476,0v21.19A4.234,4.234,0,0,1,47.238,67.166Z" transform="translate(139.235 119.807)"/>
    <path id="Path_90" data-name="Path 90" class="cls-5" d="M51.238,89.832A4.234,4.234,0,0,1,47,85.594V34.738a4.238,4.238,0,0,1,8.476,0V85.594A4.234,4.234,0,0,1,51.238,89.832Z" transform="translate(152.187 97.141)"/>
    <path id="Path_91" data-name="Path 91" class="cls-3" d="M55.238,76.88A4.234,4.234,0,0,1,51,72.642v-33.9a4.238,4.238,0,0,1,8.476,0v33.9A4.234,4.234,0,0,1,55.238,76.88Z" transform="translate(165.139 110.093)"/>
    <path id="Path_92" data-name="Path 92" class="cls-6" d="M55.618,45.976H13.238a4.238,4.238,0,1,1,0-8.476h42.38a4.238,4.238,0,1,1,0,8.476Z" transform="translate(29.142 119.807)"/>
    <path id="Path_93" data-name="Path 93" class="cls-6" d="M76.808,49.976H13.238a4.238,4.238,0,1,1,0-8.476h63.57a4.238,4.238,0,1,1,0,8.476Z" transform="translate(29.142 132.759)"/>
    <path id="Path_103" data-name="Path 103" class="cls-5" d="M44.5,0A44.5,44.5,0,1,1,0,44.5,44.5,44.5,0,0,1,44.5,0Z" transform="translate(38.142 47.118)"/>
    <path id="Path_94" data-name="Path 94" class="cls-7" d="M19.059,11.547,19,11.606V57.961a.156.156,0,0,0,.157.157H65.512l.059-.059A44.5,44.5,0,0,0,19.059,11.547Z" transform="translate(61.523 35.618)"/>
    <path id="Path_95" data-name="Path 95" class="cls-6" d="M76.142,24.976h-33.9a4.238,4.238,0,0,1,0-8.476h33.9a4.238,4.238,0,1,1,0,8.476Z" transform="translate(123.045 51.808)"/>
    <path id="Path_96" data-name="Path 96" class="cls-6" d="M55.238,24.936A4.2,4.2,0,0,1,51,20.7a4.238,4.238,0,1,1,7.247,3.009A4.456,4.456,0,0,1,55.238,24.936Z" transform="translate(165.139 51.849)"/>
    <path id="Path_97" data-name="Path 97" class="cls-6" d="M64.952,19.976H52.238a4.238,4.238,0,1,1,0-8.476H64.952a4.238,4.238,0,1,1,0,8.476Z" transform="translate(155.425 35.618)"/>
    <path id="Path_98" data-name="Path 98" class="cls-6" d="M50.714,19.976H42.238a4.238,4.238,0,0,1,0-8.476h8.476a4.238,4.238,0,0,1,0,8.476Z" transform="translate(123.045 35.618)"/>
    <path id="Path_99" data-name="Path 99" class="cls-6" d="M48.238,19.936A4.2,4.2,0,0,1,44,15.7a4.429,4.429,0,0,1,1.229-3.009,4.437,4.437,0,0,1,6.018,0A4.361,4.361,0,0,1,52.476,15.7a4.2,4.2,0,0,1-4.238,4.238Z" transform="translate(142.473 35.659)"/>
    <path id="Path_100" data-name="Path 100" class="cls-1" d="M250.044,55.976H4.238a4.238,4.238,0,1,1,0-8.476H250.044a4.238,4.238,0,1,1,0,8.476Z" transform="translate(0 152.187)"/>
    <path id="Path_101" data-name="Path 101" class="cls-1" d="M33.238,68.69A4.234,4.234,0,0,1,29,64.452V51.738a4.238,4.238,0,1,1,8.476,0V64.452A4.234,4.234,0,0,1,33.238,68.69Z" transform="translate(93.903 152.187)"/>
    <path id="Path_102" data-name="Path 102" class="cls-1" d="M42.952,85.4A16.952,16.952,0,1,1,59.9,68.452,16.969,16.969,0,0,1,42.952,85.4Zm0-25.428a8.476,8.476,0,1,0,8.476,8.476A8.485,8.485,0,0,0,42.952,59.976Z" transform="translate(84.189 165.139)"/>
  </g>
</svg>
