<?xml version="1.0" encoding="UTF-8" standalone="no"?>
<svg width="364px" height="47px" viewBox="0 0 364 47" version="1.1" xmlns="http://www.w3.org/2000/svg" xmlns:xlink="http://www.w3.org/1999/xlink">
    <title>Pulitzer Center</title>
    <defs>
        <polygon id="path-1" points="0.0292761394 0.26738874 0.0292761394 30.0480536 363.645759 30.0480536 363.645759 0.26738874"></polygon>
        <polygon id="path-3" points="0.0292761394 0.26738874 0.0292761394 30.0480536 363.645759 30.0480536 363.645759 0.26738874"></polygon>
        <polygon id="path-5" points="0.231769437 46.8125469 46.053319 46.8125469 46.053319 0.118080429 0.231769437 0.118080429"></polygon>
        <polygon id="path-7" points="0.231769437 46.8125469 46.053319 46.8125469 46.053319 0.118080429 0.231769437 0.118080429"></polygon>
    </defs>
    <g id="Page-1" stroke="none" stroke-width="1" fill="none" fill-rule="evenodd">
        <g id="logo">
            <g id="Page-1">
                <g id="pulitzer-center">
                    <path d="M69.0370402,24.744681 L73.5426381,24.744681 C74.642933,24.744681 75.6022145,24.607571 76.4199946,24.3323753 C77.2377748,24.0571796 77.9145416,23.6629276 78.449807,23.1501072 C78.9850724,22.6372869 79.3866434,22.0122413 79.6545201,21.2764343 C79.9219088,20.5401394 80.0560912,19.7189437 80.0560912,18.8113834 C80.0560912,17.9492011 79.9219088,17.168504 79.6545201,16.4692922 C79.3866434,15.7705684 78.9850724,15.1757748 78.449807,14.6849115 C77.9145416,14.1940483 77.2377748,13.8188257 76.4199946,13.558756 C75.6022145,13.2986863 74.642933,13.1684075 73.5426381,13.1684075 L69.0370402,13.1684075 L69.0370402,24.744681 Z M69.0370402,29.4288633 L69.0370402,40.7826381 L63.0368954,40.7826381 L63.0368954,8.52862735 L73.5426381,8.52862735 C75.6988257,8.52862735 77.5651796,8.78186595 79.1412118,9.28687936 C80.717244,9.79286863 82.0190563,10.4993995 83.0446971,11.4059839 C84.0708257,12.3130563 84.8295657,13.3987131 85.319941,14.6624665 C85.8108043,15.9267078 86.0562359,17.3100054 86.0562359,18.8113834 C86.0562359,20.3727775 85.7956783,21.8043807 85.2755389,23.1052172 C84.7549115,24.4065416 83.9742145,25.525378 82.9334477,26.4622145 C81.892193,27.3990509 80.5913566,28.1280268 79.0299625,28.6481662 C77.4685684,29.1692815 75.6397855,29.4288633 73.5426381,29.4288633 L69.0370402,29.4288633 L69.0370402,29.4288633 Z" id="Fill-1" fill="#152239"></path>
                    <path d="M95.4470456,17.896992 L95.4470456,32.4404021 C95.4470456,33.8383378 95.7705469,34.9200912 96.4175496,35.6856622 C97.0640643,36.4517212 98.0345684,36.8347507 99.3280858,36.8347507 C100.27956,36.8347507 101.171995,36.6224987 102.004901,36.1984826 C102.837319,35.7749544 103.625335,35.1913834 104.368949,34.4477694 L104.368949,17.896992 L109.878718,17.896992 L109.878718,40.7826381 L106.510499,40.7826381 C105.796649,40.7826381 105.328231,40.4479142 105.105244,39.7789544 L104.726118,37.9496836 C104.249893,38.4259088 103.759029,38.8611475 103.254016,39.2549115 C102.748027,39.6486756 102.208858,39.9833995 101.636509,40.2585952 C101.064161,40.5337909 100.446922,40.7494584 99.7852815,40.9051099 C99.1236408,41.0612493 98.4136944,41.139319 97.6554424,41.139319 C96.4063271,41.139319 95.3016408,40.927555 94.3428472,40.5040268 C93.3835657,40.0800107 92.5765201,39.4813137 91.9226863,38.7084236 C91.2678767,37.9350456 90.7740858,37.0167507 90.4393619,35.9535389 C90.1046381,34.8903271 89.9372761,33.7192815 89.9372761,32.4404021 L89.9372761,17.896992 L95.4470456,17.896992" id="Fill-2" fill="#152239"></path>
                    <polygon id="Fill-3" fill="#152239" points="116.124295 40.7826381 121.633576 40.7826381 121.633576 7.63619303 116.124295 7.63619303"></polygon>
                    <path d="M128.213877,40.7826381 L133.723158,40.7826381 L133.723158,17.896992 L128.213877,17.896992 L128.213877,40.7826381 Z M134.548257,11.2273995 C134.548257,11.7036247 134.451646,12.1495979 134.258424,12.565807 C134.065201,12.982504 133.808547,13.346504 133.488949,13.6587828 C133.168863,13.9710617 132.793641,14.2203968 132.362794,14.4063003 C131.930971,14.5922038 131.470359,14.6849115 130.979496,14.6849115 C130.503271,14.6849115 130.053882,14.5922038 129.629866,14.4063003 C129.206338,14.2203968 128.838434,13.9710617 128.526155,13.6587828 C128.213877,13.346504 127.964542,12.982504 127.778638,12.565807 C127.592735,12.1495979 127.500027,11.7036247 127.500027,11.2273995 C127.500027,10.7370241 127.592735,10.2759249 127.778638,9.84458981 C127.964542,9.41325469 128.213877,9.04144772 128.526155,8.72965684 C128.838434,8.41689008 129.206338,8.1680429 129.629866,7.98213941 C130.053882,7.79672386 130.503271,7.70352815 130.979496,7.70352815 C131.470359,7.70352815 131.930971,7.79672386 132.362794,7.98213941 C132.793641,8.1680429 133.168863,8.41689008 133.488949,8.72965684 C133.808547,9.04144772 134.065201,9.41325469 134.258424,9.84458981 C134.451646,10.2759249 134.548257,10.7370241 134.548257,11.2273995 L134.548257,11.2273995 Z" id="Fill-4" fill="#152239"></path>
                    <path d="M147.463426,41.139319 C145.485335,41.139319 143.961512,40.578681 142.890493,39.4554531 C141.819962,38.3327131 141.284697,36.7825416 141.284697,34.8049383 L141.284697,22.0234638 L138.965051,22.0234638 C138.66741,22.0234638 138.410756,21.9268525 138.195576,21.73363 C137.979421,21.5404075 137.872075,21.2505737 137.872075,20.8636408 L137.872075,18.677689 L141.552086,18.0755764 L142.711909,11.83 C142.771437,11.5323592 142.909035,11.3025416 143.12519,11.1385952 C143.34037,10.9751367 143.611662,10.8931635 143.939067,10.8931635 L146.794466,10.8931635 L146.794466,18.0975335 L152.816568,18.0975335 L152.816568,22.0234638 L146.794466,22.0234638 L146.794466,34.4253244 C146.794466,35.1391743 146.972563,35.6968847 147.329244,36.0984558 C147.686413,36.5000268 148.16215,36.7005684 148.756944,36.7005684 C149.098987,36.7005684 149.384917,36.6600697 149.61571,36.5780965 C149.846504,36.4966113 150.047046,36.4107346 150.218311,36.3214424 C150.388601,36.2321501 150.541324,36.1467614 150.675507,36.0652761 C150.809201,35.9833029 150.942895,35.9423164 151.077078,35.9423164 C151.240048,35.9423164 151.374231,35.9833029 151.478161,36.0652761 C151.582091,36.1467614 151.693828,36.2692332 151.812885,36.4331796 L153.463571,39.1095067 C152.660429,39.7789544 151.738231,40.2844558 150.697952,40.6264987 C149.656697,40.9685416 148.578359,41.139319 147.463426,41.139319" id="Fill-5" fill="#152239"></path>
                    <path d="M173.761694,20.1722359 C173.761694,20.5591689 173.690944,20.9343914 173.549442,21.2983914 C173.407941,21.6628794 173.240579,21.9717426 173.047845,22.2244933 L162.162488,36.544429 L173.449416,36.544429 L173.449416,40.7826381 L155.760772,40.7826381 L155.760772,38.4849491 C155.760772,38.2321984 155.819812,37.9311421 155.939357,37.5817802 C156.057925,37.2324182 156.243828,36.9015979 156.496579,36.589319 L167.471228,22.112756 L156.407775,22.112756 L156.407775,17.896992 L173.761694,17.896992 L173.761694,20.1722359" id="Fill-6" fill="#152239"></path>
                    <path d="M187.724461,21.4881984 C186.118665,21.4881984 184.861743,21.9419786 183.955158,22.8490509 C183.048086,23.7561233 182.467442,25.0423217 182.21518,26.7076461 L192.564783,26.7076461 C192.564783,25.9937962 192.46866,25.3214209 192.274949,24.6890563 C192.081727,24.0571796 191.784086,23.5033727 191.383003,23.0271475 C190.98192,22.5514102 190.47593,22.1761877 189.866011,21.900992 C189.256091,21.6257962 188.542241,21.4881984 187.724461,21.4881984 Z M187.612724,17.540311 C189.05555,17.540311 190.382247,17.7706166 191.594767,18.2317158 C192.806799,18.692815 193.851469,19.3656783 194.728777,20.2503056 C195.605598,21.134933 196.290172,22.2205898 196.780547,23.5067882 C197.27141,24.7929866 197.51733,26.2616729 197.51733,27.9123592 C197.51733,28.3290563 197.4983,28.6745147 197.461217,28.9497105 C197.424134,29.2249062 197.357287,29.4400858 197.260188,29.5962252 C197.164064,29.7523646 197.033298,29.8641019 196.870327,29.9309491 C196.706381,29.9977962 196.49852,30.0314638 196.245282,30.0314638 L182.103442,30.0314638 C182.267389,32.380874 182.899265,34.1057265 184.000048,35.2060214 C185.099855,36.3068043 186.556831,36.8567078 188.371464,36.8567078 C189.26341,36.8567078 190.033373,36.7527775 190.680863,36.544429 C191.32689,36.3365684 191.89192,36.1062627 192.374976,35.8530241 C192.858032,35.6002735 193.282536,35.3699678 193.647512,35.1616193 C194.011512,34.9537587 194.363802,34.8493405 194.706332,34.8493405 C194.929319,34.8493405 195.122542,34.8942306 195.286488,34.9830349 C195.449458,35.0723271 195.591448,35.1991903 195.710504,35.3626488 L197.3163,37.3700161 C196.706381,38.083866 196.022295,38.682563 195.264531,39.1656193 C194.505791,39.6486756 193.713871,40.0356086 192.888772,40.3254424 C192.063673,40.6152761 191.22296,40.8197212 190.368097,40.9387775 C189.512257,41.0573458 188.684231,41.1173619 187.880601,41.1173619 C186.289442,41.1173619 184.810021,40.8529008 183.44185,40.3254424 C182.074166,39.797496 180.883603,39.0167989 179.873576,37.9833512 C178.861598,36.9499035 178.066751,35.6710241 177.486595,34.1467131 C176.906928,32.6224021 176.616118,30.856563 176.616118,28.8491957 C176.616118,27.2878016 176.868869,25.8191153 177.374858,24.4436247 C177.879871,23.068622 178.604944,21.8712279 179.549587,20.8524182 C180.494231,19.8340965 181.646247,19.0275389 183.007099,18.4322574 C184.367952,17.8379517 185.903485,17.540311 187.612724,17.540311 L187.612724,17.540311 Z" id="Fill-7" fill="#152239"></path>
                    <path d="M201.999995,40.7826381 L201.999995,17.896992 L205.23452,17.896992 C205.799062,17.896992 206.193314,18.0014102 206.416788,18.2092708 C206.639775,18.4176193 206.788107,18.7747882 206.862761,19.2798016 L207.196997,22.0459088 C208.014777,20.6333351 208.974059,19.5179142 210.074842,18.700134 C211.174649,17.8823539 212.409126,17.4729759 213.777298,17.4729759 C214.907357,17.4729759 215.844193,17.7335335 216.587807,18.2541609 L215.873957,22.3806327 C215.829555,22.6480214 215.732456,22.8378284 215.584123,22.9490777 C215.435303,23.060815 215.234761,23.1164397 214.981523,23.1164397 C214.758536,23.1164397 214.453576,23.0647185 214.067131,22.9603003 C213.680198,22.85637 213.167378,22.8041609 212.528182,22.8041609 C211.382997,22.8041609 210.401759,23.1203432 209.583979,23.7522198 C208.76571,24.3845845 208.074306,25.3101984 207.509764,26.5295496 L207.509764,40.7826381 L201.999995,40.7826381" id="Fill-8" fill="#152239"></path>
                    <path d="M251.317115,33.1766971 C251.644032,33.1766971 251.926547,33.3030724 252.16466,33.5553351 L254.529196,36.1209008 C253.220064,37.7418231 251.610853,38.9836193 249.700097,39.8458016 C247.78934,40.7084718 245.495067,41.139319 242.81874,41.139319 C240.42444,41.139319 238.272155,40.7309169 236.361399,39.9126488 C234.450643,39.0948686 232.818011,37.9574906 231.464965,36.5000268 C230.11192,35.042563 229.074568,33.3030724 228.353887,31.2805791 C227.632231,29.2580858 227.271646,27.049689 227.271646,24.6558767 C227.271646,22.2318123 227.673217,20.012681 228.475871,17.9975067 C229.279013,15.9823324 230.409072,14.2467453 231.866536,12.7887936 C233.324,11.3318177 235.067394,10.1978552 237.097206,9.3873941 C239.127507,8.57693298 241.368595,8.17194638 243.822424,8.17194638 C246.216724,8.17194638 248.30948,8.55497587 250.101668,9.32054692 C251.893367,10.0866059 253.428413,11.1015121 254.707292,12.3652654 L252.699925,15.1533298 C252.580869,15.3319142 252.428633,15.4880536 252.242729,15.621748 C252.056826,15.7554424 251.800172,15.8227775 251.473255,15.8227775 C251.131212,15.8227775 250.78185,15.6885952 250.425169,15.4212064 C250.068,15.1533298 249.61422,14.863496 249.064316,14.5512172 C248.513925,14.2389383 247.818617,13.9486166 246.978391,13.6812279 C246.138654,13.4138391 245.071539,13.2796568 243.778021,13.2796568 C242.261029,13.2796568 240.866997,13.544118 239.595925,14.0715764 C238.323877,14.5995228 237.231389,15.3543592 236.316509,16.3355979 C235.402118,17.3173244 234.688268,18.5103271 234.17496,19.9155818 C233.662139,21.3208365 233.405485,22.9012601 233.405485,24.6558767 C233.405485,26.4700214 233.662139,28.0836247 234.17496,29.4961984 C234.688268,30.9087721 235.383576,32.0983592 236.260885,33.0649598 C237.137705,34.0315603 238.171641,34.7712708 239.361228,35.2840912 C240.551303,35.7973995 241.829694,36.0540536 243.197866,36.0540536 C244.015646,36.0540536 244.755357,36.0091635 245.416997,35.9198713 C246.079126,35.831067 246.689046,35.6895657 247.246268,35.4963432 C247.803979,35.3031206 248.331925,35.0537855 248.830107,34.7488257 C249.32829,34.4443539 249.823056,34.0686434 250.313432,33.6226702 C250.461764,33.4884879 250.617903,33.3811421 250.78185,33.2991689 C250.945308,33.2176836 251.123893,33.1766971 251.317115,33.1766971" id="Fill-9" fill="#152239"></path>
                    <path d="M268.313378,21.4881984 C266.707582,21.4881984 265.45066,21.9419786 264.543587,22.8490509 C263.636515,23.7561233 263.056847,25.0423217 262.804097,26.7076461 L273.1537,26.7076461 C273.1537,25.9937962 273.057088,25.3214209 272.863866,24.6890563 C272.670643,24.0571796 272.373003,23.5033727 271.971432,23.0271475 C271.570349,22.5514102 271.064359,22.1761877 270.454928,21.900992 C269.845008,21.6257962 269.131158,21.4881984 268.313378,21.4881984 Z M268.202129,17.540311 C269.644466,17.540311 270.971164,17.7706166 272.183684,18.2317158 C273.395228,18.692815 274.439898,19.3656783 275.317694,20.2503056 C276.194515,21.134933 276.879088,22.2205898 277.369952,23.5067882 C277.860327,24.7929866 278.105759,26.2616729 278.105759,27.9123592 C278.105759,28.3290563 278.086729,28.6745147 278.049646,28.9497105 C278.012563,29.2249062 277.945716,29.4400858 277.849105,29.5962252 C277.752493,29.7523646 277.622214,29.8641019 277.458756,29.9309491 C277.29481,29.9977962 277.086949,30.0314638 276.834198,30.0314638 L262.692359,30.0314638 C262.855818,32.380874 263.487694,34.1057265 264.588477,35.2060214 C265.688772,36.3068043 267.145748,36.8567078 268.960381,36.8567078 C269.852327,36.8567078 270.621802,36.7527775 271.269292,36.544429 C271.915807,36.3365684 272.480836,36.1062627 272.963893,35.8530241 C273.447437,35.6002735 273.871453,35.3699678 274.235941,35.1616193 C274.599941,34.9537587 274.952718,34.8493405 275.295249,34.8493405 C275.518236,34.8493405 275.711458,34.8942306 275.874917,34.9830349 C276.038375,35.0723271 276.179877,35.1991903 276.298933,35.3626488 L277.904729,37.3700161 C277.29481,38.083866 276.611212,38.682563 275.85296,39.1656193 C275.09422,39.6486756 274.3023,40.0356086 273.477201,40.3254424 C272.652102,40.6152761 271.811877,40.8197212 270.956525,40.9387775 C270.101174,41.0573458 269.27266,41.1173619 268.469517,41.1173619 C266.878359,41.1173619 265.39845,40.8529008 264.030767,40.3254424 C262.662595,39.797496 261.47252,39.0167989 260.462005,37.9833512 C259.450515,36.9499035 258.65518,35.6710241 258.075512,34.1467131 C257.495357,32.6224021 257.205035,30.856563 257.205035,28.8491957 C257.205035,27.2878016 257.457786,25.8191153 257.963775,24.4436247 C258.468788,23.068622 259.194349,21.8712279 260.138504,20.8524182 C261.08266,19.8340965 262.235164,19.0275389 263.596016,18.4322574 C264.956381,17.8379517 266.491914,17.540311 268.202129,17.540311 L268.202129,17.540311 Z" id="Fill-10" fill="#152239"></path>
                    <path d="M282.588424,40.7826381 L282.588424,17.896992 L285.956643,17.896992 C286.670493,17.896992 287.138912,18.2317158 287.361898,18.9006756 L287.741024,20.7075013 C288.202123,20.2317641 288.689083,19.8009169 289.202391,19.4139839 C289.714724,19.0275389 290.257796,18.692815 290.830145,18.4098123 C291.402493,18.1277855 292.015828,17.912118 292.670638,17.7632976 C293.32496,17.6149651 294.03881,17.540311 294.812188,17.540311 C296.060815,17.540311 297.168917,17.7520751 298.135517,18.1756032 C299.102118,18.5996193 299.908676,19.1944129 300.555678,19.9604718 C301.202193,20.7260429 301.693056,21.6409223 302.02778,22.704134 C302.362504,23.7673458 302.529866,24.9383914 302.529866,26.2167828 L302.529866,40.7826381 L297.020097,40.7826381 L297.020097,26.2167828 C297.020097,24.8193351 296.696595,23.7375818 296.05008,22.9715228 C295.403078,22.2059517 294.432574,21.8229223 293.139056,21.8229223 C292.187094,21.8229223 291.295147,22.0385898 290.462729,22.469437 C289.629335,22.9012601 288.841319,23.4882466 288.098193,24.2318606 L288.098193,40.7826381 L282.588424,40.7826381" id="Fill-11" fill="#152239"></path>
                    <path d="M315.466992,41.139319 C313.488901,41.139319 311.96459,40.578681 310.894059,39.4554531 C309.82304,38.3327131 309.288263,36.7825416 309.288263,34.8049383 L309.288263,22.0234638 L306.968129,22.0234638 C306.670488,22.0234638 306.413834,21.9268525 306.198654,21.73363 C305.982987,21.5404075 305.875153,21.2505737 305.875153,20.8636408 L305.875153,18.677689 L309.555651,18.0755764 L310.715475,11.83 C310.774515,11.5323592 310.912601,11.3025416 311.128268,11.1385952 C311.343448,10.9751367 311.615228,10.8931635 311.942145,10.8931635 L314.797544,10.8931635 L314.797544,18.0975335 L320.819646,18.0975335 L320.819646,22.0234638 L314.797544,22.0234638 L314.797544,34.4253244 C314.797544,35.1391743 314.976129,35.6968847 315.33281,36.0984558 C315.689979,36.5000268 316.165228,36.7005684 316.760509,36.7005684 C317.102064,36.7005684 317.388483,36.6600697 317.619276,36.5780965 C317.849582,36.4966113 318.050611,36.4107346 318.221389,36.3214424 C318.392166,36.2321501 318.54489,36.1467614 318.678584,36.0652761 C318.812279,35.9833029 318.946461,35.9423164 319.080155,35.9423164 C319.243614,35.9423164 319.377308,35.9833029 319.481727,36.0652761 C319.585657,36.1467614 319.697394,36.2692332 319.81645,36.4331796 L321.467137,39.1095067 C320.663995,39.7789544 319.741308,40.2844558 318.701029,40.6264987 C317.659775,40.9685416 316.581925,41.139319 315.466992,41.139319" id="Fill-12" fill="#152239"></path>
                    <path d="M334.782901,21.4881984 C333.177105,21.4881984 331.919694,21.9419786 331.01311,22.8490509 C330.106038,23.7561233 329.525882,25.0423217 329.273619,26.7076461 L339.623223,26.7076461 C339.623223,25.9937962 339.526123,25.3214209 339.333389,24.6890563 C339.139678,24.0571796 338.842525,23.5033727 338.440954,23.0271475 C338.039383,22.5514102 337.533394,22.1761877 336.923962,21.900992 C336.314043,21.6257962 335.600193,21.4881984 334.782901,21.4881984 Z M334.671164,17.540311 C336.113501,17.540311 337.440686,17.7706166 338.652718,18.2317158 C339.864751,18.692815 340.908933,19.3656783 341.786729,20.2503056 C342.664038,21.134933 343.348123,22.2205898 343.838987,23.5067882 C344.32985,24.7929866 344.575282,26.2616729 344.575282,27.9123592 C344.575282,28.3290563 344.556252,28.6745147 344.519169,28.9497105 C344.482086,29.2249062 344.415239,29.4400858 344.318627,29.5962252 C344.221528,29.7523646 344.091737,29.8641019 343.928279,29.9309491 C343.764332,29.9977962 343.556472,30.0314638 343.303233,30.0314638 L329.161882,30.0314638 C329.32534,32.380874 329.957217,34.1057265 331.058,35.2060214 C332.158295,36.3068043 333.615271,36.8567078 335.429903,36.8567078 C336.32185,36.8567078 337.091324,36.7527775 337.738327,36.544429 C338.384842,36.3365684 338.950359,36.1062627 339.433416,35.8530241 C339.916472,35.6002735 340.340488,35.3699678 340.704976,35.1616193 C341.068976,34.9537587 341.422241,34.8493405 341.764284,34.8493405 C341.987271,34.8493405 342.180981,34.8942306 342.34444,34.9830349 C342.507898,35.0723271 342.649399,35.1991903 342.768456,35.3626488 L344.374252,37.3700161 C343.764332,38.083866 343.080247,38.682563 342.322483,39.1656193 C341.563743,39.6486756 340.771823,40.0356086 339.946724,40.3254424 C339.121137,40.6152761 338.281399,40.8197212 337.426048,40.9387775 C336.570697,41.0573458 335.741694,41.1173619 334.93904,41.1173619 C333.347394,41.1173619 331.867973,40.8529008 330.499802,40.3254424 C329.132118,39.797496 327.942043,39.0167989 326.931528,37.9833512 C325.920038,36.9499035 325.124702,35.6710241 324.544547,34.1467131 C323.964879,32.6224021 323.674558,30.856563 323.674558,28.8491957 C323.674558,27.2878016 323.927308,25.8191153 324.433298,24.4436247 C324.938311,23.068622 325.663383,21.8712279 326.608027,20.8524182 C327.551694,19.8340965 328.704686,19.0275389 330.065539,18.4322574 C331.425903,17.8379517 332.960949,17.540311 334.671164,17.540311 L334.671164,17.540311 Z" id="Fill-13" fill="#152239"></path>
                    <g id="Group-17" transform="translate(0.000000, 10.734584)">
                        <g id="Fill-14-Clipped">
                            <mask id="mask-2" fill="white">
                                <use xlink:href="#path-1"></use>
                            </mask>
                            <g id="path-1"></g>
                            <path d="M349.057458,30.0480536 L349.057458,7.16240751 L352.291984,7.16240751 C352.857013,7.16240751 353.251265,7.26682574 353.474252,7.47468633 C353.697239,7.68303485 353.846059,8.04020375 353.920225,8.54521716 L354.254949,11.3113244 C355.072729,9.89875067 356.031523,8.78332976 357.132306,7.9655496 C358.232601,7.14776944 359.46659,6.73839142 360.835249,6.73839142 C361.965308,6.73839142 362.902145,6.99894906 363.645759,7.51957641 L362.931909,11.6460483 C362.887019,11.913437 362.790408,12.103244 362.641587,12.2144933 C362.493255,12.3262306 362.292225,12.3818552 362.039475,12.3818552 C361.816488,12.3818552 361.511528,12.330134 361.125083,12.2257158 C360.73815,12.1217855 360.22533,12.0695764 359.586134,12.0695764 C358.440949,12.0695764 357.459223,12.3857587 356.641442,13.0176354 C355.823662,13.65 355.132257,14.5756139 354.567228,15.7949651 L354.567228,30.0480536 L349.057458,30.0480536" id="Fill-14" fill="#152239" mask="url(#mask-2)"></path>
                        </g>
                        <g id="Fill-16-Clipped">
                            <mask id="mask-4" fill="white">
                                <use xlink:href="#path-3"></use>
                            </mask>
                            <g id="path-1"></g>
                            <path d="M22.855882,6.86476676 L22.855882,5.79960322 C22.855882,2.74805362 20.3927828,0.26738874 17.3631903,0.26738874 L3.57852011,0.26738874 C1.3657319,3.78589276 0.0634316354,7.94212869 0,12.4008847 L17.3631903,12.4008847 C20.3927828,12.4008847 22.855882,9.9182681 22.855882,6.86476676" id="Fill-16" fill="#152239" mask="url(#mask-4)"></path>
                        </g>
                    </g>
                    <path d="M29.0419303,35.3480107 L43.1730349,35.3480107 C45.2165094,31.8700054 46.3880429,27.8128204 46.3880429,23.4784879 C46.3880429,23.3891957 46.3841394,23.3052708 46.3836515,23.2159786 L29.0419303,23.2159786 C26.0123378,23.2159786 23.5492386,25.6981072 23.5492386,28.7477051 L23.5492386,29.8133566 C23.5492386,32.86637 26.0123378,35.3480107 29.0419303,35.3480107" id="Fill-18" fill="#152239"></path>
                    <g id="Group-22">
                        <g id="Fill-19-Clipped">
                            <mask id="mask-6" fill="white">
                                <use xlink:href="#path-5"></use>
                            </mask>
                            <g id="path-3"></g>
                            <path d="M17.3631903,7.31220375 C22.4118606,7.31220375 26.5202788,11.4498981 26.5202788,16.5341877 L26.5202788,17.5993512 C26.5202788,18.4220107 26.4119571,19.2207614 26.2060483,19.9814531 C27.1009223,19.6882038 28.0538606,19.5262091 29.0419303,19.5262091 L46.053319,19.5262091 C44.1903807,8.50959786 34.6649008,0.118080429 23.1906059,0.118080429 C16.6088418,0.118080429 10.6682252,2.88126005 6.44806971,7.31220375 L17.3631903,7.31220375" id="Fill-19" fill="#152239" mask="url(#mask-6)"></path>
                        </g>
                        <g id="Fill-21-Clipped">
                            <mask id="mask-8" fill="white">
                                <use xlink:href="#path-7"></use>
                            </mask>
                            <g id="path-3"></g>
                            <path d="M29.0419303,39.0377802 C23.9932601,39.0377802 19.8848418,34.9000858 19.8848418,29.8133566 L19.8848418,28.7477051 C19.8848418,27.9245576 19.9980429,27.125319 20.1985845,26.3651153 C19.3046863,26.6622681 18.3532118,26.8208472 17.3631903,26.8208472 L0.231769437,26.8208472 C1.84342091,38.1424182 11.5079625,46.8418231 23.1906059,46.8418231 C30.0709866,46.8418231 36.2463003,43.8278445 40.4957319,39.0377802 L29.0419303,39.0377802" id="Fill-21" fill="#152239" mask="url(#mask-8)"></path>
                        </g>
                    </g>
                </g>
            </g>
        </g>
    </g>
</svg>
