<?xml version="1.0" standalone="no"?>
<!DOCTYPE svg PUBLIC "-//W3C//DTD SVG 20010904//EN"
 "http://www.w3.org/TR/2001/REC-SVG-20010904/DTD/svg10.dtd">
<svg version="1.0" xmlns="http://www.w3.org/2000/svg"
 width="806.000000pt" height="806.000000pt" viewBox="0 0 806.000000 806.000000"
 preserveAspectRatio="xMidYMid meet">
<metadata>
Created by potrace 1.11, written by Peter Selinger 2001-2013
</metadata>
<g transform="translate(0.000000,806.000000) scale(0.100000,-0.100000)"
fill="#000000" stroke="none">
<path d="M110 4040 l0 -3910 3925 0 c3133 0 3925 3 3926 13 1 16 1 7790 0
7800 -1 4 -1767 7 -3926 7 l-3925 0 0 -3910z m1809 2116 l0 -1291 -62 -30
c-141 -69 -273 -206 -338 -353 -35 -78 -38 -86 -49 -127 -18 -63 -21 -261 -6
-330 16 -72 42 -147 67 -197 28 -54 115 -166 166 -212 71 -65 212 -145 283
-161 8 -2 31 -9 50 -15 56 -17 246 -20 320 -4 90 19 188 58 260 105 96 62 211
185 255 273 l11 21 1384 3 1385 2 0 -625 0 -625 -60 -31 c-205 -106 -358 -320
-393 -551 -13 -85 -6 -213 17 -301 70 -266 292 -481 561 -542 144 -32 324 -17
455 38 209 87 397 302 440 502 48 222 22 402 -86 581 -79 131 -230 257 -365
306 l-64 23 0 2416 0 2416 653 1 654 0 -1 -3406 -1 -3407 -3417 -2 c-1880 0
-3419 2 -3419 5 -3 17 -5 6788 -1 6798 2 9 179 12 653 12 l649 0 -1 -1292z
m3726 -262 l0 -1551 -1353 1 -1353 1 -34 89 c-66 175 -195 320 -357 401 -50
25 -96 45 -104 45 -8 0 -14 3 -15 8 0 10 0 2477 0 2523 l1 36 1607 -1 1608 -1
0 -1551z m-3358 -1439 c99 -34 167 -98 198 -190 67 -197 -90 -403 -299 -390
-252 15 -372 317 -198 499 77 80 201 114 299 81z m3715 -2270 c175 -32 282
-241 208 -407 -24 -55 -85 -120 -139 -147 -31 -16 -131 -38 -151 -34 -3 1 -20
3 -38 6 -156 24 -272 197 -238 354 17 78 81 164 149 200 38 20 134 42 162 37
11 -3 32 -6 47 -9z"/>
</g>
</svg>
