<?xml version="1.0" standalone="no"?>
<!DOCTYPE svg PUBLIC "-//W3C//DTD SVG 20010904//EN"
 "http://www.w3.org/TR/2001/REC-SVG-20010904/DTD/svg10.dtd">
<svg version="1.0" xmlns="http://www.w3.org/2000/svg"
 width="512.000000pt" height="512.000000pt" viewBox="0 0 512.000000 512.000000"
 preserveAspectRatio="xMidYMid meet">
<metadata>
Created by potrace 1.11, written by Peter Selinger 2001-2013
</metadata>
<g transform="translate(0.000000,512.000000) scale(0.100000,-0.100000)"
fill="#000000" stroke="none">
<path d="M623 5072 l-73 -3 0 -2514 0 -2515 2015 0 2015 0 0 2515 c0 2388 -1
2515 -17 2515 -190 2 -3889 4 -3940 2z m1152 -912 l0 -555 -50 -54 c-27 -30
-57 -62 -65 -71 -16 -16 -79 -107 -116 -165 -33 -52 -118 -245 -109 -245 3 0
0 -11 -5 -26 -6 -14 -12 -37 -15 -52 -3 -15 -7 -38 -10 -52 -10 -44 -21 -145
-20 -173 1 -15 0 -27 -2 -27 -1 0 -110 107 -242 239 l-238 238 0 751 0 751
436 -2 435 -2 1 -555z m1223 111 l0 -448 -96 29 c-124 37 -175 43 -347 43
-171 -1 -252 -13 -383 -59 l-42 -15 0 449 0 448 434 0 434 0 0 -447z m1227
-304 l0 -748 -238 -237 c-130 -130 -239 -238 -241 -240 -1 -1 -3 11 -4 27 -8
275 -125 551 -325 767 l-65 70 0 550 c0 302 2 552 4 556 2 4 199 6 437 5 l432
-2 0 -748z m-1470 -442 c152 -40 275 -108 379 -211 82 -80 121 -132 170 -230
57 -115 77 -199 82 -344 6 -180 -49 -357 -157 -505 -24 -33 -448 -464 -622
-634 l-45 -43 -319 319 c-176 176 -336 345 -357 378 -176 265 -195 578 -53
849 120 227 366 405 595 432 31 3 59 8 60 9 10 9 215 -6 267 -20z m-1138
-1524 c376 -377 685 -689 686 -693 2 -8 -442 -458 -452 -458 -3 0 -218 213
-477 473 l-472 472 1 457 c0 404 2 456 15 445 8 -6 323 -320 699 -696z m2608
252 l0 -458 -700 -700 -700 -700 -457 -1 c-252 0 -458 2 -458 4 0 6 2303 2311
2310 2312 3 0 5 -206 5 -457z m-3033 -1250 c156 -155 311 -311 346 -346 l63
-64 -100 -99 -100 -99 -246 -1 c-241 0 -246 0 -250 20 -4 24 -4 878 1 874 2
-2 131 -130 286 -285z m3032 -150 c-1 -241 -2 -443 -3 -449 -1 -7 -135 -10
-446 -10 -245 0 -445 1 -445 2 0 3 892 894 894 894 1 0 1 -197 0 -437z"/>
<path d="M2459 2990 c-137 -47 -221 -158 -225 -301 -4 -119 38 -211 130 -280
168 -127 415 -65 503 127 38 83 38 196 0 274 -77 161 -245 235 -408 180z"/>
</g>
</svg>
